Iansui-src.glyphspackage
{
glyphname = ampersand;
layers = (
{
hints = (
{
horizontal = 1;
place = (-17,56);
type = Stem;
},
{
horizontal = 1;
place = (660,52);
type = Stem;
},
{
place = (52,66);
type = Stem;
},
{
place = (375,67);
type = Stem;
},
{
place = (146,66);
type = Stem;
}
);
layerId = "481A290F-76EE-4968-957F-52614F4635C1";
shapes = (
{
closed = 1;
nodes = (
(553,-1,o),
(581,-29,o),
(676,-29,cs),
(696,-29,o),
(704,-26,o),
(704,-21,cs),
(704,-13,o),
(682,-1,o),
(659,8,cs),
(640,15,o),
(602,40,o),
(579,60,cs),
(562,76,o),
(545,93,o),
(528,111,c),
(592,201,o),
(641,327,o),
(641,346,cs),
(641,370,o),
(601,389,o),
(591,389,cs),
(579,389,o),
(576,373,o),
(570,349,cs),
(558,300,o),
(528,216,o),
(484,156,c),
(414,228,o),
(348,307,o),
(295,372,c),
(371,425,o),
(442,499,o),
(442,576,cs),
(442,656,o),
(391,697,o),
(307,697,cs),
(219,697,o),
(146,633,o),
(146,543,cs),
(146,498,o),
(164,442,o),
(208,383,c),
(114,316,o),
(52,243,o),
(52,138,cs),
(52,35,o),
(112,-32,o),
(263,-32,cs),
(339,-32,o),
(425,-5,o),
(488,64,c)
);
},
{
closed = 1;
nodes = (
(221,466,o),
(212,503,o),
(212,539,cs),
(212,601,o),
(260,645,o),
(307,645,cs),
(357,645,o),
(375,623,o),
(375,572,cs),
(375,525,o),
(327,465,o),
(257,420,c)
);
},
{
closed = 1;
nodes = (
(389,51,o),
(320,24,o),
(263,24,cs),
(168,24,o),
(118,72,o),
(118,140,cs),
(118,227,o),
(174,288,o),
(245,336,c),
(301,269,o),
(374,183,o),
(446,107,c)
);
}
);
width = 700;
}
);
note = cid00007;
unicode = 38;
}
{
glyphname = plus;
layers = (
{
hints = (
{
horizontal = 1;
place = (222,58);
type = Stem;
},
{
place = (271,58);
type = Stem;
}
);
layerId = "481A290F-76EE-4968-957F-52614F4635C1";
shapes = (
{
closed = 1;
nodes = (
(268,7,ls),
(268,-9,o),
(286,-18,o),
(303,-18,cs),
(317,-18,o),
(330,-12,o),
(330,2,cs),
(330,31,o),
(329,58,o),
(329,76,cs),
(329,207,l),
(454,207,ls),
(469,207,o),
(499,206,o),
(528,206,cs),
(542,206,o),
(548,219,o),
(548,232,cs),
(548,249,o),
(539,268,o),
(523,268,cs),
(522,268,ls),
(495,266,o),
(469,265,o),
(455,265,cs),
(329,265,l),
(329,383,ls),
(329,406,o),
(330,439,o),
(332,455,cs),
(332,457,ls),
(332,470,o),
(311,480,o),
(294,480,cs),
(280,480,o),
(269,474,o),
(269,460,cs),
(270,441,o),
(271,413,o),
(271,382,cs),
(271,265,l),
(149,265,ls),
(118,265,o),
(90,266,o),
(71,267,cs),
(57,267,o),
(51,256,o),
(51,242,cs),
(51,225,o),
(61,204,o),
(74,204,cs),
(76,204,ls),
(92,206,o),
(125,207,o),
(148,207,cs),
(271,207,l),
(271,75,ls),
(271,60,o),
(270,35,o),
(268,8,cs)
);
}
);
width = 600;
}
);
note = cid00012;
unicode = 43;
}
{
glyphname = period;
layers = (
{
hints = (
{
horizontal = 1;
place = (-14,124);
type = Stem;
},
{
place = (123,115);
type = Stem;
}
);
layerId = "481A290F-76EE-4968-957F-52614F4635C1";
shapes = (
{
closed = 1;
nodes = (
(238,61,o),
(207,95,o),
(180,95,cs),
(148,95,o),
(123,70,o),
(123,40,cs),
(123,6,o),
(151,-29,o),
(180,-29,cs),
(208,-29,o),
(238,-3,o),
(238,26,cs)
);
}
);
width = 350;
}
);
note = cid00015;
unicode = 46;
}
{
glyphname = four;
layers = (
{
hints = (
{
horizontal = 1;
place = (159,68);
type = Stem;
},
{
place = (378,69);
type = Stem;
},
{
horizontal = 1;
place = (145,66);
type = Stem;
}
);
layerId = "481A290F-76EE-4968-957F-52614F4635C1";
shapes = (
{
closed = 1;
nodes = (
(466,146,ls),
(505,146,o),
(545,144,o),
(559,144,cs),
(567,144,o),
(570,151,o),
(570,160,cs),
(570,180,o),
(555,212,o),
(538,212,cs),
(525,212,o),
(492,207,o),
(465,206,cs),
(447,205,l),
(447,403,ls),
(447,427,o),
(449,476,o),
(449,492,cs),
(449,509,o),
(417,520,o),
(395,520,cs),
(384,520,o),
(375,517,o),
(375,510,cs),
(375,487,o),
(378,422,o),
(378,403,cs),
(378,202,l),
(135,191,l),
(218,313,o),
(317,473,o),
(381,577,cs),
(417,633,ls),
(419,636,o),
(420,639,o),
(420,642,cs),
(420,664,o),
(387,696,o),
(369,696,cs),
(365,696,o),
(361,694,o),
(359,689,cs),
(337,631,o),
(308,573,o),
(93,237,cs),
(84,223,o),
(70,208,o),
(58,191,cs),
(53,184,o),
(51,177,o),
(51,170,cs),
(51,146,o),
(76,123,o),
(97,123,cs),
(100,123,o),
(102,123,o),
(104,124,cs),
(118,128,o),
(133,130,o),
(141,130,cs),
(378,142,l),
(378,90,ls),
(378,76,o),
(376,18,o),
(376,2,cs),
(376,-15,o),
(408,-26,o),
(430,-26,cs),
(442,-26,o),
(451,-23,o),
(451,-16,cs),
(451,7,o),
(448,47,o),
(447,88,cs),
(447,145,l)
);
}
);
width = 600;
}
);
note = cid00021;
unicode = 52;
}
{
glyphname = eight;
layers = (
{
hints = (
{
horizontal = 1;
place = (-17,63);
type = Stem;
},
{
horizontal = 1;
place = (653,59);
type = Stem;
},
{
place = (57,71);
type = Stem;
},
{
place = (457,72);
type = Stem;
},
{
horizontal = 1;
place = (583,17);
type = Stem;
},
{
place = (91,70);
type = Stem;
},
{
place = (489,45);
type = Stem;
}
);
layerId = "481A290F-76EE-4968-957F-52614F4635C1";
shapes = (
{
closed = 1;
nodes = (
(337,386,l),
(403,434,o),
(534,538,o),
(534,569,cs),
(534,578,o),
(527,585,o),
(518,585,cs),
(513,585,o),
(506,583,o),
(500,577,cs),
(493,571,o),
(489,568,o),
(489,568,c),
(491,572,o),
(493,577,o),
(493,582,cs),
(493,602,o),
(428,697,o),
(302,697,cs),
(174,697,o),
(91,618,o),
(91,530,cs),
(91,465,o),
(136,420,o),
(222,375,c),
(130,315,o),
(57,244,o),
(57,158,cs),
(57,51,o),
(144,-32,o),
(281,-32,cs),
(436,-32,o),
(529,44,o),
(529,167,cs),
(529,272,o),
(465,333,o),
(345,383,cs)
);
},
{
closed = 1;
nodes = (
(396,296,o),
(457,266,o),
(457,164,cs),
(457,79,o),
(389,31,o),
(281,31,cs),
(174,31,o),
(128,94,o),
(128,161,cs),
(128,228,o),
(184,276,o),
(283,345,c)
);
},
{
closed = 1;
nodes = (
(198,450,o),
(161,480,o),
(161,529,cs),
(161,587,o),
(217,638,o),
(303,638,cs),
(368,638,o),
(408,608,o),
(436,563,cs),
(443,552,o),
(452,549,o),
(459,549,cs),
(462,549,o),
(465,549,o),
(467,550,c),
(408,503,o),
(344,456,o),
(277,413,c)
);
}
);
width = 600;
}
);
note = cid00025;
unicode = 56;
}
{
glyphname = at;
layers = (
{
hints = (
{
horizontal = 1;
place = (-17,59);
type = Stem;
},
{
horizontal = 1;
place = (149,64);
type = Stem;
},
{
horizontal = 1;
place = (503,57);
type = Stem;
},
{
horizontal = 1;
place = (657,55);
type = Stem;
},
{
place = (36,66);
type = Stem;
},
{
place = (200,72);
type = Stem;
},
{
place = (492,61);
type = Stem;
},
{
place = (687,62);
type = Stem;
},
{
horizontal = 1;
place = (148,57);
type = Stem;
}
);
layerId = "481A290F-76EE-4968-957F-52614F4635C1";
shapes = (
{
closed = 1;
nodes = (
(492,233,o),
(492,227,o),
(492,221,cs),
(492,163,o),
(518,133,o),
(571,133,cs),
(663,133,o),
(749,249,o),
(749,410,cs),
(749,586,o),
(616,697,o),
(420,697,cs),
(200,697,o),
(36,504,o),
(36,291,cs),
(36,89,o),
(177,-32,o),
(393,-32,cs),
(533,-32,o),
(671,45,o),
(739,151,c),
(742,157,o),
(744,163,o),
(744,168,cs),
(744,177,o),
(738,184,o),
(730,184,cs),
(724,184,o),
(717,180,o),
(709,171,cs),
(641,92,o),
(508,27,o),
(393,27,cs),
(216,27,o),
(102,115,o),
(102,298,cs),
(102,476,o),
(250,642,o),
(419,642,cs),
(573,642,o),
(687,562,o),
(687,407,cs),
(687,272,o),
(624,190,o),
(573,190,cs),
(561,190,o),
(553,196,o),
(553,242,cs),
(553,291,o),
(565,409,o),
(594,493,c),
(594,494,o),
(595,495,o),
(595,497,cs),
(595,515,o),
(555,535,o),
(533,535,cs),
(526,535,o),
(520,533,o),
(520,527,cs),
(520,523,o),
(519,509,o),
(518,500,c),
(496,531,o),
(463,545,o),
(423,545,cs),
(299,545,o),
(200,423,o),
(200,283,cs),
(200,190,o),
(252,134,o),
(332,134,cs),
(391,134,o),
(448,167,o),
(493,240,c)
);
},
{
closed = 1;
nodes = (
(293,198,o),
(272,223,o),
(272,287,cs),
(272,397,o),
(349,488,o),
(426,488,cs),
(468,488,o),
(498,460,o),
(498,411,cs),
(498,315,o),
(426,198,o),
(332,198,cs)
);
}
);
width = 784;
}
);
note = cid00033;
unicode = 64;
}
{
glyphname = G;
layers = (
{
hints = (
{
horizontal = 1;
place = (-17,63);
type = Stem;
},
{
horizontal = 1;
place = (311,55);
type = Stem;
},
{
horizontal = 1;
place = (651,62);
type = Stem;
},
{
place = (56,70);
type = Stem;
},
{
place = (617,63);
type = Stem;
}
);
layerId = "481A290F-76EE-4968-957F-52614F4635C1";
shapes = (
{
closed = 1;
nodes = (
(608,16,ls),
(608,4,o),
(636,-6,o),
(658,-6,cs),
(671,-6,o),
(682,-2,o),
(682,7,cs),
(682,26,o),
(680,81,o),
(680,97,cs),
(680,298,ls),
(680,312,o),
(689,317,o),
(689,326,cs),
(689,341,o),
(653,374,o),
(639,374,cs),
(627,374,o),
(615,371,o),
(604,370,cs),
(480,363,ls),
(463,362,o),
(432,361,o),
(410,361,cs),
(396,361,ls),
(387,361,o),
(384,355,o),
(384,347,cs),
(384,327,o),
(403,295,o),
(422,295,cs),
(424,295,ls),
(445,298,o),
(476,301,o),
(499,303,cs),
(613,311,ls),
(616,311,o),
(617,310,o),
(617,308,cs),
(617,152,o),
(501,46,o),
(371,46,cs),
(219,46,o),
(126,110,o),
(126,295,cs),
(126,492,o),
(249,651,o),
(408,651,cs),
(539,651,o),
(581,582,o),
(584,577,cs),
(588,571,o),
(593,568,o),
(598,568,cs),
(615,568,o),
(637,596,o),
(637,616,cs),
(637,620,o),
(636,625,o),
(633,628,cs),
(591,680,o),
(525,713,o),
(408,713,cs),
(204,713,o),
(56,516,o),
(56,295,cs),
(56,68,o),
(191,-17,o),
(371,-17,cs),
(461,-17,o),
(566,30,o),
(613,126,c),
(613,65,o),
(610,45,o),
(608,17,cs)
);
}
);
width = 752;
}
);
note = cid00040;
unicode = 71;
}
{
glyphname = P;
layers = (
{
hints = (
{
horizontal = 1;
place = (320,46);
type = Stem;
},
{
horizontal = 1;
place = (648,63);
type = Stem;
},
{
place = (106,70);
type = Stem;
},
{
place = (503,72);
type = Stem;
}
);
layerId = "481A290F-76EE-4968-957F-52614F4635C1";
shapes = (
{
closed = 1;
nodes = (
(106,116,ls),
(106,77,o),
(104,33,o),
(104,17,cs),
(104,0,o),
(136,-11,o),
(158,-11,cs),
(170,-11,o),
(179,-8,o),
(179,-1,cs),
(179,22,o),
(176,70,o),
(176,115,cs),
(176,325,l),
(179,323,o),
(182,322,o),
(186,321,cs),
(194,320,o),
(204,320,o),
(215,320,cs),
(265,320,o),
(334,328,o),
(372,336,cs),
(495,361,o),
(575,429,o),
(575,547,cs),
(575,649,o),
(495,711,o),
(320,711,cs),
(247,711,o),
(236,710,o),
(69,678,cs),
(63,677,o),
(60,673,o),
(60,667,cs),
(60,649,o),
(85,618,o),
(105,618,cs),
(106,618,l)
);
},
{
closed = 1;
nodes = (
(176,628,l),
(219,640,o),
(270,648,o),
(318,648,cs),
(435,648,o),
(503,615,o),
(503,541,cs),
(503,514,o),
(497,386,o),
(189,366,cs),
(184,366,o),
(180,364,o),
(176,362,c)
);
}
);
width = 618;
}
);
note = cid00049;
unicode = 80;
}
{
glyphname = X;
layers = (
{
hints = (
{
horizontal = 1;
place = (-13,721);
type = Stem;
},
{
place = (9,585);
type = Stem;
}
);
layerId = "481A290F-76EE-4968-957F-52614F4635C1";
shapes = (
{
closed = 1;
nodes = (
(352,233,o),
(406,153,o),
(456,82,cs),
(477,52,o),
(500,15,o),
(514,-4,cs),
(519,-10,o),
(527,-13,o),
(537,-13,cs),
(561,-13,o),
(594,4,o),
(594,19,cs),
(594,22,o),
(593,25,o),
(590,28,cs),
(544,76,o),
(491,136,o),
(343,361,c),
(401,445,o),
(520,613,o),
(563,656,cs),
(566,659,o),
(567,662,o),
(567,665,cs),
(567,681,o),
(536,700,o),
(515,700,cs),
(508,700,o),
(503,698,o),
(500,694,cs),
(489,677,o),
(471,651,o),
(307,419,c),
(261,488,o),
(207,566,o),
(169,624,cs),
(151,652,o),
(135,679,o),
(124,700,cs),
(121,705,o),
(113,708,o),
(103,708,cs),
(79,708,o),
(45,694,o),
(45,677,cs),
(45,674,o),
(46,671,o),
(49,668,cs),
(81,631,o),
(115,593,o),
(261,369,c),
(200,281,o),
(142,197,o),
(92,123,cs),
(74,96,o),
(42,57,o),
(14,25,cs),
(11,21,o),
(9,18,o),
(9,15,cs),
(9,1,o),
(37,-10,o),
(61,-10,cs),
(74,-10,o),
(85,-7,o),
(90,0,cs),
(111,33,o),
(121,49,o),
(300,312,c)
);
}
);
width = 600;
}
);
note = cid00057;
unicode = 88;
}
{
glyphname = backslash;
layers = (
{
hints = (
{
horizontal = 1;
place = (-42,793);
type = Stem;
},
{
place = (9,327);
type = Stem;
}
);
layerId = "481A290F-76EE-4968-957F-52614F4635C1";
shapes = (
{
closed = 1;
nodes = (
(254,32,ls),
(263,6,o),
(272,-18,o),
(280,-44,cs),
(283,-53,o),
(290,-57,o),
(297,-57,cs),
(314,-57,o),
(336,-39,o),
(336,-19,cs),
(336,-15,o),
(335,-10,o),
(333,-6,cs),
(322,14,o),
(311,38,o),
(305,55,cs),
(91,645,ls),
(84,664,o),
(74,696,o),
(67,723,cs),
(65,732,o),
(60,736,o),
(54,736,cs),
(37,736,o),
(9,709,o),
(9,694,cs),
(9,693,o),
(9,691,o),
(10,690,c),
(19,670,o),
(29,649,o),
(38,625,cs)
);
}
);
width = 350;
}
);
note = cid00097;
unicode = 92;
}
{
glyphname = c;
layers = (
{
hints = (
{
horizontal = 1;
place = (-18,58);
type = Stem;
},
{
horizontal = 1;
place = (427,59);
type = Stem;
},
{
place = (56,68);
type = Stem;
}
);
layerId = "481A290F-76EE-4968-957F-52614F4635C1";
shapes = (
{
closed = 1;
nodes = (
(486,151,o),
(482,155,o),
(477,155,cs),
(471,155,o),
(463,150,o),
(453,140,cs),
(406,93,o),
(335,40,o),
(250,40,cs),
(192,40,o),
(124,95,o),
(124,199,cs),
(124,324,o),
(232,427,o),
(315,427,cs),
(335,427,o),
(356,420,o),
(375,407,cs),
(390,397,o),
(397,379,o),
(407,360,cs),
(409,356,o),
(412,355,o),
(416,355,cs),
(432,355,o),
(458,380,o),
(458,401,cs),
(458,410,o),
(423,486,o),
(313,486,cs),
(189,486,o),
(56,354,o),
(56,194,cs),
(56,57,o),
(145,-18,o),
(250,-18,cs),
(412,-18,o),
(486,126,o),
(486,143,cs)
);
}
);
width = 530;
}
);
note = cid00068;
unicode = 99;
}
{
glyphname = i;
kernLeft = i;
kernRight = i;
layers = (
{
hints = (
{
horizontal = 1;
place = (590,108);
type = Stem;
},
{
place = (81,99);
type = Stem;
},
{
place = (97,69);
type = Stem;
}
);
layerId = "481A290F-76EE-4968-957F-52614F4635C1";
shapes = (
{
closed = 1;
nodes = (
(180,665,o),
(155,698,o),
(131,698,cs),
(97,698,o),
(81,676,o),
(81,650,cs),
(81,622,o),
(105,590,o),
(131,590,cs),
(162,590,o),
(180,611,o),
(180,636,cs)
);
},
{
closed = 1;
nodes = (
(97,105,ls),
(97,91,o),
(95,33,o),
(95,17,cs),
(95,1,o),
(128,-10,o),
(150,-10,cs),
(161,-10,o),
(169,-7,o),
(169,-1,cs),
(169,22,o),
(166,93,o),
(166,105,cs),
(166,368,ls),
(166,392,o),
(168,441,o),
(168,457,cs),
(168,473,o),
(135,484,o),
(113,484,cs),
(102,484,o),
(94,481,o),
(94,475,cs),
(94,452,o),
(97,387,o),
(97,368,cs)
);
}
);
width = 263;
}
);
note = cid00074;
unicode = 105;
}
{
glyphname = t;
layers = (
{
hints = (
{
horizontal = 1;
place = (-18,64);
type = Stem;
},
{
horizontal = 1;
place = (424,53);
type = Stem;
},
{
place = (113,68);
type = Stem;
},
{
horizontal = 1;
place = (429,58);
type = Stem;
}
);
layerId = "481A290F-76EE-4968-957F-52614F4635C1";
shapes = (
{
closed = 1;
nodes = (
(113,110,ls),
(113,24,o),
(138,-18,o),
(208,-18,cs),
(272,-18,o),
(347,64,o),
(347,89,cs),
(347,96,o),
(343,100,o),
(337,100,cs),
(331,100,o),
(322,96,o),
(310,87,cs),
(277,61,o),
(240,46,o),
(217,46,cs),
(188,46,o),
(181,54,o),
(181,108,cs),
(181,427,l),
(220,428,ls),
(246,429,o),
(292,429,o),
(306,429,cs),
(314,429,o),
(318,435,o),
(318,444,cs),
(318,461,o),
(303,487,o),
(286,487,cs),
(285,487,ls),
(271,486,o),
(233,482,o),
(209,481,cs),
(181,480,l),
(181,528,ls),
(181,552,o),
(183,601,o),
(183,617,cs),
(183,634,o),
(152,645,o),
(131,645,cs),
(120,645,o),
(111,642,o),
(111,635,cs),
(111,612,o),
(113,547,o),
(113,528,cs),
(113,477,l),
(26,477,ls),
(18,477,o),
(15,471,o),
(15,463,cs),
(15,446,o),
(28,420,o),
(46,420,cs),
(47,420,ls),
(67,421,o),
(79,424,o),
(108,424,cs),
(113,424,l)
);
}
);
width = 360;
}
);
note = cid00085;
unicode = 116;
}
{
glyphname = u;
kernLeft = u;
kernRight = u;
layers = (
{
anchors = (
{
name = top;
pos = (294,486);
}
);
hints = (
{
horizontal = 1;
place = (-18,60);
type = Stem;
},
{
place = (92,68);
type = Stem;
},
{
place = (426,62);
type = Stem;
}
);
layerId = "481A290F-76EE-4968-957F-52614F4635C1";
shapes = (
{
closed = 1;
nodes = (
(500,459,ls),
(500,475,o),
(469,485,o),
(447,485,cs),
(435,485,o),
(426,482,o),
(426,475,cs),
(426,395,ls),
(426,359,o),
(426,322,o),
(425,301,cs),
(417,148,o),
(324,42,o),
(242,42,cs),
(188,42,o),
(160,97,o),
(160,175,cs),
(160,368,ls),
(160,391,o),
(162,440,o),
(162,456,cs),
(162,473,o),
(130,484,o),
(109,484,cs),
(97,484,o),
(89,481,o),
(89,474,cs),
(89,451,o),
(92,380,o),
(92,368,cs),
(92,171,ls),
(92,74,o),
(126,-18,o),
(242,-18,cs),
(324,-18,o),
(396,41,o),
(432,114,c),
(435,73,o),
(449,-13,o),
(483,-13,cs),
(505,-13,o),
(527,14,o),
(527,29,cs),
(527,31,o),
(527,33,o),
(526,35,cs),
(488,96,o),
(488,215,o),
(488,237,cs),
(488,351,o),
(500,433,o),
(500,457,cs)
);
}
);
width = 590;
}
);
note = cid00086;
unicode = 117;
}
{
glyphname = x;
layers = (
{
hints = (
{
horizontal = 1;
place = (-12,496);
type = Stem;
},
{
place = (34,431);
type = Stem;
}
);
layerId = "481A290F-76EE-4968-957F-52614F4635C1";
shapes = (
{
closed = 1;
nodes = (
(349,58,ls),
(361,42,o),
(378,15,o),
(387,0,cs),
(391,-7,o),
(402,-9,o),
(414,-9,cs),
(437,-9,o),
(465,1,o),
(465,13,cs),
(465,15,o),
(465,17,o),
(463,19,cs),
(446,39,o),
(416,70,o),
(400,92,cs),
(288,245,l),
(398,396,ls),
(412,415,o),
(430,436,o),
(450,455,cs),
(452,457,o),
(453,459,o),
(453,461,cs),
(453,472,o),
(421,484,o),
(399,484,cs),
(390,484,o),
(383,482,o),
(380,477,cs),
(373,466,o),
(361,444,o),
(349,428,cs),
(252,295,l),
(158,424,ls),
(147,439,o),
(134,461,o),
(127,473,cs),
(124,478,o),
(116,480,o),
(107,480,cs),
(84,480,o),
(52,468,o),
(52,457,cs),
(52,455,o),
(53,453,o),
(55,451,cs),
(75,432,o),
(95,408,o),
(107,392,cs),
(214,244,l),
(101,90,ls),
(84,68,o),
(58,37,o),
(38,17,cs),
(36,15,o),
(34,12,o),
(34,10,cs),
(34,-2,o),
(62,-12,o),
(85,-12,cs),
(97,-12,o),
(108,-9,o),
(112,-2,cs),
(122,13,o),
(138,40,o),
(150,56,cs),
(251,194,l)
);
}
);
width = 500;
}
);
note = cid00089;
unicode = 120;
}
{
glyphname = braceright;
layers = (
{
hints = (
{
horizontal = 1;
place = (-156,938);
type = Stem;
},
{
place = (95,65);
type = Stem;
},
{
place = (110,64);
type = Stem;
}
);
layerId = "481A290F-76EE-4968-957F-52614F4635C1";
shapes = (
{
closed = 1;
nodes = (
(258,262,ls),
(269,262,o),
(274,270,o),
(274,281,cs),
(274,298,o),
(262,319,o),
(244,320,cs),
(175,324,o),
(159,376,o),
(159,419,cs),
(159,517,o),
(174,571,o),
(174,612,cs),
(174,694,o),
(127,742,o),
(46,765,cs),
(41,767,o),
(36,767,o),
(32,767,cs),
(22,767,o),
(18,762,o),
(18,757,cs),
(18,751,o),
(23,743,o),
(30,739,cs),
(86,707,o),
(110,669,o),
(110,612,cs),
(110,592,o),
(95,520,o),
(95,415,cs),
(95,362,o),
(119,311,o),
(168,296,c),
(107,262,o),
(95,194,o),
(95,139,cs),
(95,89,o),
(101,11,o),
(101,-19,cs),
(101,-67,o),
(83,-110,o),
(29,-141,cs),
(22,-145,o),
(18,-152,o),
(18,-158,cs),
(18,-165,o),
(24,-171,o),
(33,-171,cs),
(39,-171,o),
(166,-130,o),
(166,-21,cs),
(166,13,o),
(160,97,o),
(160,136,cs),
(160,212,o),
(184,262,o),
(247,262,cs)
);
}
);
width = 350;
}
);
note = cid00094;
unicode = 125;
}
{
glyphname = asciitilde;
layers = (
{
hints = (
{
horizontal = 1;
place = (179,63);
type = Stem;
},
{
horizontal = 1;
place = (255,63);
type = Stem;
},
{
place = (54,492);
type = Stem;
}
);
layerId = "481A290F-76EE-4968-957F-52614F4635C1";
shapes = (
{
closed = 1;
nodes = (
(546,297,o),
(539,303,o),
(531,303,cs),
(525,303,o),
(518,299,o),
(513,291,cs),
(496,260,o),
(451,227,o),
(403,227,cs),
(355,227,o),
(298,303,o),
(199,303,cs),
(91,303,o),
(54,189,o),
(54,181,cs),
(54,170,o),
(61,164,o),
(68,164,cs),
(75,164,o),
(82,168,o),
(87,177,cs),
(108,215,o),
(156,240,o),
(197,240,cs),
(275,240,o),
(329,164,o),
(401,164,cs),
(509,164,o),
(546,279,o),
(546,286,cs)
);
}
);
width = 600;
}
);
note = cid00100;
unicode = (126,8764);
}
{
glyphname = section;
layers = (
{
hints = (
{
horizontal = 1;
place = (-79,63);
type = Stem;
},
{
horizontal = 1;
place = (752,62);
type = Stem;
},
{
place = (73,75);
type = Stem;
},
{
place = (507,75);
type = Stem;
},
{
place = (93,75);
type = Stem;
},
{
place = (527,75);
type = Stem;
}
);
layerId = "481A290F-76EE-4968-957F-52614F4635C1";
shapes = (
{
closed = 1;
nodes = (
(351,228,ls),
(458,205,o),
(507,172,o),
(507,101,cs),
(507,31,o),
(438,-16,o),
(325,-16,cs),
(189,-16,o),
(122,61,o),
(105,85,cs),
(101,90,o),
(97,92,o),
(93,92,cs),
(76,92,o),
(55,65,o),
(55,42,cs),
(55,35,o),
(57,29,o),
(62,24,cs),
(131,-45,o),
(211,-79,o),
(324,-79,cs),
(481,-79,o),
(582,-4,o),
(582,102,cs),
(582,153,o),
(561,197,o),
(520,230,c),
(571,262,o),
(602,313,o),
(602,369,cs),
(602,467,o),
(530,527,o),
(396,553,cs),
(291,574,ls),
(185,596,o),
(168,618,o),
(168,663,cs),
(168,707,o),
(220,752,o),
(326,752,cs),
(441,752,o),
(495,706,o),
(517,682,cs),
(521,678,o),
(525,676,o),
(529,676,cs),
(544,676,o),
(559,701,o),
(559,723,cs),
(559,732,o),
(556,741,o),
(549,747,cs),
(498,787,o),
(423,814,o),
(327,814,cs),
(186,814,o),
(93,739,o),
(93,661,cs),
(93,606,o),
(118,564,o),
(189,536,c),
(114,510,o),
(73,461,o),
(73,403,cs),
(73,332,o),
(116,276,o),
(245,250,cs)
);
},
{
closed = 1;
nodes = (
(271,310,ls),
(164,332,o),
(148,360,o),
(148,405,cs),
(148,455,o),
(193,500,o),
(326,500,cs),
(330,500,l),
(371,492,ls),
(481,469,o),
(527,441,o),
(527,368,cs),
(527,325,o),
(508,287,o),
(457,265,c),
(433,275,o),
(407,283,o),
(376,289,cs)
);
}
);
width = 675;
}
);
note = cid00106;
unicode = 167;
}
{
glyphname = paragraph;
layers = (
{
hints = (
{
horizontal = 1;
place = (710,63);
type = Stem;
},
{
place = (268,65);
type = Stem;
},
{
place = (471,65);
type = Stem;
}
);
layerId = "481A290F-76EE-4968-957F-52614F4635C1";
shapes = (
{
closed = 1;
nodes = (
(468,-123,ls),
(468,-136,o),
(490,-144,o),
(509,-144,cs),
(524,-144,o),
(537,-139,o),
(537,-128,cs),
(536,-96,o),
(536,-54,o),
(536,-35,cs),
(536,711,ls),
(536,736,o),
(518,759,o),
(488,759,cs),
(484,759,l),
(274,749,ls),
(159,744,o),
(60,658,o),
(60,531,cs),
(60,421,o),
(139,368,o),
(224,368,cs),
(239,368,o),
(253,370,o),
(268,373,c),
(268,-47,ls),
(268,-63,o),
(267,-105,o),
(265,-133,cs),
(265,-134,ls),
(265,-147,o),
(287,-155,o),
(306,-155,cs),
(321,-155,o),
(334,-150,o),
(334,-139,cs),
(333,-109,o),
(333,-65,o),
(333,-46,cs),
(333,692,l),
(471,699,l),
(471,-36,ls),
(471,-52,o),
(470,-94,o),
(468,-122,cs)
);
}
);
width = 638;
}
);
note = cid00118;
unicode = 182;
}
{
glyphname = Atilde;
kernLeft = A;
kernRight = A;
layers = (
{
hints = (
{
horizontal = 1;
place = (218,65);
type = Stem;
},
{
horizontal = 1;
place = (759,61);
type = Stem;
},
{
place = (-1,692);
type = Stem;
},
{
horizontal = 1;
place = (225,65);
type = Stem;
},
{
horizontal = 1;
place = (802,61);
type = Stem;
}
);
layerId = "481A290F-76EE-4968-957F-52614F4635C1";
shapes = (
{
closed = 1;
nodes = (
(106,218,l),
(17,45,o),
(13,39,o),
(3,23,cs),
(0,19,o),
(-1,15,o),
(-1,12,cs),
(-1,-1,o),
(17,-7,o),
(36,-7,cs),
(56,-7,o),
(77,-1,o),
(81,10,cs),
(89,33,o),
(107,77,o),
(118,99,cs),
(137,136,o),
(158,179,o),
(180,225,c),
(182,225,o),
(507,239,o),
(507,239,c),
(529,188,o),
(551,140,o),
(571,98,cs),
(582,74,o),
(599,27,o),
(607,3,cs),
(609,-5,o),
(623,-9,o),
(638,-9,cs),
(661,-9,o),
(691,0,o),
(691,16,cs),
(691,19,o),
(689,22,o),
(687,26,c),
(665,57,o),
(639,103,o),
(629,125,cs),
(551,289,o),
(458,499,o),
(400,653,cs),
(399,655,o),
(399,658,o),
(399,660,cs),
(399,667,o),
(402,674,o),
(402,680,cs),
(402,681,o),
(401,683,o),
(401,684,c),
(396,697,o),
(366,711,o),
(344,711,cs),
(336,711,o),
(329,710,o),
(325,705,cs),
(318,697,o),
(317,665,o),
(312,653,cs),
(279,571,o),
(206,418,o),
(138,283,c),
(119,283,ls),
(103,283,o),
(92,284,o),
(80,285,cs),
(78,285,ls),
(70,285,o),
(67,279,o),
(67,270,cs),
(67,250,o),
(83,218,o),
(99,218,cs)
);
},
{
closed = 1;
nodes = (
(210,285,l),
(265,401,o),
(322,524,o),
(356,601,c),
(384,527,o),
(433,410,o),
(482,296,c)
);
},
{
closed = 1;
nodes = (
(512,846,o),
(512,849,o),
(512,850,cs),
(512,860,o),
(504,866,o),
(496,866,cs),
(491,866,o),
(485,863,o),
(482,856,cs),
(467,824,o),
(447,820,o),
(419,820,cs),
(384,820,o),
(362,863,o),
(302,863,cs),
(250,863,o),
(216,820,o),
(206,778,c),
(205,776,o),
(205,774,o),
(205,772,cs),
(205,762,o),
(213,756,o),
(221,756,cs),
(226,756,o),
(232,759,o),
(235,766,cs),
(250,798,o),
(270,802,o),
(298,802,cs),
(332,802,o),
(355,759,o),
(415,759,cs),
(467,759,o),
(501,802,o),
(511,844,c)
);
}
);
width = 690;
}
);
note = cid00167;
unicode = 195;
}
{
glyphname = Ccedilla;
layers = (
{
hints = (
{
horizontal = 1;
place = (-180,55);
type = Stem;
},
{
horizontal = 1;
place = (-72,44);
type = Stem;
},
{
horizontal = 1;
place = (-15,60);
type = Stem;
},
{
horizontal = 1;
place = (649,64);
type = Stem;
},
{
place = (51,72);
type = Stem;
},
{
place = (423,63);
type = Stem;
}
);
layerId = "481A290F-76EE-4968-957F-52614F4635C1";
shapes = (
{
closed = 1;
nodes = (
(352,-76,l),
(365,-73,o),
(377,-72,o),
(386,-72,cs),
(412,-72,o),
(423,-82,o),
(423,-98,cs),
(423,-119,o),
(408,-125,o),
(380,-125,cs),
(347,-125,o),
(332,-118,o),
(304,-99,c),
(302,-97,o),
(300,-97,o),
(298,-97,cs),
(289,-97,o),
(281,-117,o),
(281,-134,cs),
(281,-145,o),
(284,-154,o),
(291,-158,cs),
(319,-172,o),
(352,-180,o),
(380,-180,cs),
(447,-180,o),
(486,-149,o),
(486,-97,cs),
(486,-50,o),
(453,-28,o),
(404,-28,cs),
(397,-28,o),
(390,-28,o),
(383,-29,c),
(388,-15,l),
(572,1,o),
(674,149,o),
(674,184,cs),
(674,194,o),
(668,200,o),
(660,200,cs),
(653,200,o),
(645,196,o),
(636,185,cs),
(573,102,o),
(454,45,o),
(363,45,cs),
(221,45,o),
(123,121,o),
(123,295,cs),
(123,504,o),
(255,649,o),
(404,649,cs),
(425,649,o),
(530,648,o),
(576,578,cs),
(580,572,o),
(585,569,o),
(591,569,cs),
(609,569,o),
(631,598,o),
(631,617,cs),
(631,622,o),
(630,625,o),
(628,628,cs),
(562,709,o),
(445,713,o),
(408,713,cs),
(206,713,o),
(51,528,o),
(51,293,cs),
(51,87,o),
(166,-4,o),
(324,-15,c),
(315,-42,o),
(315,-42,o),
(315,-45,cs),
(315,-62,o),
(330,-76,o),
(347,-76,cs)
);
}
);
width = 703;
}
);
note = cid00170;
unicode = 199;
}
{
glyphname = Oacute;
kernLeft = O;
kernRight = O;
layers = (
{
hints = (
{
horizontal = 1;
place = (-18,64);
type = Stem;
},
{
horizontal = 1;
place = (653,60);
type = Stem;
},
{
place = (53,69);
type = Stem;
},
{
place = (625,70);
type = Stem;
}
);
layerId = "481A290F-76EE-4968-957F-52614F4635C1";
shapes = (
{
closed = 1;
nodes = (
(493,818,o),
(495,821,o),
(495,826,cs),
(495,845,o),
(455,880,o),
(436,880,cs),
(434,880,o),
(432,880,o),
(430,879,cs),
(308,797,o),
(280,769,o),
(280,758,cs),
(280,749,o),
(287,741,o),
(297,741,cs),
(301,741,o),
(304,742,o),
(308,744,cs),
(353,771,o),
(422,792,o),
(488,816,cs)
);
},
{
closed = 1;
nodes = (
(217,652,o),
(208,658,o),
(197,658,cs),
(157,658,o),
(53,516,o),
(53,337,cs),
(53,133,o),
(151,-18,o),
(366,-18,cs),
(592,-18,o),
(695,157,o),
(695,363,cs),
(695,565,o),
(585,713,o),
(405,713,cs),
(326,713,o),
(270,687,o),
(223,646,c)
);
},
{
closed = 1;
nodes = (
(194,46,o),
(122,179,o),
(122,339,cs),
(122,545,o),
(283,653,o),
(399,653,cs),
(549,653,o),
(625,508,o),
(625,371,cs),
(625,202,o),
(554,46,o),
(358,46,cs)
);
}
);
width = 745;
}
);
note = cid00182;
unicode = 211;
}
{
glyphname = Oslash;
kernLeft = O;
kernRight = O;
layers = (
{
hints = (
{
horizontal = 1;
place = (-18,64);
type = Stem;
},
{
horizontal = 1;
place = (653,60);
type = Stem;
},
{
place = (53,69);
type = Stem;
},
{
place = (625,70);
type = Stem;
}
);
layerId = "481A290F-76EE-4968-957F-52614F4635C1";
shapes = (
{
closed = 1;
nodes = (
(102,65,o),
(78,39,o),
(66,27,cs),
(63,24,o),
(61,20,o),
(61,15,cs),
(61,-5,o),
(88,-35,o),
(103,-35,cs),
(106,-35,o),
(109,-34,o),
(111,-31,cs),
(126,-11,o),
(144,16,o),
(168,44,c),
(217,5,o),
(283,-18,o),
(366,-18,cs),
(592,-18,o),
(695,157,o),
(695,363,cs),
(695,458,o),
(671,540,o),
(627,601,c),
(649,628,o),
(671,653,o),
(685,668,cs),
(688,671,o),
(690,676,o),
(690,681,cs),
(690,701,o),
(664,730,o),
(649,730,cs),
(646,730,o),
(643,729,o),
(641,726,cs),
(626,706,o),
(608,677,o),
(584,648,c),
(537,690,o),
(477,713,o),
(405,713,cs),
(326,713,o),
(270,687,o),
(223,646,c),
(217,652,o),
(208,658,o),
(197,658,cs),
(157,658,o),
(53,516,o),
(53,337,cs),
(53,239,o),
(76,153,o),
(123,91,c)
);
},
{
closed = 1;
nodes = (
(169,147,l),
(137,198,o),
(122,266,o),
(122,339,cs),
(122,545,o),
(283,653,o),
(399,653,cs),
(458,653,o),
(505,631,o),
(541,596,c)
);
},
{
closed = 1;
nodes = (
(580,544,l),
(610,494,o),
(625,432,o),
(625,371,cs),
(625,202,o),
(554,46,o),
(358,46,cs),
(296,46,o),
(247,65,o),
(211,97,c)
);
}
);
width = 745;
}
);
note = cid00142;
unicode = 216;
}
{
glyphname = Ucircumflex;
kernLeft = U;
kernRight = U;
layers = (
{
hints = (
{
horizontal = 1;
place = (-18,63);
type = Stem;
},
{
place = (106,72);
type = Stem;
},
{
place = (533,72);
type = Stem;
}
);
layerId = "481A290F-76EE-4968-957F-52614F4635C1";
shapes = (
{
closed = 1;
nodes = (
(414,794,o),
(462,765,o),
(495,737,cs),
(499,733,o),
(504,732,o),
(508,732,cs),
(518,732,o),
(526,739,o),
(526,748,cs),
(526,765,o),
(440,849,o),
(408,880,cs),
(400,888,o),
(381,892,o),
(364,892,cs),
(348,892,o),
(333,889,o),
(326,883,cs),
(278,838,o),
(207,761,o),
(207,748,cs),
(207,739,o),
(215,732,o),
(225,732,cs),
(229,732,o),
(234,733,o),
(238,737,cs),
(271,765,o),
(320,794,o),
(367,824,c)
);
},
{
closed = 1;
nodes = (
(533,242,ls),
(533,128,o),
(454,45,o),
(342,45,cs),
(236,45,o),
(178,89,o),
(178,210,cs),
(178,584,ls),
(178,619,o),
(180,664,o),
(180,680,cs),
(180,697,o),
(150,707,o),
(128,707,cs),
(114,707,o),
(103,703,o),
(103,695,cs),
(103,672,o),
(106,627,o),
(106,586,cs),
(106,198,ls),
(106,58,o),
(181,-18,o),
(342,-18,cs),
(500,-18,o),
(605,81,o),
(605,230,cs),
(605,594,ls),
(605,629,o),
(607,666,o),
(607,682,cs),
(607,699,o),
(577,709,o),
(555,709,cs),
(541,709,o),
(530,705,o),
(530,697,cs),
(530,681,o),
(533,622,o),
(533,595,cs)
);
}
);
width = 710;
}
);
note = cid00189;
unicode = 219;
}
{
glyphname = Udieresis;
kernLeft = U;
kernRight = U;
layers = (
{
hints = (
{
horizontal = 1;
place = (-18,63);
type = Stem;
},
{
horizontal = 1;
place = (759,109);
type = Stem;
},
{
place = (106,72);
type = Stem;
},
{
place = (219,101);
type = Stem;
},
{
place = (402,101);
type = Stem;
},
{
place = (533,72);
type = Stem;
}
);
layerId = "481A290F-76EE-4968-957F-52614F4635C1";
shapes = (
{
closed = 1;
nodes = (
(485,759,o),
(503,778,o),
(503,806,cs),
(503,836,o),
(474,868,o),
(448,868,cs),
(419,868,o),
(402,849,o),
(402,820,cs),
(402,793,o),
(428,759,o),
(458,759,cs)
);
},
{
closed = 1;
nodes = (
(302,759,o),
(320,778,o),
(320,806,cs),
(320,836,o),
(291,868,o),
(265,868,cs),
(236,868,o),
(219,849,o),
(219,820,cs),
(219,793,o),
(245,759,o),
(275,759,cs)
);
},
{
closed = 1;
nodes = (
(533,242,ls),
(533,128,o),
(454,45,o),
(342,45,cs),
(236,45,o),
(178,89,o),
(178,210,cs),
(178,584,ls),
(178,619,o),
(180,664,o),
(180,680,cs),
(180,697,o),
(150,707,o),
(128,707,cs),
(114,707,o),
(103,703,o),
(103,695,cs),
(103,672,o),
(106,627,o),
(106,586,cs),
(106,198,ls),
(106,58,o),
(181,-18,o),
(342,-18,cs),
(500,-18,o),
(605,81,o),
(605,230,cs),
(605,594,ls),
(605,629,o),
(607,666,o),
(607,682,cs),
(607,699,o),
(577,709,o),
(555,709,cs),
(541,709,o),
(530,705,o),
(530,697,cs),
(530,681,o),
(533,622,o),
(533,595,cs)
);
}
);
width = 710;
}
);
note = cid00190;
unicode = 220;
}
{
glyphname = germandbls;
layers = (
{
hints = (
{
horizontal = 1;
place = (-2,64);
type = Stem;
},
{
horizontal = 1;
place = (368,42);
type = Stem;
},
{
horizontal = 1;
place = (661,65);
type = Stem;
},
{
place = (103,70);
type = Stem;
},
{
place = (473,74);
type = Stem;
},
{
place = (412,73);
type = Stem;
}
);
layerId = "481A290F-76EE-4968-957F-52614F4635C1";
shapes = (
{
closed = 1;
nodes = (
(102,21,ls),
(102,4,o),
(133,-8,o),
(155,-8,cs),
(168,-8,o),
(177,-4,o),
(177,3,cs),
(177,27,o),
(173,73,o),
(173,109,cs),
(173,472,ls),
(173,612,o),
(234,661,o),
(312,661,cs),
(370,661,o),
(412,637,o),
(412,568,cs),
(412,476,o),
(307,429,o),
(202,425,cs),
(196,425,o),
(194,419,o),
(194,412,cs),
(194,392,o),
(210,358,o),
(225,358,cs),
(227,358,l),
(249,364,o),
(273,368,o),
(290,368,cs),
(299,368,ls),
(409,368,o),
(473,313,o),
(473,217,cs),
(473,115,o),
(419,62,o),
(337,62,cs),
(293,62,o),
(248,70,o),
(211,99,cs),
(202,106,o),
(194,109,o),
(189,109,cs),
(180,109,o),
(176,103,o),
(176,95,cs),
(176,66,o),
(257,-2,o),
(342,-2,cs),
(465,-2,o),
(547,95,o),
(547,217,cs),
(547,328,o),
(463,409,o),
(348,410,c),
(423,433,o),
(485,491,o),
(485,569,cs),
(485,664,o),
(417,726,o),
(312,726,cs),
(211,726,o),
(103,672,o),
(103,479,cs),
(103,61,ls),
(103,46,o),
(103,33,o),
(102,22,cs)
);
}
);
width = 610;
}
);
note = cid00150;
unicode = 223;
}
{
glyphname = aacute;
kernLeft = a;
kernRight = a;
layers = (
{
hints = (
{
horizontal = 1;
place = (-18,60);
type = Stem;
},
{
horizontal = 1;
place = (428,58);
type = Stem;
},
{
place = (56,68);
type = Stem;
},
{
place = (415,61);
type = Stem;
},
{
place = (413,76);
type = Stem;
}
);
layerId = "481A290F-76EE-4968-957F-52614F4635C1";
shapes = (
{
closed = 1;
nodes = (
(404,651,o),
(406,654,o),
(406,659,cs),
(406,678,o),
(366,713,o),
(347,713,cs),
(345,713,o),
(343,713,o),
(341,712,cs),
(219,630,o),
(191,602,o),
(191,591,cs),
(191,582,o),
(198,574,o),
(208,574,cs),
(212,574,o),
(215,575,o),
(219,577,cs),
(264,604,o),
(333,625,o),
(399,649,cs)
);
},
{
closed = 1;
nodes = (
(489,459,ls),
(489,475,o),
(457,485,o),
(434,485,cs),
(422,485,o),
(413,482,o),
(413,475,cs),
(413,420,l),
(390,466,o),
(350,486,o),
(303,486,cs),
(180,486,o),
(56,345,o),
(56,175,cs),
(56,49,o),
(120,-18,o),
(217,-18,cs),
(292,-18,o),
(365,24,o),
(415,118,c),
(420,63,o),
(438,-13,o),
(469,-13,cs),
(491,-13,o),
(513,14,o),
(513,29,cs),
(513,31,o),
(512,33,o),
(511,35,cs),
(476,89,o),
(476,164,o),
(476,193,cs),
(476,242,o),
(480,399,o),
(489,457,cs)
);
},
{
closed = 1;
nodes = (
(411,347,o),
(411,310,o),
(410,291,cs),
(403,143,o),
(311,42,o),
(216,42,cs),
(163,42,o),
(124,79,o),
(124,180,cs),
(124,322,o),
(221,428,o),
(303,428,cs),
(333,428,o),
(365,413,o),
(388,375,cs),
(390,372,o),
(392,371,o),
(395,371,cs),
(400,371,o),
(407,375,o),
(412,380,c)
);
}
);
width = 575;
}
);
note = cid00194;
unicode = 225;
}
{
glyphname = egrave;
kernLeft = e;
kernRight = e;
layers = (
{
hints = (
{
horizontal = 1;
place = (-18,59);
type = Stem;
},
{
horizontal = 1;
place = (196,56);
type = Stem;
},
{
horizontal = 1;
place = (428,58);
type = Stem;
},
{
place = (62,65);
type = Stem;
},
{
place = (419,66);
type = Stem;
}
);
layerId = "481A290F-76EE-4968-957F-52614F4635C1";
shapes = (
{
closed = 1;
nodes = (
(374,602,o),
(347,630,o),
(224,712,cs),
(222,713,o),
(220,713,o),
(218,713,cs),
(199,713,o),
(159,678,o),
(159,659,cs),
(159,654,o),
(161,651,o),
(166,649,cs),
(232,625,o),
(301,604,o),
(346,577,cs),
(350,575,o),
(353,574,o),
(357,574,cs),
(367,574,o),
(374,582,o),
(374,591,cs)
);
},
{
closed = 1;
nodes = (
(140,196,ls),
(245,196,o),
(329,208,o),
(389,227,cs),
(478,255,o),
(485,271,o),
(485,340,cs),
(485,412,o),
(443,486,o),
(319,486,cs),
(189,486,o),
(87,351,o),
(69,255,c),
(67,255,o),
(60,254,o),
(59,254,cs),
(46,254,o),
(40,249,o),
(40,241,cs),
(40,231,o),
(50,218,o),
(62,209,c),
(62,195,ls),
(62,63,o),
(141,-18,o),
(244,-18,cs),
(411,-18,o),
(488,105,o),
(488,128,cs),
(488,135,o),
(484,140,o),
(478,140,cs),
(473,140,o),
(464,136,o),
(455,125,cs),
(401,68,o),
(329,41,o),
(244,41,cs),
(177,41,o),
(127,99,o),
(127,186,cs),
(127,196,l)
);
},
{
closed = 1;
nodes = (
(135,252,l),
(150,323,o),
(220,428,o),
(318,428,cs),
(387,428,o),
(419,399,o),
(419,341,cs),
(419,306,o),
(410,292,o),
(362,278,cs),
(318,266,o),
(254,252,o),
(155,252,cs)
);
}
);
width = 543;
}
);
note = cid00200;
unicode = 232;
}
{
glyphname = iacute;
kernLeft = i;
kernRight = i;
layers = (
{
hints = (
{
horizontal = 1;
place = (-10,723);
type = Stem;
},
{
place = (97,69);
type = Stem;
}
);
layerId = "481A290F-76EE-4968-957F-52614F4635C1";
shapes = (
{
closed = 1;
nodes = (
(238,651,o),
(240,654,o),
(240,659,cs),
(240,678,o),
(200,713,o),
(181,713,cs),
(179,713,o),
(177,713,o),
(175,712,cs),
(53,630,o),
(25,602,o),
(25,591,cs),
(25,582,o),
(32,574,o),
(42,574,cs),
(46,574,o),
(49,575,o),
(53,577,cs),
(98,604,o),
(167,625,o),
(233,649,cs)
);
},
{
closed = 1;
nodes = (
(97,105,ls),
(97,91,o),
(95,33,o),
(95,17,cs),
(95,1,o),
(128,-10,o),
(150,-10,cs),
(161,-10,o),
(169,-7,o),
(169,-1,cs),
(169,22,o),
(166,93,o),
(166,105,cs),
(166,368,ls),
(166,392,o),
(168,441,o),
(168,457,cs),
(168,473,o),
(135,484,o),
(113,484,cs),
(102,484,o),
(94,481,o),
(94,475,cs),
(94,452,o),
(97,387,o),
(97,368,cs)
);
}
);
width = 263;
}
);
note = cid00205;
unicode = 237;
}
{
glyphname = idieresis;
kernLeft = i;
kernRight = i;
layers = (
{
hints = (
{
horizontal = 1;
place = (592,109);
type = Stem;
},
{
place = (-11,101);
type = Stem;
},
{
place = (172,101);
type = Stem;
},
{
place = (97,69);
type = Stem;
}
);
layerId = "481A290F-76EE-4968-957F-52614F4635C1";
shapes = (
{
closed = 1;
nodes = (
(255,592,o),
(273,611,o),
(273,639,cs),
(273,669,o),
(244,701,o),
(218,701,cs),
(189,701,o),
(172,682,o),
(172,653,cs),
(172,626,o),
(198,592,o),
(228,592,cs)
);
},
{
closed = 1;
nodes = (
(72,592,o),
(90,611,o),
(90,639,cs),
(90,669,o),
(61,701,o),
(35,701,cs),
(6,701,o),
(-11,682,o),
(-11,653,cs),
(-11,626,o),
(15,592,o),
(45,592,cs)
);
},
{
closed = 1;
nodes = (
(97,105,ls),
(97,91,o),
(95,33,o),
(95,17,cs),
(95,1,o),
(128,-10,o),
(150,-10,cs),
(161,-10,o),
(169,-7,o),
(169,-1,cs),
(169,22,o),
(166,93,o),
(166,105,cs),
(166,368,ls),
(166,392,o),
(168,441,o),
(168,457,cs),
(168,473,o),
(135,484,o),
(113,484,cs),
(102,484,o),
(94,481,o),
(94,475,cs),
(94,452,o),
(97,387,o),
(97,368,cs)
);
}
);
width = 263;
}
);
note = cid00207;
unicode = 239;
}
{
glyphname = eth;
layers = (
{
hints = (
{
horizontal = 1;
place = (-18,64);
type = Stem;
},
{
horizontal = 1;
place = (401,59);
type = Stem;
},
{
place = (89,70);
type = Stem;
},
{
place = (479,64);
type = Stem;
}
);
layerId = "481A290F-76EE-4968-957F-52614F4635C1";
shapes = (
{
closed = 1;
nodes = (
(430,624,ls),
(449,634,o),
(476,646,o),
(502,658,cs),
(507,661,o),
(509,665,o),
(509,671,cs),
(509,689,o),
(485,719,o),
(469,719,cs),
(467,719,o),
(465,718,o),
(463,717,cs),
(389,676,l),
(341,650,l),
(294,681,o),
(239,706,o),
(186,722,cs),
(184,723,o),
(182,723,o),
(180,723,cs),
(160,723,o),
(145,695,o),
(145,675,cs),
(145,665,o),
(149,657,o),
(158,655,cs),
(192,649,o),
(234,634,o),
(272,614,c),
(228,590,ls),
(202,576,o),
(175,564,o),
(156,556,cs),
(150,554,o),
(148,549,o),
(148,543,cs),
(148,524,o),
(172,494,o),
(187,494,cs),
(189,494,o),
(190,495,o),
(192,496,cs),
(206,504,o),
(241,524,o),
(260,534,cs),
(336,574,l),
(419,508,o),
(447,443,o),
(458,409,c),
(424,437,o),
(371,460,o),
(313,460,cs),
(187,460,o),
(89,347,o),
(89,204,cs),
(89,78,o),
(175,-18,o),
(299,-18,cs),
(457,-18,o),
(543,112,o),
(543,272,cs),
(543,424,o),
(484,527,o),
(406,597,cs),
(396,606,l)
);
},
{
closed = 1;
nodes = (
(477,323,o),
(479,295,o),
(479,268,cs),
(479,127,o),
(401,46,o),
(301,46,cs),
(212,46,o),
(159,112,o),
(159,204,cs),
(159,321,o),
(236,401,o),
(311,401,cs),
(364,401,o),
(418,381,o),
(446,355,cs),
(453,348,o),
(460,344,o),
(466,344,cs),
(469,344,o),
(471,345,o),
(473,346,c)
);
}
);
width = 622;
}
);
note = cid00208;
unicode = 240;
}
{
glyphname = ograve;
kernLeft = o;
kernRight = o;
layers = (
{
hints = (
{
horizontal = 1;
place = (-18,61);
type = Stem;
},
{
horizontal = 1;
place = (426,60);
type = Stem;
},
{
place = (56,67);
type = Stem;
},
{
place = (439,67);
type = Stem;
}
);
layerId = "481A290F-76EE-4968-957F-52614F4635C1";
shapes = (
{
closed = 1;
nodes = (
(394,602,o),
(367,630,o),
(244,712,cs),
(242,713,o),
(240,713,o),
(238,713,cs),
(219,713,o),
(179,678,o),
(179,659,cs),
(179,654,o),
(181,651,o),
(186,649,cs),
(252,625,o),
(321,604,o),
(366,577,cs),
(370,575,o),
(373,574,o),
(377,574,cs),
(387,574,o),
(394,582,o),
(394,591,cs)
);
},
{
closed = 1;
nodes = (
(190,450,o),
(184,454,o),
(177,454,cs),
(147,454,o),
(56,324,o),
(56,207,cs),
(56,68,o),
(133,-18,o),
(267,-18,cs),
(422,-18,o),
(506,117,o),
(506,245,cs),
(506,396,o),
(426,486,o),
(312,486,cs),
(256,486,o),
(220,465,o),
(194,445,c)
);
},
{
closed = 1;
nodes = (
(175,43,o),
(123,98,o),
(123,208,cs),
(123,312,o),
(200,426,o),
(306,426,cs),
(397,426,o),
(439,355,o),
(439,245,cs),
(439,130,o),
(364,43,o),
(267,43,cs)
);
}
);
width = 562;
}
);
note = cid00210;
unicode = 242;
}
{
glyphname = ocircumflex;
kernLeft = o;
kernRight = o;
layers = (
{
hints = (
{
horizontal = 1;
place = (-18,61);
type = Stem;
},
{
horizontal = 1;
place = (426,60);
type = Stem;
},
{
place = (56,67);
type = Stem;
},
{
place = (439,67);
type = Stem;
}
);
layerId = "481A290F-76EE-4968-957F-52614F4635C1";
shapes = (
{
closed = 1;
nodes = (
(352,627,o),
(400,598,o),
(433,570,cs),
(437,566,o),
(442,565,o),
(446,565,cs),
(456,565,o),
(464,572,o),
(464,581,cs),
(464,598,o),
(378,682,o),
(346,713,cs),
(338,721,o),
(319,725,o),
(302,725,cs),
(286,725,o),
(271,722,o),
(264,716,cs),
(216,671,o),
(145,594,o),
(145,581,cs),
(145,572,o),
(153,565,o),
(163,565,cs),
(167,565,o),
(172,566,o),
(176,570,cs),
(209,598,o),
(258,627,o),
(305,657,c)
);
},
{
closed = 1;
nodes = (
(190,450,o),
(184,454,o),
(177,454,cs),
(147,454,o),
(56,324,o),
(56,207,cs),
(56,68,o),
(133,-18,o),
(267,-18,cs),
(422,-18,o),
(506,117,o),
(506,245,cs),
(506,396,o),
(426,486,o),
(312,486,cs),
(256,486,o),
(220,465,o),
(194,445,c)
);
},
{
closed = 1;
nodes = (
(175,43,o),
(123,98,o),
(123,208,cs),
(123,312,o),
(200,426,o),
(306,426,cs),
(397,426,o),
(439,355,o),
(439,245,cs),
(439,130,o),
(364,43,o),
(267,43,cs)
);
}
);
width = 562;
}
);
note = cid00212;
unicode = 244;
}
{
glyphname = thorn;
layers = (
{
hints = (
{
horizontal = 1;
place = (-17,58);
type = Stem;
},
{
horizontal = 1;
place = (426,60);
type = Stem;
},
{
place = (92,66);
type = Stem;
},
{
place = (450,68);
type = Stem;
}
);
layerId = "481A290F-76EE-4968-957F-52614F4635C1";
shapes = (
{
closed = 1;
nodes = (
(92,-55,ls),
(92,-90,o),
(90,-128,o),
(90,-144,cs),
(90,-161,o),
(122,-172,o),
(143,-172,cs),
(155,-172,o),
(163,-169,o),
(163,-162,cs),
(163,-139,o),
(158,-97,o),
(158,-56,cs),
(158,38,l),
(179,10,o),
(232,-17,o),
(279,-17,cs),
(414,-17,o),
(518,109,o),
(518,278,cs),
(518,414,o),
(447,486,o),
(347,486,cs),
(274,486,o),
(211,459,o),
(158,369,c),
(158,605,ls),
(158,630,o),
(162,671,o),
(162,682,cs),
(162,699,o),
(130,710,o),
(108,710,cs),
(97,710,o),
(89,707,o),
(89,700,cs),
(90,677,o),
(92,637,o),
(92,596,cs)
);
},
{
closed = 1;
nodes = (
(157,144,o),
(158,220,o),
(165,253,cs),
(187,355,o),
(262,426,o),
(347,426,cs),
(398,426,o),
(450,380,o),
(450,276,cs),
(450,126,o),
(348,41,o),
(276,41,cs),
(242,41,o),
(211,50,o),
(185,87,cs),
(178,98,o),
(171,103,o),
(164,103,cs),
(162,103,o),
(159,102,o),
(157,101,c)
);
}
);
width = 572;
}
);
note = cid00221;
unicode = 254;
}
{
glyphname = Lslash;
layers = (
{
hints = (
{
horizontal = 1;
place = (1,63);
type = Stem;
},
{
place = (106,72);
type = Stem;
}
);
layerId = "481A290F-76EE-4968-957F-52614F4635C1";
shapes = (
{
closed = 1;
nodes = (
(517,-5,ls),
(525,-5,o),
(528,2,o),
(528,12,cs),
(528,32,o),
(513,65,o),
(496,65,cs),
(495,65,ls),
(477,64,o),
(443,64,o),
(412,64,cs),
(355,64,o),
(240,62,o),
(178,59,c),
(178,306,l),
(255,354,ls),
(273,365,o),
(299,378,o),
(326,394,cs),
(332,397,o),
(334,402,o),
(334,408,cs),
(334,425,o),
(312,447,o),
(294,447,cs),
(291,447,o),
(287,446,o),
(284,444,cs),
(261,428,o),
(241,415,o),
(225,405,cs),
(178,377,l),
(178,588,ls),
(178,623,o),
(180,661,o),
(180,677,cs),
(180,694,o),
(147,705,o),
(124,705,cs),
(112,705,o),
(103,702,o),
(103,695,cs),
(103,672,o),
(106,630,o),
(106,589,cs),
(106,333,l),
(82,319,ls),
(55,303,o),
(29,288,o),
(11,279,cs),
(5,275,o),
(2,270,o),
(2,264,cs),
(2,247,o),
(24,224,o),
(40,224,cs),
(43,224,o),
(46,224,o),
(49,226,cs),
(68,238,o),
(106,261,o),
(106,261,c),
(106,70,ls),
(106,54,o),
(99,46,o),
(99,37,cs),
(99,22,o),
(122,-9,o),
(139,-9,cs),
(142,-9,l),
(167,-2,o),
(259,1,o),
(372,1,cs),
(413,1,ls),
(450,1,o),
(498,-3,o),
(516,-5,cs)
);
}
);
width = 547;
}
);
note = cid00141;
unicode = 321;
}
{
glyphname = OE;
layers = (
{
hints = (
{
horizontal = 1;
place = (-1,65);
type = Stem;
},
{
horizontal = 1;
place = (345,61);
type = Stem;
},
{
horizontal = 1;
place = (652,61);
type = Stem;
},
{
place = (55,70);
type = Stem;
},
{
place = (470,71);
type = Stem;
},
{
horizontal = 1;
place = (632,62);
type = Stem;
},
{
horizontal = 1;
place = (-18,65);
type = Stem;
}
);
layerId = "481A290F-76EE-4968-957F-52614F4635C1";
shapes = (
{
closed = 1;
nodes = (
(869,67,ls),
(849,66,o),
(816,64,o),
(786,64,cs),
(541,61,l),
(541,342,l),
(700,349,ls),
(734,350,o),
(787,350,o),
(803,350,cs),
(812,350,o),
(816,358,o),
(816,368,cs),
(816,388,o),
(800,419,o),
(783,419,cs),
(782,419,ls),
(765,418,o),
(727,412,o),
(699,411,cs),
(541,403,l),
(541,624,l),
(762,640,ls),
(783,641,o),
(808,642,o),
(829,642,cs),
(844,642,o),
(857,641,o),
(865,641,cs),
(873,641,o),
(877,648,o),
(877,658,cs),
(877,679,o),
(863,710,o),
(846,710,cs),
(844,710,ls),
(827,708,o),
(792,704,o),
(761,702,cs),
(531,686,l),
(515,694,o),
(498,702,o),
(481,707,cs),
(479,708,o),
(477,708,o),
(475,708,cs),
(468,708,o),
(463,704,o),
(463,694,cs),
(463,693,o),
(464,690,o),
(464,688,cs),
(467,670,o),
(469,649,o),
(470,628,c),
(432,682,o),
(380,713,o),
(318,713,cs),
(259,713,o),
(216,688,o),
(182,647,c),
(177,652,o),
(169,657,o),
(160,657,cs),
(120,657,o),
(55,491,o),
(55,337,cs),
(55,133,o),
(134,-18,o),
(288,-18,cs),
(369,-18,o),
(428,18,o),
(470,85,c),
(469,64,o),
(463,45,o),
(463,37,cs),
(463,21,o),
(486,-10,o),
(505,-10,cs),
(525,-10,o),
(538,-3,o),
(559,-3,cs),
(787,-1,ls),
(823,-1,o),
(866,-3,o),
(890,-4,cs),
(899,-4,o),
(902,3,o),
(902,14,cs),
(902,35,o),
(887,67,o),
(870,67,cs)
);
},
{
closed = 1;
nodes = (
(470,252,l),
(458,146,o),
(399,47,o),
(283,47,cs),
(166,47,o),
(125,179,o),
(125,339,cs),
(125,552,o),
(229,652,o),
(313,652,cs),
(405,652,o),
(454,570,o),
(470,479,c)
);
}
);
width = 945;
}
);
note = cid00143;
unicode = 338;
}
{
glyphname = Utilde;
kernLeft = U;
kernRight = U;
layers = (
{
hints = (
{
horizontal = 1;
place = (-18,63);
type = Stem;
},
{
horizontal = 1;
place = (759,57);
type = Stem;
},
{
place = (107,72);
type = Stem;
},
{
place = (534,72);
type = Stem;
},
{
horizontal = 1;
place = (810,57);
type = Stem;
}
);
layerId = "481A290F-76EE-4968-957F-52614F4635C1";
shapes = (
{
closed = 1;
nodes = (
(521,849,o),
(521,851,o),
(521,853,cs),
(521,864,o),
(513,870,o),
(506,870,cs),
(500,870,o),
(494,866,o),
(490,858,cs),
(475,827,o),
(455,816,o),
(427,816,cs),
(392,816,o),
(368,867,o),
(308,867,cs),
(247,867,o),
(212,800,o),
(212,773,cs),
(212,762,o),
(220,756,o),
(227,756,cs),
(233,756,o),
(239,760,o),
(243,768,cs),
(258,799,o),
(278,810,o),
(306,810,cs),
(340,810,o),
(365,759,o),
(425,759,cs),
(476,759,o),
(510,804,o),
(520,846,cs)
);
},
{
closed = 1;
nodes = (
(534,242,ls),
(534,128,o),
(455,45,o),
(343,45,cs),
(237,45,o),
(179,89,o),
(179,210,cs),
(179,584,ls),
(179,619,o),
(181,664,o),
(181,680,cs),
(181,697,o),
(151,707,o),
(129,707,cs),
(115,707,o),
(104,703,o),
(104,695,cs),
(104,672,o),
(107,627,o),
(107,586,cs),
(107,198,ls),
(107,58,o),
(182,-18,o),
(343,-18,cs),
(501,-18,o),
(606,81,o),
(606,230,cs),
(606,594,ls),
(606,629,o),
(608,666,o),
(608,682,cs),
(608,699,o),
(578,709,o),
(556,709,cs),
(542,709,o),
(531,705,o),
(531,697,cs),
(531,681,o),
(534,622,o),
(534,595,cs)
);
}
);
width = 710;
}
);
note = cid09405;
unicode = 360;
}
{
color = 4;
glyphname = "alphaturned-latin";
layers = (
{
color = 1;
layerId = "481A290F-76EE-4968-957F-52614F4635C1";
shapes = (
{
closed = 1;
nodes = (
(103,9,ls),
(103,-7,o),
(135,-17,o),
(158,-17,cs),
(170,-17,o),
(179,-14,o),
(179,-7,cs),
(179,1,o),
(180,20,o),
(181,46,c),
(210,2,o),
(258,-18,o),
(314,-18,cs),
(431,-18,o),
(536,82,o),
(536,244,cs),
(536,370,o),
(479,486,o),
(326,486,cs),
(237,486,o),
(189,425,o),
(172,396,c),
(167,456,o),
(137,482,o),
(104,482,cs),
(58,482,o),
(21,429,o),
(21,406,cs),
(21,395,o),
(28,387,o),
(36,387,cs),
(42,387,o),
(49,391,o),
(56,401,cs),
(64,413,o),
(75,422,o),
(85,422,cs),
(101,422,o),
(115,402,o),
(115,346,cs),
(115,87,o),
(104,17,o),
(103,11,cs)
);
},
{
closed = 1;
nodes = (
(186,247,ls),
(191,362,o),
(245,422,o),
(326,422,cs),
(430,422,o),
(467,342,o),
(467,240,cs),
(467,106,o),
(379,43,o),
(313,43,cs),
(263,43,o),
(240,46,o),
(208,84,cs),
(205,87,o),
(201,88,o),
(197,88,cs),
(191,88,o),
(185,86,o),
(181,83,c)
);
}
);
width = 575;
}
);
unicode = 594;
}
{
color = 4;
glyphname = eopenreversed;
layers = (
{
color = 1;
layerId = "481A290F-76EE-4968-957F-52614F4635C1";
shapes = (
{
closed = 1;
nodes = (
(203,214,o),
(247,220,o),
(259,220,cs),
(341,220,o),
(386,181,o),
(386,129,cs),
(386,75,o),
(326,42,o),
(241,42,cs),
(176,42,o),
(135,50,o),
(88,78,cs),
(81,82,o),
(75,84,o),
(70,84,cs),
(59,84,o),
(53,77,o),
(53,67,cs),
(53,41,o),
(140,-18,o),
(241,-18,cs),
(378,-18,o),
(457,43,o),
(457,130,cs),
(457,204,o),
(394,249,o),
(341,258,c),
(392,271,o),
(437,310,o),
(437,366,cs),
(437,432,o),
(373,486,o),
(258,486,cs),
(201,486,o),
(86,451,o),
(86,413,cs),
(86,396,o),
(99,365,o),
(114,365,cs),
(123,365,o),
(132,373,o),
(139,379,cs),
(173,411,o),
(215,428,o),
(259,428,cs),
(326,428,o),
(366,407,o),
(366,365,cs),
(366,301,o),
(268,279,o),
(162,275,cs),
(154,275,o),
(151,267,o),
(151,257,cs),
(151,239,o),
(163,211,o),
(180,211,cs),
(182,211,ls)
);
}
);
width = 500;
}
);
unicode = 604;
}
{
color = 4;
glyphname = gsingle;
layers = (
{
color = 1;
layerId = "481A290F-76EE-4968-957F-52614F4635C1";
shapes = (
{
closed = 1;
nodes = (
(424,51,ls),
(424,-51,o),
(346,-114,o),
(243,-114,cs),
(175,-114,o),
(143,-93,o),
(119,-38,cs),
(116,-31,o),
(111,-28,o),
(105,-28,cs),
(87,-28,o),
(61,-56,o),
(61,-76,cs),
(61,-79,o),
(62,-82,o),
(64,-85,cs),
(100,-143,o),
(151,-175,o),
(243,-175,cs),
(376,-175,o),
(489,-96,o),
(489,50,cs),
(489,358,ls),
(489,393,o),
(492,432,o),
(493,457,cs),
(493,458,ls),
(493,474,o),
(462,485,o),
(441,485,cs),
(430,485,o),
(422,482,o),
(422,475,cs),
(422,461,o),
(425,447,o),
(425,422,c),
(400,466,o),
(353,486,o),
(298,486,cs),
(168,486,o),
(57,347,o),
(57,211,cs),
(57,78,o),
(125,7,o),
(230,7,cs),
(301,7,o),
(374,38,o),
(424,118,c)
);
},
{
closed = 1;
nodes = (
(425,326,o),
(425,246,o),
(420,225,cs),
(396,121,o),
(302,67,o),
(230,67,cs),
(161,67,o),
(125,106,o),
(125,212,cs),
(125,316,o),
(201,427,o),
(299,427,cs),
(335,427,o),
(373,412,o),
(393,385,cs),
(396,381,o),
(401,379,o),
(406,379,cs),
(413,379,o),
(420,383,o),
(425,390,c)
);
}
);
width = 580;
}
);
unicode = 609;
}
{
glyphname = istroke;
kernLeft = i;
kernRight = i;
layers = (
{
layerId = "481A290F-76EE-4968-957F-52614F4635C1";
shapes = (
{
closed = 1;
nodes = (
(180,665,o),
(155,698,o),
(131,698,cs),
(97,698,o),
(81,676,o),
(81,650,cs),
(81,622,o),
(105,590,o),
(131,590,cs),
(162,590,o),
(180,611,o),
(180,636,cs)
);
},
{
closed = 1;
nodes = (
(97,105,ls),
(97,91,o),
(95,33,o),
(95,17,cs),
(95,1,o),
(128,-10,o),
(150,-10,cs),
(161,-10,o),
(169,-7,o),
(169,-1,cs),
(169,22,o),
(166,93,o),
(166,105,cs),
(166,368,ls),
(166,392,o),
(168,441,o),
(168,457,cs),
(168,473,o),
(135,484,o),
(113,484,cs),
(102,484,o),
(94,481,o),
(94,475,cs),
(94,452,o),
(97,387,o),
(97,368,cs)
);
},
{
closed = 1;
nodes = (
(216,302,ls),
(188,300,o),
(167,300,o),
(145,300,cs),
(118,300,ls),
(86,300,o),
(58,301,o),
(38,302,cs),
(26,302,o),
(22,291,o),
(22,278,cs),
(22,260,o),
(30,239,o),
(42,239,cs),
(43,239,ls),
(59,239,o),
(93,242,o),
(117,242,cs),
(144,242,ls),
(170,242,o),
(191,240,o),
(222,240,cs),
(233,240,o),
(237,251,o),
(237,264,cs),
(237,282,o),
(228,302,o),
(217,302,cs)
);
}
);
width = 263;
}
);
unicode = 616;
}
{
glyphname = caron;
layers = (
{
layerId = "481A290F-76EE-4968-957F-52614F4635C1";
shapes = (
{
closed = 1;
nodes = (
(398,778,o),
(327,664,o),
(224,572,c),
(195,633,o),
(107,744,o),
(95,744,cs),
(78,744,o),
(62,722,o),
(62,713,cs),
(62,709,o),
(65,703,o),
(70,696,cs),
(88,670,o),
(122,626,o),
(143,586,cs),
(170,536,o),
(185,493,o),
(210,493,cs),
(275,493,o),
(459,758,o),
(462,823,cs),
(462,828,o),
(456,829,o),
(449,827,cs),
(443,825,o),
(433,818,o),
(423,806,cs)
);
}
);
width = 600;
}
);
unicode = 711;
}
{
glyphname = macroncomb;
layers = (
{
anchors = (
{
name = _top;
pos = (-227,471);
}
);
layerId = "481A290F-76EE-4968-957F-52614F4635C1";
shapes = (
{
closed = 1;
nodes = (
(-105,602,ls),
(-92,602,o),
(-86,618,o),
(-86,633,cs),
(-86,649,o),
(-92,664,o),
(-104,664,cs),
(-332,664,ls),
(-345,664,o),
(-351,649,o),
(-351,634,cs),
(-351,618,o),
(-345,602,o),
(-333,602,cs)
);
}
);
width = 0;
}
);
unicode = 772;
}
{
glyphname = hungarumlautcomb;
layers = (
{
anchors = (
{
name = _top;
pos = (-257,471);
}
);
hints = (
{
horizontal = 1;
place = (67,-352);
type = Stem;
},
{
place = (-414,-154);
type = Stem;
}
);
layerId = "481A290F-76EE-4968-957F-52614F4635C1";
shapes = (
{
closed = 1;
nodes = (
(-220,647,o),
(-218,651,o),
(-218,655,cs),
(-218,672,o),
(-256,700,o),
(-277,700,cs),
(-281,700,o),
(-284,699,o),
(-286,697,cs),
(-295,690,o),
(-414,587,o),
(-414,568,cs),
(-414,560,o),
(-407,553,o),
(-398,553,cs),
(-394,553,o),
(-390,554,o),
(-386,557,cs),
(-341,587,o),
(-286,616,o),
(-225,645,cs)
);
},
{
closed = 1;
nodes = (
(-70,645,o),
(-68,649,o),
(-68,653,cs),
(-68,670,o),
(-107,700,o),
(-127,700,cs),
(-131,700,o),
(-134,699,o),
(-136,697,cs),
(-263,584,o),
(-264,573,o),
(-264,567,cs),
(-264,559,o),
(-257,552,o),
(-248,552,cs),
(-244,552,o),
(-240,553,o),
(-236,556,cs),
(-192,585,o),
(-134,614,o),
(-75,643,cs)
);
}
);
width = 0;
}
);
note = cid00135;
unicode = 779;
}
{
glyphname = verticallineabovecomb;
layers = (
{
anchors = (
{
name = _top;
pos = (-245,471);
}
);
layerId = "481A290F-76EE-4968-957F-52614F4635C1";
shapes = (
{
closed = 1;
nodes = (
(-279,579,ls),
(-279,566,o),
(-263,560,o),
(-248,560,cs),
(-232,560,o),
(-217,566,o),
(-217,578,cs),
(-217,766,ls),
(-217,779,o),
(-232,785,o),
(-247,785,cs),
(-263,785,o),
(-279,779,o),
(-279,767,cs)
);
}
);
width = 0;
}
);
unicode = 781;
}
{
glyphname = ogonekcomb;
layers = (
{
hints = (
{
horizontal = 1;
place = (-170,55);
type = Stem;
},
{
place = (157,68);
type = Stem;
}
);
layerId = "481A290F-76EE-4968-957F-52614F4635C1";
shapes = (
{
closed = 1;
nodes = (
(203,9,l),
(178,-14,o),
(157,-56,o),
(157,-95,cs),
(157,-152,o),
(190,-185,o),
(254,-185,cs),
(317,-185,o),
(372,-124,o),
(372,-102,cs),
(372,-95,o),
(368,-90,o),
(361,-90,cs),
(356,-90,o),
(348,-93,o),
(340,-101,cs),
(317,-121,o),
(286,-130,o),
(263,-130,cs),
(240,-130,o),
(225,-121,o),
(225,-97,cs),
(225,-72,o),
(231,-34,o),
(276,9,c)
);
}
);
width = 500;
}
);
note = cid00136;
unicode = 808;
}
{
glyphname = Sigma;
layers = (
{
hints = (
{
horizontal = 1;
place = (1,57);
type = Stem;
},
{
horizontal = 1;
place = (636,56);
type = Stem;
},
{
place = (264,479);
type = Stem;
}
);
layerId = "481A290F-76EE-4968-957F-52614F4635C1";
shapes = (
{
closed = 1;
nodes = (
(644,1,ls),
(676,1,o),
(713,-1,o),
(731,-1,cs),
(739,-1,o),
(743,6,o),
(743,16,cs),
(743,37,o),
(727,69,o),
(711,69,cs),
(710,69,ls),
(693,68,o),
(659,63,o),
(627,62,cs),
(358,55,l),
(434,134,o),
(562,259,o),
(613,306,cs),
(629,320,o),
(641,323,o),
(653,329,cs),
(666,335,o),
(672,354,o),
(672,370,cs),
(672,382,o),
(669,393,o),
(661,397,cs),
(640,407,o),
(622,417,o),
(604,432,cs),
(537,492,o),
(452,564,o),
(369,631,c),
(628,642,ls),
(638,643,o),
(647,643,o),
(657,643,cs),
(687,643,o),
(715,641,o),
(731,641,cs),
(739,641,o),
(743,648,o),
(743,658,cs),
(743,679,o),
(728,710,o),
(712,710,cs),
(710,710,ls),
(691,708,o),
(659,704,o),
(627,703,cs),
(353,693,l),
(344,693,ls),
(328,693,o),
(315,695,o),
(297,695,cs),
(277,695,o),
(264,666,o),
(264,645,cs),
(264,638,o),
(265,632,o),
(269,628,cs),
(277,620,o),
(294,613,o),
(306,604,cs),
(388,540,o),
(505,438,o),
(586,366,c),
(512,298,o),
(383,167,o),
(326,109,cs),
(306,89,o),
(291,79,o),
(275,70,cs),
(267,66,o),
(264,56,o),
(264,45,cs),
(264,20,o),
(281,-14,o),
(307,-14,cs),
(327,-14,o),
(340,-8,o),
(363,-7,cs),
(628,1,l)
);
}
);
vertOrigin = 20;
width = 1000;
}
);
note = cid01028;
unicode = 931;
}
{
glyphname = Omega;
layers = (
{
hints = (
{
horizontal = 1;
place = (-2,52);
type = Stem;
},
{
horizontal = 1;
place = (646,65);
type = Stem;
},
{
place = (177,70);
type = Stem;
},
{
place = (753,70);
type = Stem;
}
);
layerId = "481A290F-76EE-4968-957F-52614F4635C1";
shapes = (
{
closed = 1;
nodes = (
(795,-15,ls),
(810,-15,o),
(826,16,o),
(826,36,cs),
(826,45,o),
(823,51,o),
(814,51,cs),
(791,50,o),
(768,50,o),
(745,50,cs),
(675,50,l),
(753,92,o),
(823,208,o),
(823,347,cs),
(823,560,o),
(700,711,o),
(502,711,cs),
(305,711,o),
(177,549,o),
(177,339,cs),
(177,211,o),
(238,97,o),
(337,50,c),
(284,50,ls),
(263,50,o),
(216,50,o),
(186,51,cs),
(177,51,o),
(174,45,o),
(174,36,cs),
(174,16,o),
(190,-15,o),
(205,-15,cs),
(206,-15,ls),
(231,-12,o),
(265,-7,o),
(298,-5,cs),
(307,-5,o),
(342,-2,o),
(367,-2,cs),
(380,-2,o),
(398,-7,o),
(410,-7,cs),
(422,-7,o),
(436,20,o),
(436,42,cs),
(436,54,o),
(432,65,o),
(421,68,cs),
(306,98,o),
(247,204,o),
(247,337,cs),
(247,505,o),
(347,646,o),
(502,646,cs),
(661,646,o),
(753,509,o),
(753,345,cs),
(753,207,o),
(687,96,o),
(579,68,cs),
(568,65,o),
(564,54,o),
(564,42,cs),
(564,20,o),
(578,-7,o),
(590,-7,cs),
(602,-7,o),
(620,-2,o),
(633,-2,cs),
(658,-2,o),
(693,-5,o),
(702,-5,cs),
(735,-7,o),
(769,-12,o),
(794,-15,cs)
);
}
);
vertOrigin = 20;
width = 1000;
}
);
note = cid01034;
unicode = 937;
}
{
glyphname = delta;
layers = (
{
hints = (
{
horizontal = 1;
place = (-18,65);
type = Stem;
},
{
horizontal = 1;
place = (400,59);
type = Stem;
},
{
horizontal = 1;
place = (645,67);
type = Stem;
},
{
place = (275,69);
type = Stem;
},
{
place = (646,67);
type = Stem;
},
{
horizontal = 1;
place = (634,58);
type = Stem;
}
);
layerId = "481A290F-76EE-4968-957F-52614F4635C1";
shapes = (
{
closed = 1;
nodes = (
(685,712,ls),
(662,708,o),
(633,703,o),
(602,700,cs),
(443,685,ls),
(413,682,o),
(398,684,o),
(370,682,cs),
(352,681,o),
(324,656,o),
(324,625,cs),
(324,613,o),
(330,603,o),
(342,601,cs),
(411,586,o),
(544,517,o),
(600,442,c),
(578,454,o),
(557,459,o),
(533,459,cs),
(381,459,o),
(275,326,o),
(275,194,cs),
(275,69,o),
(346,-18,o),
(472,-18,cs),
(601,-18,o),
(713,93,o),
(713,261,cs),
(713,369,o),
(682,464,o),
(587,541,cs),
(533,584,o),
(464,615,o),
(426,628,c),
(606,640,ls),
(639,642,o),
(684,645,o),
(709,645,cs),
(717,645,o),
(720,651,o),
(720,660,cs),
(720,679,o),
(703,712,o),
(687,712,cs)
);
},
{
closed = 1;
nodes = (
(646,257,ls),
(643,118,o),
(559,47,o),
(474,47,cs),
(386,47,o),
(344,104,o),
(344,194,cs),
(344,290,o),
(411,400,o),
(531,400,cs),
(559,400,o),
(584,392,o),
(607,381,cs),
(610,379,o),
(614,379,o),
(617,379,cs),
(623,379,o),
(628,381,o),
(631,383,c),
(643,349,o),
(646,313,o),
(646,275,cs)
);
}
);
vertOrigin = 21;
width = 1000;
}
);
note = cid01038;
unicode = 948;
}
{
glyphname = kappa;
layers = (
{
hints = (
{
horizontal = 1;
place = (-10,55);
type = Stem;
},
{
place = (282,70);
type = Stem;
},
{
place = (452,64);
type = Stem;
},
{
place = (349,71);
type = Stem;
}
);
layerId = "481A290F-76EE-4968-957F-52614F4635C1";
shapes = (
{
closed = 1;
nodes = (
(282,25,ls),
(282,7,o),
(316,-7,o),
(337,-7,cs),
(345,-7,o),
(351,-5,o),
(352,1,cs),
(355,26,o),
(359,56,o),
(363,75,cs),
(374,131,o),
(421,192,o),
(453,221,c),
(452,211,o),
(452,202,o),
(452,192,cs),
(452,73,o),
(522,-10,o),
(630,-10,cs),
(690,-10,o),
(739,43,o),
(739,63,cs),
(739,69,o),
(736,72,o),
(730,72,cs),
(721,72,o),
(705,61,o),
(700,57,cs),
(684,45,o),
(657,45,o),
(635,45,cs),
(558,45,o),
(516,123,o),
(516,202,cs),
(516,279,o),
(545,317,o),
(608,369,cs),
(641,396,o),
(672,409,o),
(702,428,cs),
(705,430,o),
(707,433,o),
(707,436,cs),
(707,451,o),
(673,475,o),
(651,475,cs),
(646,475,o),
(642,474,o),
(639,472,cs),
(569,423,o),
(453,307,o),
(382,222,c),
(404,360,ls),
(408,385,o),
(416,430,o),
(420,449,c),
(420,452,ls),
(420,469,o),
(385,483,o),
(364,483,cs),
(356,483,o),
(350,481,o),
(349,475,cs),
(346,447,o),
(340,396,o),
(336,369,cs),
(297,115,l),
(282,27,l)
);
}
);
vertOrigin = 130;
width = 1000;
}
);
note = cid01044;
unicode = 954;
}
{
glyphname = mu;
layers = (
{
hints = (
{
horizontal = 1;
place = (-16,64);
type = Stem;
},
{
place = (334,69);
type = Stem;
},
{
place = (582,59);
type = Stem;
},
{
place = (243,70);
type = Stem;
},
{
horizontal = 1;
place = (-13,52);
type = Stem;
},
{
place = (624,70);
type = Stem;
}
);
layerId = "481A290F-76EE-4968-957F-52614F4635C1";
shapes = (
{
closed = 1;
nodes = (
(582,172,ls),
(569,91,o),
(505,48,o),
(440,48,cs),
(377,48,o),
(362,109,o),
(362,159,cs),
(362,171,o),
(363,183,o),
(364,193,cs),
(388,359,ls),
(392,388,o),
(400,428,o),
(403,446,cs),
(403,449,ls),
(403,468,o),
(371,484,o),
(351,484,cs),
(341,484,o),
(335,480,o),
(334,473,cs),
(332,447,o),
(326,400,o),
(321,367,cs),
(257,-70,ls),
(254,-94,o),
(248,-130,o),
(243,-157,cs),
(243,-159,ls),
(243,-175,o),
(278,-190,o),
(299,-190,cs),
(307,-190,o),
(312,-188,o),
(313,-183,cs),
(316,-153,o),
(321,-106,o),
(325,-78,cs),
(342,48,l),
(356,7,o),
(391,-16,o),
(438,-16,cs),
(490,-16,o),
(546,5,o),
(582,52,c),
(585,2,o),
(623,-13,o),
(666,-13,cs),
(718,-13,o),
(769,29,o),
(769,47,cs),
(769,53,o),
(764,56,o),
(756,56,cs),
(750,56,o),
(743,54,o),
(735,51,cs),
(717,43,o),
(698,39,o),
(674,39,cs),
(651,39,o),
(641,57,o),
(641,90,cs),
(641,104,o),
(643,120,o),
(646,139,cs),
(679,355,ls),
(684,388,o),
(691,422,o),
(694,441,cs),
(694,443,ls),
(694,460,o),
(659,476,o),
(638,476,cs),
(630,476,o),
(625,474,o),
(624,468,cs),
(622,446,o),
(617,394,o),
(612,363,cs)
);
}
);
vertOrigin = 140;
width = 1000;
}
);
note = cid01046;
unicode = 956;
}
{
glyphname = pi;
layers = (
{
hints = (
{
horizontal = 1;
place = (-6,61);
type = Stem;
},
{
horizontal = 1;
place = (409,60);
type = Stem;
},
{
place = (515,71);
type = Stem;
}
);
layerId = "481A290F-76EE-4968-957F-52614F4635C1";
shapes = (
{
closed = 1;
nodes = (
(520,149,ls),
(517,128,o),
(515,110,o),
(515,94,cs),
(515,27,o),
(543,-6,o),
(611,-6,cs),
(689,-6,o),
(748,59,o),
(748,82,cs),
(748,89,o),
(744,94,o),
(737,94,cs),
(731,94,o),
(722,90,o),
(710,81,cs),
(684,61,o),
(644,55,o),
(619,55,cs),
(602,55,o),
(586,66,o),
(586,107,cs),
(586,117,o),
(587,128,o),
(589,141,cs),
(630,416,l),
(657,418,ls),
(669,419,o),
(683,419,o),
(696,419,cs),
(723,419,o),
(749,418,o),
(760,418,cs),
(769,418,o),
(772,426,o),
(772,436,cs),
(772,456,o),
(758,487,o),
(742,487,cs),
(739,487,l),
(723,484,o),
(687,481,o),
(656,479,cs),
(344,461,ls),
(324,460,o),
(301,460,o),
(282,460,cs),
(241,460,ls),
(232,460,o),
(228,452,o),
(228,442,cs),
(228,422,o),
(244,391,o),
(261,391,cs),
(262,391,ls),
(276,392,o),
(311,398,o),
(345,400,cs),
(376,402,l),
(349,226,ls),
(335,132,o),
(294,84,o),
(242,44,cs),
(237,40,o),
(235,35,o),
(235,30,cs),
(235,12,o),
(258,-11,o),
(280,-11,cs),
(310,-11,o),
(398,81,o),
(418,219,cs),
(445,406,l),
(560,413,l)
);
}
);
vertOrigin = 133;
width = 1000;
}
);
note = cid01050;
unicode = 960;
}
{
glyphname = rho;
layers = (
{
hints = (
{
horizontal = 1;
place = (-18,62);
type = Stem;
},
{
horizontal = 1;
place = (421,65);
type = Stem;
},
{
place = (237,73);
type = Stem;
},
{
place = (664,69);
type = Stem;
}
);
layerId = "481A290F-76EE-4968-957F-52614F4635C1";
shapes = (
{
closed = 1;
nodes = (
(237,-161,ls),
(237,-180,o),
(270,-195,o),
(292,-195,cs),
(302,-195,o),
(309,-192,o),
(310,-184,cs),
(312,-156,o),
(319,-98,o),
(322,-79,cs),
(340,58,l),
(370,9,o),
(419,-18,o),
(502,-18,cs),
(640,-18,o),
(733,104,o),
(733,260,cs),
(733,386,o),
(658,486,o),
(539,486,cs),
(429,486,o),
(318,414,o),
(293,229,cs),
(252,-71,ls),
(249,-93,o),
(243,-131,o),
(237,-158,c)
);
},
{
closed = 1;
nodes = (
(363,218,ls),
(382,355,o),
(449,421,o),
(541,421,cs),
(610,421,o),
(664,359,o),
(664,250,cs),
(664,128,o),
(593,44,o),
(501,44,cs),
(441,44,o),
(405,53,o),
(369,91,cs),
(360,101,o),
(353,104,o),
(347,104,c)
);
}
);
vertOrigin = 170;
width = 1000;
}
);
note = cid01051;
unicode = 961;
}
{
glyphname = "U-cy";
layers = (
{
hints = (
{
horizontal = 1;
place = (-7,70);
type = Stem;
},
{
place = (251,496);
type = Stem;
}
);
layerId = "481A290F-76EE-4968-957F-52614F4635C1";
shapes = (
{
closed = 1;
nodes = (
(429,120,ls),
(409,78,o),
(391,63,o),
(372,63,cs),
(354,63,o),
(331,68,o),
(309,91,cs),
(304,96,o),
(300,99,o),
(295,99,cs),
(278,99,o),
(264,69,o),
(264,48,cs),
(264,42,o),
(265,36,o),
(269,33,cs),
(306,-1,o),
(350,-7,o),
(377,-7,cs),
(429,-7,o),
(465,26,o),
(489,79,cs),
(710,586,ls),
(722,614,o),
(735,640,o),
(745,660,cs),
(746,663,o),
(747,665,o),
(747,668,cs),
(747,689,o),
(710,712,o),
(689,712,cs),
(682,712,o),
(677,709,o),
(675,703,cs),
(666,672,o),
(653,633,o),
(642,608,cs),
(505,291,l),
(362,618,ls),
(353,638,o),
(340,675,o),
(334,693,cs),
(331,702,o),
(313,707,o),
(294,707,cs),
(273,707,o),
(251,701,o),
(251,689,cs),
(251,687,o),
(252,685,o),
(253,683,cs),
(267,656,o),
(283,623,o),
(292,602,cs),
(470,206,l)
);
}
);
vertOrigin = 15;
width = 1000;
}
);
note = cid01079;
unicode = 1059;
}
{
glyphname = "Yeru-cy";
layers = (
{
hints = (
{
horizontal = 1;
place = (-12,49);
type = Stem;
},
{
horizontal = 1;
place = (358,62);
type = Stem;
},
{
place = (206,72);
type = Stem;
},
{
place = (599,71);
type = Stem;
},
{
place = (729,72);
type = Stem;
}
);
layerId = "481A290F-76EE-4968-957F-52614F4635C1";
shapes = (
{
closed = 1;
nodes = (
(729,109,ls),
(729,95,o),
(727,37,o),
(727,21,cs),
(727,4,o),
(760,-7,o),
(783,-7,cs),
(795,-7,o),
(804,-4,o),
(804,3,cs),
(804,26,o),
(801,97,o),
(801,109,cs),
(801,593,ls),
(801,617,o),
(803,666,o),
(803,682,cs),
(803,699,o),
(770,710,o),
(747,710,cs),
(735,710,o),
(726,707,o),
(726,700,cs),
(726,677,o),
(729,612,o),
(729,593,cs)
);
},
{
closed = 1;
nodes = (
(206,38,ls),
(206,36,o),
(204,36,o),
(202,36,cs),
(197,36,o),
(189,38,o),
(182,38,cs),
(180,38,ls),
(167,37,o),
(160,30,o),
(160,23,cs),
(160,11,o),
(172,-6,o),
(298,-11,cs),
(311,-11,o),
(324,-12,o),
(335,-12,cs),
(376,-12,o),
(410,-9,o),
(465,0,cs),
(587,19,o),
(670,116,o),
(670,228,cs),
(670,354,o),
(582,420,o),
(416,420,cs),
(380,420,o),
(319,413,o),
(278,410,c),
(278,593,ls),
(278,628,o),
(280,666,o),
(280,682,cs),
(280,699,o),
(247,710,o),
(224,710,cs),
(212,710,o),
(203,707,o),
(203,700,cs),
(203,677,o),
(206,635,o),
(206,594,cs)
);
},
{
closed = 1;
nodes = (
(278,346,l),
(327,352,o),
(381,358,o),
(425,358,cs),
(532,358,o),
(599,313,o),
(599,225,cs),
(599,73,o),
(430,37,o),
(278,37,c)
);
}
);
vertOrigin = 15;
width = 1000;
}
);
note = cid01087;
unicode = 1067;
}
{
glyphname = "Ereversed-cy";
layers = (
{
hints = (
{
horizontal = 1;
place = (-17,65);
type = Stem;
},
{
horizontal = 1;
place = (325,56);
type = Stem;
},
{
horizontal = 1;
place = (650,62);
type = Stem;
},
{
place = (743,74);
type = Stem;
}
);
layerId = "481A290F-76EE-4968-957F-52614F4635C1";
shapes = (
{
closed = 1;
nodes = (
(743,329,l),
(739,118,o),
(615,48,o),
(507,48,cs),
(404,48,o),
(337,81,o),
(276,153,cs),
(272,157,o),
(268,159,o),
(264,159,cs),
(247,159,o),
(227,129,o),
(227,106,cs),
(227,98,o),
(229,92,o),
(234,87,cs),
(297,29,o),
(377,-17,o),
(508,-17,cs),
(692,-17,o),
(817,109,o),
(817,347,cs),
(817,519,o),
(721,712,o),
(518,712,cs),
(355,712,o),
(256,583,o),
(256,560,cs),
(256,540,o),
(281,512,o),
(300,512,cs),
(306,512,o),
(312,515,o),
(315,522,cs),
(332,557,o),
(402,650,o),
(518,650,cs),
(638,650,o),
(728,544,o),
(741,388,c),
(476,381,ls),
(461,381,o),
(444,380,o),
(427,380,cs),
(403,380,o),
(380,381,o),
(362,382,cs),
(361,382,ls),
(354,382,o),
(351,376,o),
(351,367,cs),
(351,347,o),
(367,315,o),
(384,315,cs),
(385,315,ls),
(412,317,o),
(446,320,o),
(477,321,cs)
);
}
);
vertOrigin = 15;
width = 1000;
}
);
note = cid01089;
unicode = 1069;
}
{
glyphname = "es-cy";
layers = (
{
hints = (
{
horizontal = 1;
place = (-18,58);
type = Stem;
},
{
horizontal = 1;
place = (427,59);
type = Stem;
},
{
place = (281,68);
type = Stem;
}
);
layerId = "481A290F-76EE-4968-957F-52614F4635C1";
shapes = (
{
closed = 1;
nodes = (
(711,151,o),
(707,155,o),
(702,155,cs),
(696,155,o),
(688,150,o),
(678,140,cs),
(631,93,o),
(560,40,o),
(475,40,cs),
(417,40,o),
(349,95,o),
(349,199,cs),
(349,324,o),
(457,427,o),
(540,427,cs),
(560,427,o),
(581,420,o),
(600,407,cs),
(615,397,o),
(622,379,o),
(632,360,cs),
(634,356,o),
(637,355,o),
(641,355,cs),
(657,355,o),
(683,380,o),
(683,401,cs),
(683,410,o),
(648,486,o),
(538,486,cs),
(414,486,o),
(281,354,o),
(281,194,cs),
(281,57,o),
(370,-18,o),
(475,-18,cs),
(637,-18,o),
(711,126,o),
(711,143,cs)
);
}
);
vertOrigin = 133;
width = 1000;
}
);
note = cid01110;
unicode = 1089;
}
{
glyphname = "ef-cy";
layers = (
{
hints = (
{
horizontal = 1;
place = (3,59);
type = Stem;
},
{
horizontal = 1;
place = (425,61);
type = Stem;
},
{
place = (121,71);
type = Stem;
},
{
place = (468,66);
type = Stem;
},
{
place = (806,72);
type = Stem;
}
);
layerId = "481A290F-76EE-4968-957F-52614F4635C1";
shapes = (
{
closed = 1;
nodes = (
(468,-58,ls),
(468,-87,o),
(466,-130,o),
(466,-145,cs),
(466,-161,o),
(497,-172,o),
(518,-172,cs),
(529,-172,o),
(537,-169,o),
(537,-162,cs),
(537,-140,o),
(534,-99,o),
(534,-59,cs),
(534,64,l),
(562,23,o),
(610,3,o),
(657,3,cs),
(788,3,o),
(878,140,o),
(878,286,cs),
(878,412,o),
(819,486,o),
(715,486,cs),
(643,486,o),
(567,439,o),
(534,372,c),
(534,593,ls),
(534,627,o),
(536,664,o),
(536,679,cs),
(536,695,o),
(505,706,o),
(484,706,cs),
(474,706,o),
(466,703,o),
(466,697,cs),
(466,675,o),
(468,633,o),
(468,594,cs),
(468,429,l),
(443,468,o),
(404,486,o),
(358,486,cs),
(234,486,o),
(121,349,o),
(121,198,cs),
(121,72,o),
(185,2,o),
(277,2,cs),
(351,2,o),
(412,41,o),
(468,133,c)
);
},
{
closed = 1;
nodes = (
(535,187,ls),
(535,222,o),
(535,249,o),
(538,260,cs),
(558,360,o),
(637,425,o),
(715,425,cs),
(773,425,o),
(806,382,o),
(806,281,cs),
(806,165,o),
(750,62,o),
(650,62,cs),
(617,62,o),
(585,78,o),
(561,113,cs),
(554,124,o),
(545,129,o),
(539,129,cs),
(537,129,o),
(536,128,o),
(535,128,c)
);
},
{
closed = 1;
nodes = (
(468,287,ls),
(468,165,o),
(364,63,o),
(277,63,cs),
(225,63,o),
(192,101,o),
(192,201,cs),
(192,312,o),
(267,427,o),
(359,427,cs),
(392,427,o),
(424,412,o),
(446,375,c),
(449,372,o),
(452,370,o),
(456,370,cs),
(460,370,o),
(465,372,o),
(468,374,c)
);
}
);
vertOrigin = 122;
width = 1000;
}
);
note = cid01113;
unicode = 1092;
}
{
glyphname = Nmod;
layers = (
{
hints = (
{
horizontal = 1;
place = (-13,721);
type = Stem;
},
{
place = (106,69);
type = Stem;
},
{
place = (566,69);
type = Stem;
}
);
layerId = "481A290F-76EE-4968-957F-52614F4635C1";
shapes = (
{
closed = 1;
nodes = (
(292,417,l),
(239,493,o),
(175,604,o),
(103,721,cs),
(95,733,o),
(92,743,o),
(83,744,c),
(80,745,o),
(79,745,o),
(75,745,cs),
(55,745,o),
(20,735,o),
(20,721,cs),
(20,711,o),
(27,696,o),
(27,683,cs),
(27,429,ls),
(27,394,o),
(25,356,o),
(25,340,cs),
(25,327,o),
(53,317,o),
(74,317,cs),
(84,317,o),
(89,319,o),
(89,322,cs),
(89,345,o),
(86,387,o),
(86,428,cs),
(86,639,l),
(128,569,o),
(204,443,o),
(261,354,cs),
(271,338,o),
(283,317,o),
(301,317,cs),
(323,317,o),
(355,340,o),
(355,357,cs),
(355,369,o),
(351,400,o),
(351,412,cs),
(351,633,ls),
(351,668,o),
(353,706,o),
(353,722,cs),
(353,735,o),
(325,745,o),
(304,745,cs),
(293,745,o),
(288,743,o),
(288,740,cs),
(288,717,o),
(292,675,o),
(292,634,cs)
);
}
);
width = 415;
}
);
unicode = 7482;
}
{
glyphname = twodotenleader;
layers = (
{
hints = (
{
horizontal = 1;
place = (326,108);
type = Stem;
},
{
place = (697,105);
type = Stem;
}
);
layerId = "481A290F-76EE-4968-957F-52614F4635C1";
shapes = (
{
closed = 1;
nodes = (
(802,400,o),
(775,434,o),
(750,434,cs),
(719,434,o),
(697,418,o),
(697,386,cs),
(697,360,o),
(722,326,o),
(750,326,cs),
(786,326,o),
(802,345,o),
(802,372,cs)
);
},
{
closed = 1;
nodes = (
(303,400,o),
(276,434,o),
(251,434,cs),
(220,434,o),
(198,418,o),
(198,386,cs),
(198,360,o),
(223,326,o),
(251,326,cs),
(287,326,o),
(303,345,o),
(303,372,cs)
);
}
);
width = 1000;
}
);
note = cid00669;
unicode = 8229;
}
{
color = 4;
glyphname = primeReversed;
layers = (
{
color = 1;
layerId = "481A290F-76EE-4968-957F-52614F4635C1";
shapes = (
{
closed = 1;
nodes = (
(101,809,o),
(91,812,o),
(80,812,cs),
(55,812,o),
(23,797,o),
(23,779,cs),
(23,777,o),
(24,774,o),
(25,772,cs),
(166,549,ls),
(169,544,o),
(174,542,o),
(180,542,cs),
(189,542,o),
(199,549,o),
(199,556,cs),
(199,557,o),
(199,559,o),
(198,560,c),
(104,800,ls)
);
}
);
width = 201;
}
);
unicode = 8245;
}
{
glyphname = exclamdouble;
layers = (
{
hints = (
{
horizontal = 1;
place = (-9,110);
type = Stem;
},
{
place = (307,62);
type = Stem;
},
{
place = (638,62);
type = Stem;
},
{
place = (288,105);
type = Stem;
},
{
place = (619,105);
type = Stem;
}
);
layerId = "481A290F-76EE-4968-957F-52614F4635C1";
shapes = (
{
closed = 1;
nodes = (
(700,208,l),
(712,594,ls),
(713,623,o),
(716,644,o),
(718,665,cs),
(718,666,ls),
(718,683,o),
(683,697,o),
(659,697,cs),
(644,697,o),
(633,692,o),
(633,680,cs),
(633,678,ls),
(634,670,o),
(638,627,o),
(638,599,cs),
(644,212,ls),
(644,199,o),
(643,183,o),
(642,173,cs),
(642,172,ls),
(642,159,o),
(667,150,o),
(684,150,cs),
(693,150,o),
(700,153,o),
(700,158,cs)
);
},
{
closed = 1;
nodes = (
(369,208,l),
(381,594,ls),
(382,623,o),
(385,644,o),
(387,665,cs),
(387,666,ls),
(387,683,o),
(352,697,o),
(328,697,cs),
(313,697,o),
(302,692,o),
(302,680,cs),
(302,678,ls),
(303,670,o),
(307,627,o),
(307,599,cs),
(313,212,ls),
(313,199,o),
(312,183,o),
(311,173,cs),
(311,172,ls),
(311,159,o),
(336,150,o),
(353,150,cs),
(362,150,o),
(369,153,o),
(369,158,cs)
);
},
{
closed = 1;
nodes = (
(724,53,o),
(697,86,o),
(672,86,cs),
(636,86,o),
(619,64,o),
(619,36,cs),
(619,7,o),
(644,-24,o),
(672,-24,cs),
(708,-24,o),
(724,-5,o),
(724,22,cs)
);
},
{
closed = 1;
nodes = (
(393,53,o),
(366,86,o),
(341,86,cs),
(305,86,o),
(288,64,o),
(288,36,cs),
(288,7,o),
(313,-24,o),
(341,-24,cs),
(377,-24,o),
(393,-5,o),
(393,22,cs)
);
}
);
width = 1000;
}
);
note = cid12111;
unicode = 8252;
}
{
glyphname = overline;
layers = (
{
hints = (
{
horizontal = 1;
place = (778,63);
type = Stem;
},
{
place = (-14,528);
type = Stem;
}
);
layerId = "481A290F-76EE-4968-957F-52614F4635C1";
shapes = (
{
closed = 1;
nodes = (
(495,763,ls),
(508,763,o),
(514,779,o),
(514,795,cs),
(514,810,o),
(508,826,o),
(495,826,cs),
(5,826,ls),
(-8,826,o),
(-14,810,o),
(-14,795,cs),
(-14,779,o),
(-8,763,o),
(5,763,cs)
);
}
);
width = 500;
}
);
note = cid00226;
unicode = 8254;
}
{
glyphname = fraction;
layers = (
{
hints = (
{
horizontal = 1;
place = (-36,793);
type = Stem;
},
{
place = (-74,475);
type = Stem;
}
);
layerId = "481A290F-76EE-4968-957F-52614F4635C1";
shapes = (
{
closed = 1;
nodes = (
(-34,59,ls),
(-43,42,o),
(-58,22,o),
(-70,7,cs),
(-73,4,o),
(-74,0,o),
(-74,-4,cs),
(-74,-24,o),
(-47,-51,o),
(-30,-51,cs),
(-26,-51,o),
(-22,-48,o),
(-19,-43,cs),
(-9,-22,o),
(3,2,o),
(14,22,cs),
(357,622,ls),
(367,639,o),
(384,665,o),
(400,688,cs),
(401,689,o),
(401,691,o),
(401,693,cs),
(401,710,o),
(375,742,o),
(356,742,cs),
(351,742,o),
(346,739,o),
(343,732,cs),
(332,707,o),
(316,676,o),
(305,657,cs)
);
}
);
width = 330;
}
);
note = cid00104;
unicode = 8260;
}
{
glyphname = doublequestion;
layers = (
{
hints = (
{
horizontal = 1;
place = (654,59);
type = Stem;
},
{
place = (203,67);
type = Stem;
},
{
place = (399,73);
type = Stem;
},
{
horizontal = 1;
place = (-9,110);
type = Stem;
},
{
place = (188,105);
type = Stem;
},
{
horizontal = 1;
place = (654,59);
type = Stem;
},
{
place = (673,67);
type = Stem;
},
{
place = (869,73);
type = Stem;
},
{
horizontal = 1;
place = (-9,110);
type = Stem;
},
{
place = (658,105);
type = Stem;
}
);
layerId = "481A290F-76EE-4968-957F-52614F4635C1";
shapes = (
{
closed = 1;
nodes = (
(280,170,o),
(279,171,o),
(279,173,c),
(273,194,o),
(270,210,o),
(270,228,cs),
(270,235,o),
(270,243,o),
(271,251,cs),
(284,362,o),
(472,386,o),
(472,559,cs),
(472,646,o),
(407,698,o),
(305,698,cs),
(189,698,o),
(105,652,o),
(42,542,cs),
(40,539,o),
(40,536,o),
(40,533,cs),
(40,513,o),
(67,491,o),
(87,491,cs),
(95,491,o),
(102,495,o),
(105,504,cs),
(139,620,o),
(258,639,o),
(306,639,cs),
(369,639,o),
(399,601,o),
(399,553,cs),
(399,414,o),
(226,391,o),
(207,260,cs),
(204,241,o),
(203,224,o),
(203,209,cs),
(203,178,o),
(203,153,o),
(251,153,cs),
(266,153,o),
(280,158,o),
(280,169,cs)
);
},
{
closed = 1;
nodes = (
(293,53,o),
(266,86,o),
(241,86,cs),
(205,86,o),
(188,64,o),
(188,36,cs),
(188,7,o),
(213,-24,o),
(241,-24,cs),
(277,-24,o),
(293,-5,o),
(293,22,cs)
);
},
{
closed = 1;
nodes = (
(750,170,o),
(749,171,o),
(749,173,c),
(743,194,o),
(740,210,o),
(740,228,cs),
(740,235,o),
(740,243,o),
(741,251,cs),
(754,362,o),
(942,386,o),
(942,559,cs),
(942,646,o),
(877,698,o),
(775,698,cs),
(659,698,o),
(575,652,o),
(512,542,cs),
(510,539,o),
(510,536,o),
(510,533,cs),
(510,513,o),
(537,491,o),
(557,491,cs),
(565,491,o),
(572,495,o),
(575,504,cs),
(609,620,o),
(728,639,o),
(776,639,cs),
(839,639,o),
(869,601,o),
(869,553,cs),
(869,414,o),
(696,391,o),
(677,260,cs),
(674,241,o),
(673,224,o),
(673,209,cs),
(673,178,o),
(673,153,o),
(721,153,cs),
(736,153,o),
(750,158,o),
(750,169,cs)
);
},
{
closed = 1;
nodes = (
(763,53,o),
(736,86,o),
(711,86,cs),
(675,86,o),
(658,64,o),
(658,36,cs),
(658,7,o),
(683,-24,o),
(711,-24,cs),
(747,-24,o),
(763,-5,o),
(763,22,cs)
);
}
);
width = 1000;
}
);
unicode = 8263;
}
{
glyphname = fivesuperior;
layers = (
{
hints = (
{
horizontal = 1;
place = (318,57);
type = Stem;
},
{
horizontal = 1;
place = (517,53);
type = Stem;
},
{
horizontal = 1;
place = (639,55);
type = Stem;
},
{
place = (258,58);
type = Stem;
}
);
layerId = "481A290F-76EE-4968-957F-52614F4635C1";
shapes = (
{
closed = 1;
nodes = (
(252,628,ls),
(267,629,o),
(285,630,o),
(294,630,cs),
(301,630,o),
(303,637,o),
(303,645,cs),
(303,663,o),
(293,688,o),
(279,688,cs),
(270,688,o),
(255,685,o),
(245,684,cs),
(155,675,l),
(143,681,o),
(127,685,o),
(117,685,cs),
(107,685,o),
(102,682,o),
(102,676,cs),
(102,668,o),
(101,655,o),
(100,645,cs),
(81,524,l),
(77,505,l),
(77,503,o),
(76,502,o),
(76,500,cs),
(76,482,o),
(103,467,o),
(118,467,cs),
(122,467,o),
(125,468,o),
(127,470,cs),
(151,500,o),
(177,502,o),
(194,502,cs),
(230,502,o),
(258,477,o),
(258,431,cs),
(258,386,o),
(231,360,o),
(174,360,cs),
(144,360,o),
(126,379,o),
(108,401,cs),
(104,406,o),
(100,408,o),
(95,408,cs),
(81,408,o),
(65,388,o),
(65,370,cs),
(65,349,o),
(121,303,o),
(180,303,cs),
(274,303,o),
(316,361,o),
(316,432,cs),
(316,509,o),
(257,555,o),
(203,555,cs),
(171,555,o),
(152,547,o),
(140,539,c),
(154,620,l)
);
}
);
width = 380;
}
);
note = cid09379;
unicode = 8309;
}
{
glyphname = sixsuperior;
layers = (
{
hints = (
{
horizontal = 1;
place = (318,59);
type = Stem;
},
{
horizontal = 1;
place = (507,58);
type = Stem;
},
{
place = (64,57);
type = Stem;
},
{
place = (260,57);
type = Stem;
}
);
layerId = "481A290F-76EE-4968-957F-52614F4635C1";
shapes = (
{
closed = 1;
nodes = (
(188,582,o),
(210,619,o),
(236,648,cs),
(241,654,o),
(244,661,o),
(244,667,cs),
(244,677,o),
(237,685,o),
(222,689,cs),
(215,690,o),
(209,692,o),
(202,692,cs),
(192,692,o),
(183,688,o),
(179,679,cs),
(177,675,o),
(174,669,o),
(171,665,cs),
(152,634,o),
(128,600,o),
(104,554,cs),
(80,506,o),
(64,465,o),
(64,420,cs),
(64,354,o),
(115,303,o),
(189,303,cs),
(272,303,o),
(317,362,o),
(317,436,cs),
(317,505,o),
(261,550,o),
(197,550,cs),
(187,550,o),
(176,548,o),
(169,546,c)
);
},
{
closed = 1;
nodes = (
(260,391,o),
(236,362,o),
(190,362,cs),
(147,362,o),
(121,386,o),
(121,422,cs),
(121,460,o),
(153,492,o),
(197,492,cs),
(233,492,o),
(260,465,o),
(260,432,cs)
);
}
);
width = 380;
}
);
note = cid09380;
unicode = 8310;
}
{
glyphname = oneinferior;
layers = (
{
hints = (
{
horizontal = 1;
place = (-7,384);
type = Stem;
},
{
place = (175,59);
type = Stem;
}
);
layerId = "481A290F-76EE-4968-957F-52614F4635C1";
shapes = (
{
closed = 1;
nodes = (
(236,-6,ls),
(234,23,o),
(234,62,o),
(234,84,cs),
(234,271,ls),
(234,294,o),
(238,315,o),
(238,328,cs),
(238,345,o),
(213,362,o),
(200,362,cs),
(188,362,o),
(172,337,o),
(165,331,cs),
(142,313,o),
(120,295,o),
(92,284,cs),
(86,281,o),
(83,277,o),
(83,273,cs),
(83,261,o),
(102,246,o),
(118,246,cs),
(120,246,o),
(122,246,o),
(124,247,c),
(142,250,o),
(156,258,o),
(175,270,c),
(175,79,ls),
(175,62,o),
(173,25,o),
(173,9,cs),
(173,8,ls),
(173,-10,o),
(197,-22,o),
(216,-22,cs),
(227,-22,o),
(236,-17,o),
(236,-7,cs)
);
}
);
width = 380;
}
);
note = cid09385;
unicode = 8321;
}
{
glyphname = fourfifths;
layers = (
{
hints = (
{
horizontal = 1;
place = (-65,58);
type = Stem;
},
{
horizontal = 1;
place = (169,57);
type = Stem;
},
{
horizontal = 1;
place = (316,56);
type = Stem;
},
{
horizontal = 1;
place = (422,59);
type = Stem;
},
{
place = (283,60);
type = Stem;
},
{
place = (861,61);
type = Stem;
},
{
horizontal = 1;
place = (430,61);
type = Stem;
}
);
layerId = "481A290F-76EE-4968-957F-52614F4635C1";
shapes = (
{
closed = 1;
nodes = (
(871,690,ls),
(898,717,o),
(929,743,o),
(953,766,cs),
(957,769,o),
(958,774,o),
(958,780,cs),
(958,799,o),
(942,828,o),
(926,828,cs),
(922,828,o),
(918,826,o),
(914,821,cs),
(889,789,o),
(857,756,o),
(832,730,cs),
(141,35,ls),
(113,7,o),
(85,-19,o),
(59,-40,cs),
(55,-43,o),
(54,-48,o),
(54,-54,cs),
(54,-73,o),
(70,-102,o),
(86,-102,cs),
(90,-102,o),
(94,-100,o),
(98,-96,cs),
(123,-66,o),
(154,-31,o),
(180,-5,cs)
);
},
{
closed = 1;
nodes = (
(831,305,ls),
(850,306,o),
(875,309,o),
(889,309,cs),
(897,309,o),
(900,316,o),
(900,326,cs),
(900,343,o),
(889,367,o),
(874,367,cs),
(872,367,ls),
(860,365,o),
(838,362,o),
(824,361,cs),
(707,354,l),
(693,360,o),
(678,364,o),
(666,364,cs),
(656,364,o),
(649,361,o),
(649,353,cs),
(649,344,o),
(649,333,o),
(647,320,cs),
(625,177,l),
(620,157,ls),
(619,154,o),
(619,152,o),
(619,149,cs),
(619,129,o),
(643,115,o),
(657,115,cs),
(659,115,o),
(661,115,o),
(662,116,c),
(670,120,o),
(676,129,o),
(679,131,cs),
(698,146,o),
(737,154,o),
(768,154,cs),
(826,154,o),
(861,127,o),
(861,71,cs),
(861,21,o),
(825,-22,o),
(748,-22,cs),
(705,-22,o),
(666,1,o),
(647,28,cs),
(644,33,o),
(640,34,o),
(636,34,cs),
(621,34,o),
(603,11,o),
(603,-8,cs),
(603,-32,o),
(670,-80,o),
(751,-80,cs),
(866,-80,o),
(922,-8,o),
(922,71,cs),
(922,162,o),
(864,211,o),
(776,211,cs),
(741,211,o),
(707,201,o),
(688,192,c),
(705,298,l)
);
},
{
closed = 1;
nodes = (
(409,415,ls),
(418,415,o),
(422,423,o),
(422,434,cs),
(422,452,o),
(411,476,o),
(395,476,cs),
(386,476,o),
(363,473,o),
(343,471,c),
(343,584,ls),
(343,598,o),
(344,628,o),
(344,637,cs),
(344,652,o),
(322,660,o),
(304,660,cs),
(292,660,o),
(282,656,o),
(282,648,cs),
(282,634,o),
(283,595,o),
(283,584,cs),
(283,470,l),
(133,463,l),
(185,535,o),
(245,626,o),
(283,683,cs),
(289,693,o),
(296,703,o),
(306,717,cs),
(308,720,o),
(309,723,o),
(309,727,cs),
(309,745,o),
(282,769,o),
(266,769,cs),
(261,769,o),
(257,767,o),
(255,762,cs),
(234,707,o),
(88,497,o),
(60,462,cs),
(55,456,o),
(53,449,o),
(53,443,cs),
(53,422,o),
(76,402,o),
(95,402,cs),
(97,402,o),
(99,403,o),
(101,403,c),
(111,406,o),
(118,407,o),
(123,407,cs),
(283,414,l),
(283,394,ls),
(283,386,o),
(282,351,o),
(282,341,cs),
(282,326,o),
(303,319,o),
(321,319,cs),
(334,319,o),
(345,323,o),
(345,331,cs),
(345,344,o),
(343,368,o),
(343,393,cs),
(343,415,l)
);
}
);
width = 1000;
}
);
note = cid09787;
unicode = 8536;
}
{
glyphname = oneeighth;
layers = (
{
hints = (
{
horizontal = 1;
place = (-11,57);
type = Stem;
},
{
horizontal = 1;
place = (323,55);
type = Stem;
},
{
place = (145,59);
type = Stem;
},
{
place = (436,58);
type = Stem;
},
{
place = (637,58);
type = Stem;
},
{
place = (452,60);
type = Stem;
}
);
layerId = "481A290F-76EE-4968-957F-52614F4635C1";
shapes = (
{
closed = 1;
nodes = (
(667,310,ls),
(653,331,o),
(620,363,o),
(567,363,cs),
(494,363,o),
(452,319,o),
(452,270,cs),
(452,240,o),
(466,212,o),
(506,188,c),
(469,162,o),
(436,128,o),
(436,79,cs),
(436,17,o),
(482,-26,o),
(558,-26,cs),
(645,-26,o),
(695,17,o),
(695,86,cs),
(695,137,o),
(662,172,o),
(605,197,c),
(645,227,o),
(694,278,o),
(694,296,cs),
(694,303,o),
(689,307,o),
(681,307,cs),
(678,307,o),
(674,307,o),
(670,305,c)
);
},
{
closed = 1;
nodes = (
(147,61,ls),
(137,45,o),
(123,25,o),
(111,10,cs),
(108,6,o),
(107,2,o),
(107,-3,cs),
(107,-24,o),
(131,-50,o),
(147,-50,cs),
(153,-50,o),
(157,-47,o),
(160,-41,cs),
(170,-20,o),
(182,5,o),
(193,24,cs),
(536,594,ls),
(546,610,o),
(563,637,o),
(579,660,cs),
(580,662,o),
(581,664,o),
(581,667,cs),
(581,684,o),
(556,716,o),
(538,716,cs),
(532,716,o),
(527,712,o),
(523,703,cs),
(512,679,o),
(497,647,o),
(486,629,cs)
);
},
{
closed = 1;
nodes = (
(206,326,ls),
(204,355,o),
(204,394,o),
(204,416,cs),
(204,603,ls),
(204,626,o),
(208,647,o),
(208,660,cs),
(208,677,o),
(183,694,o),
(170,694,cs),
(158,694,o),
(142,669,o),
(135,663,cs),
(112,645,o),
(90,627,o),
(62,616,cs),
(56,613,o),
(53,609,o),
(53,605,cs),
(53,593,o),
(72,578,o),
(88,578,cs),
(90,578,o),
(92,578,o),
(94,579,c),
(112,582,o),
(126,590,o),
(145,602,c),
(145,411,ls),
(145,394,o),
(143,357,o),
(143,341,cs),
(143,340,ls),
(143,322,o),
(167,310,o),
(186,310,cs),
(197,310,o),
(206,315,o),
(206,325,cs)
);
},
{
closed = 1;
nodes = (
(611,138,o),
(637,123,o),
(637,89,cs),
(637,53,o),
(606,31,o),
(559,31,cs),
(511,31,o),
(494,58,o),
(494,86,cs),
(494,112,o),
(514,132,o),
(558,163,c)
);
},
{
closed = 1;
nodes = (
(528,236,o),
(512,252,o),
(512,272,cs),
(512,293,o),
(530,308,o),
(572,308,cs),
(594,308,o),
(611,298,o),
(623,281,c),
(625,279,o),
(629,277,o),
(633,277,c),
(633,277,o),
(585,241,o),
(558,224,c)
);
}
);
width = 730;
}
);
note = cid09371;
unicode = 8539;
}
{
glyphname = "Ten-roman";
layers = (
{
hints = (
{
horizontal = 1;
place = (-13,721);
type = Stem;
},
{
place = (206,585);
type = Stem;
}
);
layerId = "481A290F-76EE-4968-957F-52614F4635C1";
shapes = (
{
closed = 1;
nodes = (
(549,233,o),
(603,153,o),
(653,82,cs),
(674,52,o),
(697,15,o),
(711,-4,cs),
(716,-10,o),
(724,-13,o),
(734,-13,cs),
(758,-13,o),
(791,4,o),
(791,19,cs),
(791,22,o),
(790,25,o),
(787,28,cs),
(741,76,o),
(688,136,o),
(540,361,c),
(598,445,o),
(717,613,o),
(760,656,cs),
(763,659,o),
(764,662,o),
(764,665,cs),
(764,681,o),
(733,700,o),
(712,700,cs),
(705,700,o),
(700,698,o),
(697,694,cs),
(686,677,o),
(668,651,o),
(504,419,c),
(458,488,o),
(404,566,o),
(366,624,cs),
(348,652,o),
(332,679,o),
(321,700,cs),
(318,705,o),
(310,708,o),
(300,708,cs),
(276,708,o),
(242,694,o),
(242,677,cs),
(242,674,o),
(243,671,o),
(246,668,cs),
(278,631,o),
(312,593,o),
(458,369,c),
(397,281,o),
(339,197,o),
(289,123,cs),
(271,96,o),
(239,57,o),
(211,25,cs),
(208,21,o),
(206,18,o),
(206,15,cs),
(206,1,o),
(234,-10,o),
(258,-10,cs),
(271,-10,o),
(282,-7,o),
(287,0,cs),
(308,33,o),
(318,49,o),
(497,312,c)
);
}
);
vertOrigin = 4;
width = 1000;
}
);
note = cid07584;
unicode = 8553;
}
{
color = 4;
glyphname = "Twelve-roman";
layers = (
{
hints = (
{
horizontal = 1;
place = (-10,717);
type = Stem;
},
{
place = (627,70);
type = Stem;
},
{
place = (819,70);
type = Stem;
}
);
layerId = "481A290F-76EE-4968-957F-52614F4635C1";
shapes = (
{
closed = 1;
nodes = (
(446,70,ls),
(461,44,o),
(478,4,o),
(486,-15,cs),
(490,-22,o),
(498,-25,o),
(508,-25,cs),
(533,-25,o),
(567,-9,o),
(567,5,cs),
(567,7,o),
(566,8,o),
(565,10,c),
(545,36,o),
(518,79,o),
(503,105,cs),
(356,354,l),
(491,574,ls),
(505,596,o),
(525,632,o),
(538,648,c),
(539,650,o),
(540,652,o),
(540,654,cs),
(540,670,o),
(505,689,o),
(484,689,cs),
(477,689,o),
(471,687,o),
(469,682,cs),
(461,664,o),
(445,629,o),
(431,606,cs),
(317,420,l),
(206,608,ls),
(193,630,o),
(179,663,o),
(170,684,cs),
(168,690,o),
(160,692,o),
(150,692,cs),
(128,692,o),
(95,679,o),
(95,664,cs),
(95,661,o),
(96,659,o),
(98,656,cs),
(114,634,o),
(135,599,o),
(147,576,c),
(278,355,l),
(125,105,ls),
(110,80,o),
(85,45,o),
(59,10,cs),
(57,7,o),
(56,4,o),
(56,2,cs),
(56,-13,o),
(87,-25,o),
(111,-25,cs),
(124,-25,o),
(134,-22,o),
(137,-15,cs),
(150,12,o),
(169,49,o),
(182,70,cs),
(316,289,l)
);
},
{
closed = 1;
nodes = (
(799,132,ls),
(799,97,o),
(797,59,o),
(797,43,cs),
(797,26,o),
(829,15,o),
(851,15,cs),
(863,15,o),
(872,18,o),
(872,25,cs),
(872,48,o),
(869,90,o),
(869,131,cs),
(869,543,ls),
(869,578,o),
(871,616,o),
(871,632,cs),
(871,649,o),
(839,660,o),
(817,660,cs),
(805,660,o),
(796,657,o),
(796,650,cs),
(796,627,o),
(799,585,o),
(799,544,cs)
);
},
{
closed = 1;
nodes = (
(647,132,ls),
(647,97,o),
(645,59,o),
(645,43,cs),
(645,26,o),
(677,15,o),
(699,15,cs),
(711,15,o),
(720,18,o),
(720,25,cs),
(720,48,o),
(717,90,o),
(717,131,cs),
(717,543,ls),
(717,578,o),
(719,616,o),
(719,632,cs),
(719,649,o),
(687,660,o),
(665,660,cs),
(653,660,o),
(644,657,o),
(644,650,cs),
(644,627,o),
(647,585,o),
(647,544,cs)
);
},
{
closed = 1;
nodes = (
(872,687,o),
(762,684,o),
(725,683,cs),
(697,682,o),
(625,681,o),
(605,681,cs),
(593,681,o),
(590,670,o),
(590,657,cs),
(591,639,o),
(613,623,o),
(625,624,cs),
(652,626,o),
(709,625,o),
(736,627,cs),
(762,629,o),
(872,629,o),
(903,630,cs),
(914,630,o),
(918,641,o),
(917,654,cs),
(917,672,o),
(900,687,o),
(889,687,cs)
);
},
{
closed = 1;
nodes = (
(877,58,o),
(765,55,o),
(725,53,cs),
(697,52,o),
(623,51,o),
(603,51,cs),
(591,51,o),
(588,40,o),
(588,27,cs),
(589,9,o),
(611,-7,o),
(623,-6,cs),
(650,-4,o),
(712,-4,o),
(739,-2,cs),
(765,0,o),
(877,0,o),
(908,1,cs),
(919,1,o),
(923,12,o),
(922,25,cs),
(922,43,o),
(905,58,o),
(894,58,cs)
);
}
);
vertOrigin = 20;
width = 1000;
}
);
note = cid08226;
unicode = 8555;
}
{
glyphname = "seven-roman";
layers = (
{
hints = (
{
horizontal = 1;
place = (590,108);
type = Stem;
},
{
place = (606,69);
type = Stem;
},
{
place = (763,99);
type = Stem;
},
{
place = (779,69);
type = Stem;
}
);
layerId = "481A290F-76EE-4968-957F-52614F4635C1";
shapes = (
{
closed = 1;
nodes = (
(862,665,o),
(837,698,o),
(813,698,cs),
(779,698,o),
(763,676,o),
(763,650,cs),
(763,622,o),
(787,590,o),
(813,590,cs),
(844,590,o),
(862,611,o),
(862,636,cs)
);
},
{
closed = 1;
nodes = (
(689,665,o),
(664,698,o),
(640,698,cs),
(606,698,o),
(590,676,o),
(590,650,cs),
(590,622,o),
(614,590,o),
(640,590,cs),
(671,590,o),
(689,611,o),
(689,636,cs)
);
},
{
closed = 1;
nodes = (
(779,105,ls),
(779,91,o),
(777,33,o),
(777,17,cs),
(777,1,o),
(810,-10,o),
(832,-10,cs),
(843,-10,o),
(851,-7,o),
(851,-1,cs),
(851,22,o),
(848,93,o),
(848,105,cs),
(848,368,ls),
(848,392,o),
(850,441,o),
(850,457,cs),
(850,473,o),
(817,484,o),
(795,484,cs),
(784,484,o),
(776,481,o),
(776,475,cs),
(776,452,o),
(779,387,o),
(779,368,cs)
);
},
{
closed = 1;
nodes = (
(606,105,ls),
(606,91,o),
(604,33,o),
(604,17,cs),
(604,1,o),
(637,-10,o),
(659,-10,cs),
(670,-10,o),
(678,-7,o),
(678,-1,cs),
(678,22,o),
(675,93,o),
(675,105,cs),
(675,368,ls),
(675,392,o),
(677,441,o),
(677,457,cs),
(677,473,o),
(644,484,o),
(622,484,cs),
(611,484,o),
(603,481,o),
(603,475,cs),
(603,452,o),
(606,387,o),
(606,368,cs)
);
},
{
closed = 1;
nodes = (
(331,90,l),
(218,405,ls),
(210,426,o),
(204,452,o),
(200,467,cs),
(197,477,o),
(181,481,o),
(164,481,cs),
(144,481,o),
(122,475,o),
(122,463,cs),
(122,461,o),
(122,460,o),
(123,458,cs),
(135,433,o),
(146,411,o),
(154,389,cs),
(282,46,ls),
(293,20,o),
(293,12,o),
(304,1,cs),
(312,-8,o),
(327,-18,o),
(341,-18,cs),
(352,-18,o),
(361,-12,o),
(366,5,cs),
(372,25,o),
(380,46,o),
(388,65,cs),
(524,386,ls),
(531,403,o),
(546,433,o),
(556,451,cs),
(557,453,o),
(558,455,o),
(558,457,cs),
(558,473,o),
(526,486,o),
(504,486,cs),
(494,486,o),
(486,483,o),
(484,476,cs),
(477,451,o),
(470,427,o),
(461,405,cs)
);
}
);
vertOrigin = 4;
width = 1000;
}
);
note = cid08098;
unicode = 8566;
}
{
glyphname = northEastArrow;
layers = (
{
hints = (
{
horizontal = 1;
place = (25,657);
type = Stem;
},
{
place = (153,656);
type = Stem;
}
);
layerId = "481A290F-76EE-4968-957F-52614F4635C1";
shapes = (
{
closed = 1;
nodes = (
(699,404,ls),
(699,388,o),
(718,378,o),
(735,378,cs),
(745,378,o),
(755,382,o),
(756,393,cs),
(771,528,o),
(790,599,o),
(808,646,cs),
(809,649,o),
(809,651,o),
(809,654,cs),
(809,669,o),
(795,682,o),
(780,682,cs),
(778,682,o),
(775,682,o),
(773,681,cs),
(736,667,o),
(663,645,o),
(520,629,cs),
(509,628,o),
(505,619,o),
(505,608,cs),
(505,592,o),
(515,572,o),
(531,572,cs),
(532,572,ls),
(556,575,o),
(623,586,o),
(691,604,c),
(158,70,ls),
(154,66,o),
(153,62,o),
(153,57,cs),
(153,42,o),
(170,25,o),
(185,25,cs),
(191,25,o),
(196,27,o),
(201,32,cs),
(731,564,l),
(713,496,o),
(702,429,o),
(699,405,cs)
);
}
);
width = 1000;
}
);
note = cid12205;
unicode = 8599;
}
{
glyphname = leftDoubleArrow;
layers = (
{
hints = (
{
horizontal = 1;
place = (193,61);
type = Stem;
},
{
horizontal = 1;
place = (480,61);
type = Stem;
},
{
place = (42,905);
type = Stem;
}
);
layerId = "481A290F-76EE-4968-957F-52614F4635C1";
shapes = (
{
closed = 1;
nodes = (
(926,178,ls),
(940,178,o),
(947,194,o),
(947,209,cs),
(947,224,o),
(940,239,o),
(926,239,cs),
(228,239,l),
(114,353,l),
(228,465,l),
(926,465,ls),
(940,465,o),
(947,481,o),
(947,496,cs),
(947,511,o),
(940,526,o),
(926,526,cs),
(291,526,l),
(401,637,ls),
(406,642,o),
(408,648,o),
(408,654,cs),
(408,670,o),
(392,686,o),
(375,686,cs),
(369,686,o),
(363,684,o),
(358,679,cs),
(51,372,ls),
(45,366,o),
(42,359,o),
(42,351,cs),
(42,344,o),
(45,337,o),
(50,332,cs),
(357,26,ls),
(362,21,o),
(369,19,o),
(375,19,cs),
(392,19,o),
(409,35,o),
(409,51,cs),
(409,57,o),
(406,63,o),
(401,68,cs),
(291,178,l)
);
}
);
width = 1000;
}
);
note = cid12200;
unicode = 8656;
}
{
glyphname = existential.full;
layers = (
{
hints = (
{
horizontal = 1;
place = (32,62);
type = Stem;
},
{
horizontal = 1;
place = (337,62);
type = Stem;
},
{
horizontal = 1;
place = (643,62);
type = Stem;
},
{
place = (719,62);
type = Stem;
}
);
layerId = "481A290F-76EE-4968-957F-52614F4635C1";
shapes = (
{
closed = 1;
nodes = (
(731,17,ls),
(760,17,o),
(781,36,o),
(781,67,cs),
(781,640,ls),
(781,673,o),
(760,690,o),
(731,690,cs),
(249,690,ls),
(236,690,o),
(229,675,o),
(229,659,cs),
(229,644,o),
(236,628,o),
(249,628,cs),
(719,628,l),
(719,384,l),
(249,384,ls),
(236,384,o),
(229,369,o),
(229,353,cs),
(229,338,o),
(236,322,o),
(249,322,cs),
(719,322,l),
(719,79,l),
(249,79,ls),
(236,79,o),
(229,64,o),
(229,48,cs),
(229,33,o),
(236,17,o),
(249,17,cs)
);
}
);
width = 1000;
}
);
note = cid00755;
unicode = 8707;
}
{
glyphname = element.full;
layers = (
{
hints = (
{
horizontal = 1;
place = (75,62);
type = Stem;
},
{
horizontal = 1;
place = (337,62);
type = Stem;
},
{
horizontal = 1;
place = (595,62);
type = Stem;
},
{
place = (163,69);
type = Stem;
}
);
layerId = "481A290F-76EE-4968-957F-52614F4635C1";
shapes = (
{
closed = 1;
nodes = (
(800,60,ls),
(814,60,o),
(820,76,o),
(820,91,cs),
(820,107,o),
(814,122,o),
(800,122,cs),
(440,122,ls),
(337,122,o),
(248,195,o),
(232,322,c),
(800,322,ls),
(814,322,o),
(820,338,o),
(820,353,cs),
(820,369,o),
(814,384,o),
(800,384,cs),
(232,384,l),
(250,508,o),
(338,580,o),
(440,580,cs),
(800,580,ls),
(814,580,o),
(820,596,o),
(820,611,cs),
(820,627,o),
(814,642,o),
(800,642,cs),
(437,642,ls),
(278,642,o),
(163,517,o),
(163,353,cs),
(163,183,o),
(279,60,o),
(437,60,cs)
);
}
);
width = 1000;
}
);
note = cid00741;
unicode = 8712;
}
{
glyphname = proportional.full;
layers = (
{
hints = (
{
horizontal = 1;
place = (163,61);
type = Stem;
},
{
horizontal = 1;
place = (510,63);
type = Stem;
},
{
place = (96,64);
type = Stem;
},
{
horizontal = 1;
place = (163,49);
type = Stem;
}
);
layerId = "481A290F-76EE-4968-957F-52614F4635C1";
shapes = (
{
closed = 1;
nodes = (
(530,188,o),
(603,148,o),
(676,148,cs),
(768,148,o),
(838,211,o),
(838,239,cs),
(838,247,o),
(833,252,o),
(825,252,cs),
(820,252,o),
(814,250,o),
(808,244,cs),
(777,214,o),
(735,197,o),
(692,197,cs),
(631,197,o),
(569,233,o),
(541,322,cs),
(539,330,o),
(534,344,o),
(531,350,c),
(534,355,o),
(540,369,o),
(543,375,cs),
(576,442,o),
(635,497,o),
(719,497,cs),
(772,497,o),
(818,490,o),
(837,427,cs),
(839,421,o),
(843,419,o),
(847,419,cs),
(862,419,o),
(887,443,o),
(887,462,cs),
(887,464,o),
(887,466,o),
(886,468,cs),
(865,528,o),
(797,558,o),
(719,558,cs),
(617,558,o),
(542,488,o),
(500,416,c),
(470,499,o),
(423,558,o),
(321,558,cs),
(203,558,o),
(96,443,o),
(96,323,cs),
(96,214,o),
(168,148,o),
(280,148,cs),
(384,148,o),
(457,215,o),
(497,284,c)
);
},
{
closed = 1;
nodes = (
(467,348,l),
(464,338,o),
(414,209,o),
(280,209,cs),
(197,209,o),
(160,244,o),
(160,323,cs),
(160,406,o),
(233,495,o),
(321,495,cs),
(397,495,o),
(427,457,o),
(458,374,cs)
);
}
);
width = 1000;
}
);
note = cid00767;
unicode = 8733;
}
{
glyphname = divides;
layers = (
{
layerId = "481A290F-76EE-4968-957F-52614F4635C1";
shapes = (
{
closed = 1;
nodes = (
(466,36,ls),
(466,23,o),
(486,15,o),
(505,15,cs),
(519,15,o),
(532,20,o),
(532,31,cs),
(532,62,o),
(531,95,o),
(531,114,c),
(531,583,l),
(531,607,o),
(532,648,o),
(534,664,cs),
(534,665,ls),
(534,677,o),
(511,685,o),
(493,685,cs),
(479,685,o),
(467,681,o),
(467,669,cs),
(468,649,o),
(469,614,o),
(469,582,c),
(469,113,l),
(469,97,o),
(468,65,o),
(466,37,cs)
);
}
);
width = 1000;
}
);
unicode = 8739;
}
{
glyphname = because.full;
layers = (
{
hints = (
{
horizontal = 1;
place = (74,108);
type = Stem;
},
{
horizontal = 1;
place = (550,108);
type = Stem;
},
{
place = (719,105);
type = Stem;
}
);
layerId = "481A290F-76EE-4968-957F-52614F4635C1";
shapes = (
{
closed = 1;
nodes = (
(824,624,o),
(797,658,o),
(772,658,cs),
(741,658,o),
(719,642,o),
(719,610,cs),
(719,584,o),
(744,550,o),
(772,550,cs),
(808,550,o),
(824,569,o),
(824,596,cs)
);
},
{
closed = 1;
nodes = (
(278,624,o),
(251,658,o),
(226,658,cs),
(195,658,o),
(173,642,o),
(173,610,cs),
(173,584,o),
(198,550,o),
(226,550,cs),
(262,550,o),
(278,569,o),
(278,596,cs)
);
},
{
closed = 1;
nodes = (
(552,148,o),
(525,182,o),
(500,182,cs),
(469,182,o),
(447,166,o),
(447,134,cs),
(447,108,o),
(472,74,o),
(500,74,cs),
(536,74,o),
(552,93,o),
(552,120,cs)
);
}
);
width = 1000;
}
);
note = cid00768;
unicode = 8757;
}
{
glyphname = approxequalorimage.full;
layers = (
{
hints = (
{
horizontal = 1;
place = (18,108);
type = Stem;
},
{
horizontal = 1;
place = (204,60);
type = Stem;
},
{
horizontal = 1;
place = (404,60);
type = Stem;
},
{
horizontal = 1;
place = (553,108);
type = Stem;
},
{
place = (307,105);
type = Stem;
}
);
layerId = "481A290F-76EE-4968-957F-52614F4635C1";
shapes = (
{
closed = 1;
nodes = (
(412,627,o),
(385,661,o),
(360,661,cs),
(329,661,o),
(307,645,o),
(307,613,cs),
(307,587,o),
(332,553,o),
(360,553,cs),
(396,553,o),
(412,572,o),
(412,599,cs)
);
},
{
closed = 1;
nodes = (
(811,473,ls),
(783,471,o),
(750,470,o),
(735,470,cs),
(268,464,ls),
(236,464,o),
(201,465,o),
(181,466,cs),
(170,466,o),
(165,455,o),
(165,441,cs),
(165,423,o),
(173,401,o),
(185,401,cs),
(186,401,ls),
(202,403,o),
(242,404,o),
(267,404,cs),
(734,410,ls),
(750,410,o),
(786,409,o),
(817,409,cs),
(828,409,o),
(834,421,o),
(834,435,cs),
(834,453,o),
(825,473,o),
(812,473,cs)
);
},
{
closed = 1;
nodes = (
(811,273,ls),
(783,271,o),
(750,270,o),
(735,270,cs),
(268,264,ls),
(236,264,o),
(201,265,o),
(181,266,cs),
(170,266,o),
(165,255,o),
(165,241,cs),
(165,223,o),
(173,201,o),
(185,201,cs),
(186,201,ls),
(202,203,o),
(242,204,o),
(267,204,cs),
(734,210,ls),
(750,210,o),
(786,209,o),
(817,209,cs),
(828,209,o),
(834,221,o),
(834,235,cs),
(834,253,o),
(825,273,o),
(812,273,cs)
);
},
{
closed = 1;
nodes = (
(694,92,o),
(667,126,o),
(642,126,cs),
(611,126,o),
(589,110,o),
(589,78,cs),
(589,52,o),
(614,18,o),
(642,18,cs),
(678,18,o),
(694,37,o),
(694,64,cs)
);
}
);
width = 1000;
}
);
note = cid00762;
unicode = 8786;
}
{
glyphname = equivalence.full;
layers = (
{
hints = (
{
horizontal = 1;
place = (169,59);
type = Stem;
},
{
horizontal = 1;
place = (337,59);
type = Stem;
},
{
horizontal = 1;
place = (503,59);
type = Stem;
},
{
place = (165,669);
type = Stem;
}
);
layerId = "481A290F-76EE-4968-957F-52614F4635C1";
shapes = (
{
closed = 1;
nodes = (
(811,571,ls),
(783,569,o),
(750,568,o),
(735,568,cs),
(268,562,ls),
(236,562,o),
(201,563,o),
(181,564,cs),
(170,564,o),
(165,553,o),
(165,540,cs),
(165,522,o),
(173,500,o),
(185,500,cs),
(186,500,ls),
(202,502,o),
(242,503,o),
(267,503,cs),
(734,509,ls),
(750,509,o),
(786,508,o),
(817,508,cs),
(828,508,o),
(834,520,o),
(834,534,cs),
(834,551,o),
(825,571,o),
(812,571,cs)
);
},
{
closed = 1;
nodes = (
(811,405,ls),
(783,403,o),
(750,402,o),
(735,402,cs),
(268,396,ls),
(236,396,o),
(201,397,o),
(181,398,cs),
(170,398,o),
(165,387,o),
(165,374,cs),
(165,356,o),
(173,334,o),
(185,334,cs),
(186,334,ls),
(202,336,o),
(242,337,o),
(267,337,cs),
(734,343,ls),
(750,343,o),
(786,342,o),
(817,342,cs),
(828,342,o),
(834,354,o),
(834,368,cs),
(834,385,o),
(825,405,o),
(812,405,cs)
);
},
{
closed = 1;
nodes = (
(811,237,ls),
(783,235,o),
(750,234,o),
(735,234,cs),
(268,228,ls),
(236,228,o),
(201,229,o),
(181,230,cs),
(170,230,o),
(165,219,o),
(165,206,cs),
(165,188,o),
(173,166,o),
(185,166,cs),
(186,166,ls),
(202,168,o),
(242,169,o),
(267,169,cs),
(734,175,ls),
(750,175,o),
(786,174,o),
(817,174,cs),
(828,174,o),
(834,186,o),
(834,200,cs),
(834,217,o),
(825,237,o),
(812,237,cs)
);
}
);
width = 1000;
}
);
note = cid00761;
unicode = 8801;
}
{
glyphname = muchgreater.full;
layers = (
{
hints = (
{
horizontal = 1;
place = (13,692);
type = Stem;
},
{
place = (136,748);
type = Stem;
}
);
layerId = "481A290F-76EE-4968-957F-52614F4635C1";
shapes = (
{
closed = 1;
nodes = (
(728,288,o),
(552,162,o),
(475,106,cs),
(456,92,o),
(433,76,o),
(410,62,cs),
(406,59,o),
(404,54,o),
(404,47,cs),
(404,28,o),
(418,-2,o),
(434,-2,cs),
(437,-2,o),
(440,-1,o),
(443,2,cs),
(517,67,o),
(753,238,o),
(839,295,cs),
(856,307,o),
(875,310,o),
(881,320,cs),
(883,324,o),
(884,330,o),
(884,337,cs),
(884,354,o),
(877,377,o),
(866,384,cs),
(857,389,o),
(846,389,o),
(838,394,cs),
(765,440,o),
(598,563,o),
(508,631,cs),
(488,646,o),
(466,666,o),
(440,687,cs),
(437,689,o),
(435,690,o),
(432,690,cs),
(418,690,o),
(408,660,o),
(408,640,cs),
(408,632,o),
(409,626,o),
(413,623,cs),
(430,612,o),
(456,594,o),
(472,582,cs),
(551,524,o),
(726,403,o),
(813,345,c)
);
},
{
closed = 1;
nodes = (
(464,288,o),
(284,162,o),
(207,106,cs),
(188,92,o),
(165,76,o),
(142,62,cs),
(138,59,o),
(136,54,o),
(136,47,cs),
(136,28,o),
(150,-2,o),
(166,-2,cs),
(169,-2,o),
(172,-1,o),
(175,2,cs),
(291,103,o),
(530,265,o),
(575,295,cs),
(592,307,o),
(611,310,o),
(617,320,cs),
(619,324,o),
(620,330,o),
(620,337,cs),
(620,354,o),
(613,377,o),
(602,384,cs),
(593,389,o),
(582,389,o),
(574,394,cs),
(501,440,o),
(330,563,o),
(240,631,cs),
(220,646,o),
(198,666,o),
(172,687,cs),
(169,689,o),
(167,690,o),
(164,690,cs),
(150,690,o),
(140,660,o),
(140,640,cs),
(140,632,o),
(141,626,o),
(145,623,cs),
(162,612,o),
(188,594,o),
(204,582,cs),
(283,524,o),
(462,403,o),
(549,345,c)
);
}
);
width = 1000;
}
);
note = cid00764;
unicode = 8811;
}
{
glyphname = plus.circled.full;
layers = (
{
hints = (
{
horizontal = 1;
place = (-8,55);
type = Stem;
},
{
horizontal = 1;
place = (341,54);
type = Stem;
},
{
horizontal = 1;
place = (693,55);
type = Stem;
},
{
place = (122,55);
type = Stem;
},
{
place = (472,56);
type = Stem;
},
{
place = (823,55);
type = Stem;
}
);
layerId = "481A290F-76EE-4968-957F-52614F4635C1";
shapes = (
{
closed = 1;
nodes = (
(878,579,o),
(709,748,o),
(500,748,cs),
(291,748,o),
(122,579,o),
(122,370,cs),
(122,161,o),
(291,-8,o),
(500,-8,cs),
(709,-8,o),
(878,161,o),
(878,370,cs)
);
},
{
closed = 1;
nodes = (
(823,190,o),
(680,47,o),
(500,47,cs),
(320,47,o),
(177,190,o),
(177,370,cs),
(177,550,o),
(320,693,o),
(500,693,cs),
(680,693,o),
(823,550,o),
(823,370,cs)
);
},
{
closed = 1;
nodes = (
(770,341,ls),
(781,341,o),
(786,355,o),
(786,368,cs),
(786,382,o),
(781,395,o),
(770,395,cs),
(528,395,l),
(528,638,ls),
(528,649,o),
(514,655,o),
(500,655,cs),
(486,655,o),
(472,649,o),
(472,638,cs),
(472,395,l),
(230,395,ls),
(220,395,o),
(214,382,o),
(214,368,cs),
(214,355,o),
(220,341,o),
(230,341,cs),
(472,341,l),
(472,98,ls),
(472,87,o),
(486,82,o),
(500,82,cs),
(514,82,o),
(528,87,o),
(528,98,cs),
(528,341,l)
);
}
);
width = 1000;
}
);
note = cid12188;
unicode = 8853;
}
{
glyphname = squaredtimes.full;
layers = (
{
hints = (
{
horizontal = 1;
place = (-63,60);
type = Stem;
},
{
horizontal = 1;
place = (740,60);
type = Stem;
},
{
place = (69,60);
type = Stem;
},
{
place = (872,60);
type = Stem;
}
);
layerId = "481A290F-76EE-4968-957F-52614F4635C1";
shapes = (
{
closed = 1;
nodes = (
(932,-78,l),
(932,785,l),
(69,785,l),
(69,-78,l)
);
},
{
closed = 1;
nodes = (
(872,-18,l),
(129,-18,l),
(129,725,l),
(872,725,l)
);
},
{
closed = 1;
nodes = (
(695,118,ls),
(697,116,o),
(700,115,o),
(703,115,cs),
(718,115,o),
(738,135,o),
(738,149,cs),
(738,152,o),
(737,155,o),
(735,157,cs),
(540,353,l),
(739,551,ls),
(741,553,o),
(743,556,o),
(743,560,cs),
(743,574,o),
(723,594,o),
(708,594,cs),
(705,594,o),
(702,593,o),
(699,591,c),
(500,393,l),
(301,592,ls),
(299,594,o),
(296,595,o),
(293,595,cs),
(279,595,o),
(259,575,o),
(259,560,cs),
(259,557,o),
(260,554,o),
(262,552,cs),
(461,353,l),
(263,155,ls),
(261,153,o),
(260,150,o),
(260,147,cs),
(260,133,o),
(280,113,o),
(294,113,cs),
(297,113,o),
(300,114,o),
(302,116,cs),
(500,313,l)
);
}
);
width = 1000;
}
);
note = cid12185;
unicode = 8864;
}
{
glyphname = uptack.full;
layers = (
{
hints = (
{
horizontal = 1;
place = (47,60);
type = Stem;
},
{
place = (470,62);
type = Stem;
}
);
layerId = "481A290F-76EE-4968-957F-52614F4635C1";
shapes = (
{
closed = 1;
nodes = (
(807,116,ls),
(779,114,o),
(747,113,o),
(731,113,cs),
(532,110,l),
(532,601,ls),
(532,626,o),
(534,664,o),
(535,682,cs),
(535,683,ls),
(535,694,o),
(512,703,o),
(493,703,cs),
(479,703,o),
(468,699,o),
(468,687,cs),
(469,667,o),
(470,632,o),
(470,600,cs),
(470,110,l),
(279,107,ls),
(247,107,o),
(212,108,o),
(192,109,cs),
(180,109,o),
(176,98,o),
(176,84,cs),
(176,65,o),
(185,44,o),
(196,44,cs),
(197,44,ls),
(214,46,o),
(253,47,o),
(278,47,cs),
(730,53,ls),
(746,53,o),
(782,52,o),
(813,52,cs),
(824,52,o),
(830,64,o),
(830,78,cs),
(830,96,o),
(821,116,o),
(808,116,cs)
);
}
);
width = 1000;
}
);
note = cid00757;
unicode = 8869;
}
{
glyphname = wavyLine;
layers = (
{
hints = (
{
horizontal = 1;
place = (-120,1000);
type = Stem;
},
{
place = (378,57);
type = Stem;
},
{
place = (557,57);
type = Stem;
}
);
layerId = "481A290F-76EE-4968-957F-52614F4635C1";
shapes = (
{
closed = 1;
nodes = (
(435,-135,l),
(435,-24,o),
(614,-26,o),
(614,116,cs),
(614,259,o),
(435,254,o),
(435,365,cs),
(435,476,o),
(614,470,o),
(614,614,cs),
(614,757,o),
(435,754,o),
(435,865,c),
(378,865,l),
(378,722,o),
(557,726,o),
(557,614,cs),
(557,502,o),
(378,508,o),
(378,365,cs),
(378,222,o),
(557,228,o),
(557,116,cs),
(557,5,o),
(378,8,o),
(378,-135,c)
);
}
);
width = 1000;
}
);
note = cid12219;
unicode = 8967;
}
{
glyphname = leftcurlybracketlowerhook;
layers = (
{
hints = (
{
horizontal = 1;
place = (145,735);
type = Stem;
},
{
place = (457,64);
type = Stem;
}
);
layerId = "481A290F-76EE-4968-957F-52614F4635C1";
shapes = (
{
closed = 1;
nodes = (
(468,865,l),
(464,608,o),
(457,304,o),
(457,285,cs),
(457,159,o),
(588,130,o),
(603,130,cs),
(614,130,o),
(618,135,o),
(618,141,cs),
(618,148,o),
(613,156,o),
(606,160,cs),
(550,192,o),
(521,228,o),
(521,285,cs),
(524,473,o),
(526,687,o),
(530,865,c)
);
}
);
width = 1000;
}
);
note = cid08180;
unicode = 9129;
}
{
glyphname = one.circled;
layers = (
{
hints = (
{
horizontal = 1;
place = (-112,49);
type = Stem;
},
{
horizontal = 1;
place = (798,49);
type = Stem;
},
{
place = (20,49);
type = Stem;
},
{
place = (487,59);
type = Stem;
},
{
place = (931,49);
type = Stem;
}
);
layerId = "481A290F-76EE-4968-957F-52614F4635C1";
shapes = (
{
closed = 1;
nodes = (
(980,632,o),
(765,847,o),
(500,847,cs),
(235,847,o),
(20,632,o),
(20,367,cs),
(20,102,o),
(235,-112,o),
(500,-112,cs),
(765,-112,o),
(980,102,o),
(980,367,cs)
);
},
{
closed = 1;
nodes = (
(931,129,o),
(738,-63,o),
(500,-63,cs),
(262,-63,o),
(69,129,o),
(69,367,cs),
(69,605,o),
(262,798,o),
(500,798,cs),
(738,798,o),
(931,605,o),
(931,367,cs)
);
},
{
closed = 1;
nodes = (
(487,165,ls),
(487,148,o),
(485,107,o),
(485,94,cs),
(485,80,o),
(512,71,o),
(530,71,cs),
(540,71,o),
(548,74,o),
(548,80,cs),
(547,101,o),
(546,148,o),
(546,170,cs),
(546,566,ls),
(546,590,o),
(551,611,o),
(551,624,cs),
(551,640,o),
(524,655,o),
(511,655,cs),
(499,655,o),
(482,632,o),
(475,627,cs),
(451,608,o),
(403,579,o),
(365,565,cs),
(359,562,o),
(356,559,o),
(356,556,cs),
(356,546,o),
(377,536,o),
(393,536,cs),
(398,536,l),
(423,542,o),
(463,557,o),
(487,571,c)
);
}
);
width = 1000;
}
);
note = cid07555;
unicode = 9312;
}
{
glyphname = two.circled;
layers = (
{
hints = (
{
horizontal = 1;
place = (-112,49);
type = Stem;
},
{
horizontal = 1;
place = (87,50);
type = Stem;
},
{
horizontal = 1;
place = (607,52);
type = Stem;
},
{
horizontal = 1;
place = (798,49);
type = Stem;
},
{
place = (20,49);
type = Stem;
},
{
place = (639,60);
type = Stem;
},
{
place = (931,49);
type = Stem;
}
);
layerId = "481A290F-76EE-4968-957F-52614F4635C1";
shapes = (
{
closed = 1;
nodes = (
(980,632,o),
(765,847,o),
(500,847,cs),
(235,847,o),
(20,632,o),
(20,367,cs),
(20,102,o),
(235,-112,o),
(500,-112,cs),
(765,-112,o),
(980,102,o),
(980,367,cs)
);
},
{
closed = 1;
nodes = (
(931,129,o),
(738,-63,o),
(500,-63,cs),
(262,-63,o),
(69,129,o),
(69,367,cs),
(69,605,o),
(262,798,o),
(500,798,cs),
(738,798,o),
(931,605,o),
(931,367,cs)
);
},
{
closed = 1;
nodes = (
(319,78,l),
(380,87,o),
(387,87,o),
(494,87,cs),
(539,87,o),
(599,87,o),
(632,85,cs),
(661,84,o),
(689,80,o),
(700,80,cs),
(709,80,o),
(712,86,o),
(712,95,cs),
(712,112,o),
(698,137,o),
(685,137,cs),
(673,137,o),
(647,136,o),
(632,136,cs),
(598,136,o),
(541,137,o),
(501,137,cs),
(470,137,o),
(385,136,o),
(353,133,c),
(391,195,o),
(465,258,o),
(549,321,cs),
(643,391,o),
(699,455,o),
(699,524,cs),
(699,604,o),
(642,659,o),
(530,659,cs),
(362,659,o),
(317,554,o),
(317,542,cs),
(317,535,o),
(328,507,o),
(349,507,cs),
(361,507,o),
(373,518,o),
(377,528,cs),
(395,574,o),
(450,607,o),
(528,607,cs),
(596,607,o),
(639,573,o),
(639,524,cs),
(639,471,o),
(596,425,o),
(512,361,cs),
(422,290,o),
(334,206,o),
(302,152,cs),
(297,144,o),
(291,139,o),
(284,128,cs),
(282,125,o),
(281,121,o),
(281,116,cs),
(281,99,o),
(296,78,o),
(315,78,cs)
);
}
);
width = 1000;
}
);
note = cid07556;
unicode = 9313;
}
{
glyphname = four.circled;
layers = (
{
hints = (
{
horizontal = 1;
place = (-112,49);
type = Stem;
},
{
horizontal = 1;
place = (203,53);
type = Stem;
},
{
horizontal = 1;
place = (798,49);
type = Stem;
},
{
place = (20,49);
type = Stem;
},
{
place = (546,56);
type = Stem;
},
{
place = (931,49);
type = Stem;
},
{
horizontal = 1;
place = (214,55);
type = Stem;
}
);
layerId = "481A290F-76EE-4968-957F-52614F4635C1";
shapes = (
{
closed = 1;
nodes = (
(980,632,o),
(765,847,o),
(500,847,cs),
(235,847,o),
(20,632,o),
(20,367,cs),
(20,102,o),
(235,-112,o),
(500,-112,cs),
(765,-112,o),
(980,102,o),
(980,367,cs)
);
},
{
closed = 1;
nodes = (
(931,129,o),
(738,-63,o),
(500,-63,cs),
(262,-63,o),
(69,129,o),
(69,367,cs),
(69,605,o),
(262,798,o),
(500,798,cs),
(738,798,o),
(931,605,o),
(931,367,cs)
);
},
{
closed = 1;
nodes = (
(629,216,ls),
(661,216,o),
(693,214,o),
(705,214,cs),
(711,214,o),
(714,219,o),
(714,227,cs),
(714,243,o),
(702,269,o),
(688,269,cs),
(677,269,o),
(650,265,o),
(628,265,cs),
(602,264,l),
(602,424,ls),
(602,444,o),
(603,483,o),
(603,496,cs),
(603,510,o),
(577,519,o),
(559,519,cs),
(550,519,o),
(543,517,o),
(543,511,cs),
(543,492,o),
(546,440,o),
(546,424,cs),
(546,261,l),
(318,252,l),
(447,429,o),
(506,517,o),
(568,610,c),
(570,612,o),
(570,615,o),
(570,618,cs),
(570,636,o),
(544,662,o),
(529,662,cs),
(526,662,o),
(523,660,o),
(521,656,cs),
(508,619,o),
(479,550,o),
(284,290,cs),
(256,252,ls),
(252,246,o),
(250,241,o),
(250,235,cs),
(250,215,o),
(270,197,o),
(287,197,cs),
(289,197,o),
(291,198,o),
(293,198,c),
(304,201,o),
(317,203,o),
(323,203,cs),
(546,212,l),
(546,171,ls),
(546,159,o),
(544,112,o),
(544,99,cs),
(544,85,o),
(570,76,o),
(588,76,cs),
(597,76,o),
(605,79,o),
(605,85,cs),
(605,103,o),
(602,136,o),
(602,169,cs),
(602,215,l)
);
}
);
width = 1000;
}
);
note = cid07558;
unicode = 9315;
}
{
glyphname = one_two.circled;
layers = (
{
hints = (
{
horizontal = 1;
place = (-112,49);
type = Stem;
},
{
horizontal = 1;
place = (95,49);
type = Stem;
},
{
horizontal = 1;
place = (604,51);
type = Stem;
},
{
horizontal = 1;
place = (798,49);
type = Stem;
},
{
place = (20,49);
type = Stem;
},
{
place = (278,50);
type = Stem;
},
{
place = (718,53);
type = Stem;
},
{
place = (931,49);
type = Stem;
}
);
layerId = "481A290F-76EE-4968-957F-52614F4635C1";
shapes = (
{
closed = 1;
nodes = (
(980,632,o),
(765,847,o),
(500,847,cs),
(235,847,o),
(20,632,o),
(20,367,cs),
(20,102,o),
(235,-112,o),
(500,-112,cs),
(765,-112,o),
(980,102,o),
(980,367,cs)
);
},
{
closed = 1;
nodes = (
(931,129,o),
(738,-63,o),
(500,-63,cs),
(262,-63,o),
(69,129,o),
(69,367,cs),
(69,605,o),
(262,798,o),
(500,798,cs),
(738,798,o),
(931,605,o),
(931,367,cs)
);
},
{
closed = 1;
nodes = (
(469,86,ls),
(532,95,o),
(546,95,o),
(601,95,cs),
(640,95,o),
(682,95,o),
(711,93,cs),
(737,91,o),
(762,88,o),
(771,88,cs),
(779,88,o),
(782,94,o),
(782,102,cs),
(782,119,o),
(769,144,o),
(758,144,cs),
(748,144,o),
(724,143,o),
(711,143,cs),
(681,143,o),
(643,144,o),
(606,144,cs),
(579,144,o),
(529,143,o),
(499,140,c),
(534,200,o),
(583,259,o),
(655,325,cs),
(727,390,o),
(771,455,o),
(771,523,cs),
(771,600,o),
(718,655,o),
(632,655,cs),
(556,655,o),
(500,614,o),
(469,556,c),
(468,551,o),
(466,546,o),
(466,541,cs),
(466,523,o),
(483,506,o),
(494,506,cs),
(505,506,o),
(515,516,o),
(519,526,cs),
(535,572,o),
(573,604,o),
(631,604,cs),
(690,604,o),
(718,571,o),
(718,523,cs),
(718,471,o),
(686,419,o),
(623,362,cs),
(545,291,o),
(484,211,o),
(455,158,cs),
(451,150,o),
(446,145,o),
(439,135,c),
(438,132,o),
(437,128,o),
(437,123,cs),
(437,106,o),
(450,86,o),
(466,86,cs)
);
},
{
closed = 1;
nodes = (
(278,171,ls),
(278,154,o),
(277,113,o),
(277,100,cs),
(277,87,o),
(300,78,o),
(315,78,cs),
(324,78,o),
(330,81,o),
(330,87,cs),
(329,108,o),
(328,154,o),
(328,175,cs),
(328,564,ls),
(328,587,o),
(333,607,o),
(333,620,cs),
(333,636,o),
(311,651,o),
(300,651,cs),
(288,651,o),
(274,627,o),
(268,623,c),
(247,605,o),
(215,584,o),
(181,569,cs),
(175,567,o),
(173,563,o),
(173,560,cs),
(173,551,o),
(190,540,o),
(204,540,cs),
(206,540,o),
(208,541,o),
(210,541,c),
(232,547,o),
(257,555,o),
(278,568,c)
);
}
);
width = 1000;
}
);
note = cid07566;
unicode = 9323;
}
{
glyphname = one_three.circled;
layers = (
{
hints = (
{
horizontal = 1;
place = (-112,49);
type = Stem;
},
{
horizontal = 1;
place = (75,50);
type = Stem;
},
{
horizontal = 1;
place = (369,32);
type = Stem;
},
{
horizontal = 1;
place = (606,50);
type = Stem;
},
{
horizontal = 1;
place = (798,49);
type = Stem;
},
{
place = (20,49);
type = Stem;
},
{
place = (281,50);
type = Stem;
},
{
place = (724,52);
type = Stem;
},
{
place = (931,49);
type = Stem;
},
{
place = (702,51);
type = Stem;
}
);
layerId = "481A290F-76EE-4968-957F-52614F4635C1";
shapes = (
{
closed = 1;
nodes = (
(980,632,o),
(765,847,o),
(500,847,cs),
(235,847,o),
(20,632,o),
(20,367,cs),
(20,102,o),
(235,-112,o),
(500,-112,cs),
(765,-112,o),
(980,102,o),
(980,367,cs)
);
},
{
closed = 1;
nodes = (
(931,129,o),
(738,-63,o),
(500,-63,cs),
(262,-63,o),
(69,129,o),
(69,367,cs),
(69,605,o),
(262,798,o),
(500,798,cs),
(738,798,o),
(931,605,o),
(931,367,cs)
);
},
{
closed = 1;
nodes = (
(478,97,o),
(523,75,o),
(585,75,cs),
(717,75,o),
(776,162,o),
(776,263,cs),
(776,346,o),
(724,400,o),
(658,401,c),
(717,421,o),
(753,468,o),
(753,533,cs),
(753,610,o),
(698,656,o),
(617,656,cs),
(554,656,o),
(506,630,o),
(467,585,c),
(462,581,o),
(459,575,o),
(459,567,cs),
(459,559,o),
(463,550,o),
(471,539,c),
(476,534,o),
(479,532,o),
(483,532,cs),
(490,532,o),
(495,539,o),
(498,542,cs),
(536,586,o),
(574,606,o),
(619,606,cs),
(674,606,o),
(702,580,o),
(702,527,cs),
(702,463,o),
(626,423,o),
(542,411,cs),
(536,410,o),
(533,404,o),
(533,397,cs),
(533,383,o),
(544,362,o),
(557,362,cs),
(559,362,o),
(560,363,o),
(561,363,cs),
(569,365,o),
(586,367,o),
(600,368,cs),
(606,369,o),
(611,369,o),
(617,369,cs),
(680,369,o),
(724,326,o),
(724,262,cs),
(724,190,o),
(684,125,o),
(585,125,cs),
(530,125,o),
(495,151,o),
(464,194,c),
(461,197,o),
(459,198,o),
(456,198,cs),
(446,198,o),
(433,175,o),
(433,156,cs),
(433,149,o),
(435,143,o),
(439,140,c)
);
},
{
closed = 1;
nodes = (
(281,171,ls),
(281,154,o),
(280,113,o),
(280,100,cs),
(280,87,o),
(303,78,o),
(318,78,cs),
(327,78,o),
(333,81,o),
(333,87,cs),
(332,108,o),
(331,154,o),
(331,175,cs),
(331,564,ls),
(331,586,o),
(336,607,o),
(336,620,cs),
(336,635,o),
(315,651,o),
(303,651,cs),
(292,651,o),
(277,627,o),
(271,623,c),
(250,605,o),
(218,584,o),
(185,569,c),
(178,567,o),
(177,563,o),
(177,560,cs),
(177,551,o),
(193,540,o),
(208,540,cs),
(209,540,o),
(211,541,o),
(213,541,c),
(235,547,o),
(261,555,o),
(281,568,c)
);
}
);
width = 1000;
}
);
note = cid07567;
unicode = 9324;
}
{
glyphname = one_nine.circled;
layers = (
{
hints = (
{
horizontal = 1;
place = (-112,49);
type = Stem;
},
{
horizontal = 1;
place = (297,51);
type = Stem;
},
{
horizontal = 1;
place = (606,50);
type = Stem;
},
{
horizontal = 1;
place = (798,49);
type = Stem;
},
{
place = (20,49);
type = Stem;
},
{
place = (278,50);
type = Stem;
},
{
place = (427,50);
type = Stem;
},
{
place = (636,55);
type = Stem;
},
{
place = (725,54);
type = Stem;
},
{
place = (931,49);
type = Stem;
}
);
layerId = "481A290F-76EE-4968-957F-52614F4635C1";
shapes = (
{
closed = 1;
nodes = (
(980,632,o),
(765,847,o),
(500,847,cs),
(235,847,o),
(20,632,o),
(20,367,cs),
(20,102,o),
(235,-112,o),
(500,-112,cs),
(765,-112,o),
(980,102,o),
(980,367,cs)
);
},
{
closed = 1;
nodes = (
(931,129,o),
(738,-63,o),
(500,-63,cs),
(262,-63,o),
(69,129,o),
(69,367,cs),
(69,605,o),
(262,798,o),
(500,798,cs),
(738,798,o),
(931,605,o),
(931,367,cs)
);
},
{
closed = 1;
nodes = (
(664,80,ls),
(680,82,o),
(690,88,o),
(691,98,cs),
(693,126,o),
(721,346,o),
(772,573,c),
(773,582,o),
(776,590,o),
(779,601,c),
(779,603,ls),
(779,617,o),
(754,632,o),
(741,633,cs),
(740,633,ls),
(726,633,o),
(729,613,o),
(725,589,c),
(712,614,o),
(676,656,o),
(610,656,cs),
(510,656,o),
(427,548,o),
(427,441,cs),
(427,350,o),
(481,297,o),
(549,297,cs),
(599,297,o),
(652,328,o),
(686,374,c),
(674,304,o),
(660,234,o),
(650,175,cs),
(648,160,o),
(643,137,o),
(639,113,cs),
(638,108,o),
(636,102,o),
(636,98,cs),
(636,88,o),
(641,80,o),
(657,80,cs)
);
},
{
closed = 1;
nodes = (
(278,171,ls),
(278,154,o),
(277,113,o),
(277,100,cs),
(277,87,o),
(300,78,o),
(315,78,cs),
(324,78,o),
(330,81,o),
(330,87,cs),
(329,108,o),
(328,154,o),
(328,175,cs),
(328,564,ls),
(328,587,o),
(333,607,o),
(333,620,cs),
(333,636,o),
(311,651,o),
(300,651,cs),
(289,651,o),
(274,627,o),
(268,623,c),
(247,605,o),
(215,584,o),
(181,569,cs),
(175,567,o),
(174,563,o),
(174,560,cs),
(174,551,o),
(190,540,o),
(204,540,cs),
(206,540,o),
(208,541,o),
(210,541,c),
(232,547,o),
(258,555,o),
(278,568,c)
);
},
{
closed = 1;
nodes = (
(714,535,o),
(713,523,o),
(710,512,cs),
(696,460,o),
(643,348,o),
(548,348,cs),
(501,348,o),
(477,386,o),
(477,443,cs),
(477,516,o),
(535,606,o),
(613,606,cs),
(663,606,o),
(687,573,o),
(696,550,cs),
(699,543,o),
(703,540,o),
(707,540,cs),
(710,540,o),
(713,542,o),
(717,545,c)
);
}
);
width = 1000;
}
);
note = cid07573;
unicode = 9330;
}
{
color = 4;
glyphname = seven.paren;
layers = (
{
hints = (
{
horizontal = 1;
place = (575,54);
type = Stem;
},
{
place = (9,67);
type = Stem;
},
{
place = (923,67);
type = Stem;
}
);
layerId = "481A290F-76EE-4968-957F-52614F4635C1";
shapes = (
{
closed = 1;
nodes = (
(819,-81,o),
(990,103,o),
(990,367,cs),
(990,632,o),
(819,815,o),
(792,815,cs),
(783,815,o),
(778,809,o),
(778,800,cs),
(778,796,o),
(779,791,o),
(783,787,cs),
(881,670,o),
(923,509,o),
(923,367,cs),
(923,225,o),
(881,64,o),
(783,-53,cs),
(779,-57,o),
(778,-62,o),
(778,-66,cs),
(778,-75,o),
(783,-81,o),
(792,-81,cs)
);
},
{
closed = 1;
nodes = (
(216,-81,o),
(221,-75,o),
(221,-66,cs),
(221,-62,o),
(220,-57,o),
(216,-53,cs),
(118,64,o),
(76,225,o),
(76,367,cs),
(76,509,o),
(118,670,o),
(216,787,cs),
(220,791,o),
(221,796,o),
(221,800,cs),
(221,809,o),
(216,815,o),
(207,815,cs),
(181,815,o),
(9,632,o),
(9,367,cs),
(9,103,o),
(181,-81,o),
(207,-81,cs)
);
},
{
closed = 1;
nodes = (
(697,618,ls),
(697,633,o),
(675,654,o),
(661,654,cs),
(658,654,ls),
(648,654,o),
(637,650,o),
(625,649,cs),
(342,630,ls),
(337,630,o),
(332,629,o),
(328,629,cs),
(316,629,o),
(307,631,o),
(299,631,cs),
(296,631,o),
(294,628,o),
(294,624,cs),
(294,611,o),
(310,575,o),
(334,575,cs),
(342,575,o),
(351,578,o),
(359,579,cs),
(626,600,l),
(603,557,o),
(432,238,o),
(395,115,cs),
(393,110,o),
(391,104,o),
(391,98,cs),
(391,89,o),
(396,80,o),
(417,78,cs),
(422,77,o),
(426,77,o),
(430,77,cs),
(443,77,o),
(451,81,o),
(453,90,cs),
(487,216,o),
(536,318,o),
(676,577,cs),
(681,586,o),
(693,602,o),
(697,615,c)
);
},
{
closed = 1;
nodes = (
(293,555,ls),
(293,527,o),
(292,498,o),
(292,485,cs),
(292,472,o),
(315,463,o),
(332,463,cs),
(341,463,o),
(348,466,o),
(348,471,cs),
(348,489,o),
(345,522,o),
(345,554,cs),
(345,595,l),
(338,628,l),
(337,629,o),
(313,638,o),
(300,638,cs),
(292,638,o),
(290,634,o),
(290,627,cs),
(290,623,o),
(291,618,o),
(292,608,cs),
(293,596,o),
(293,596,o),
(293,580,cs)
);
}
);
width = 1000;
}
);
note = cid08077;
unicode = 9338;
}
{
glyphname = one_one.paren;
layers = (
{
hints = (
{
horizontal = 1;
place = (-81,896);
type = Stem;
},
{
place = (9,67);
type = Stem;
},
{
place = (323,59);
type = Stem;
},
{
place = (639,59);
type = Stem;
},
{
place = (923,67);
type = Stem;
}
);
layerId = "481A290F-76EE-4968-957F-52614F4635C1";
shapes = (
{
closed = 1;
nodes = (
(819,-81,o),
(990,103,o),
(990,367,cs),
(990,632,o),
(819,815,o),
(792,815,cs),
(783,815,o),
(778,809,o),
(778,800,cs),
(778,796,o),
(779,791,o),
(783,787,cs),
(881,670,o),
(923,509,o),
(923,367,cs),
(923,225,o),
(881,64,o),
(783,-53,cs),
(779,-57,o),
(778,-62,o),
(778,-66,cs),
(778,-75,o),
(783,-81,o),
(792,-81,cs)
);
},
{
closed = 1;
nodes = (
(216,-81,o),
(221,-75,o),
(221,-66,cs),
(221,-62,o),
(220,-57,o),
(216,-53,cs),
(118,64,o),
(76,225,o),
(76,367,cs),
(76,509,o),
(118,670,o),
(216,787,cs),
(220,791,o),
(221,796,o),
(221,800,cs),
(221,809,o),
(216,815,o),
(207,815,cs),
(181,815,o),
(9,632,o),
(9,367,cs),
(9,103,o),
(181,-81,o),
(207,-81,cs)
);
},
{
closed = 1;
nodes = (
(639,167,ls),
(639,150,o),
(638,108,o),
(638,95,cs),
(638,81,o),
(665,72,o),
(683,72,cs),
(693,72,o),
(700,75,o),
(700,81,cs),
(699,103,o),
(698,150,o),
(698,171,cs),
(698,568,ls),
(698,591,o),
(703,612,o),
(703,625,cs),
(703,641,o),
(677,657,o),
(664,657,cs),
(651,657,o),
(634,633,o),
(628,628,cs),
(604,610,o),
(568,588,o),
(530,573,cs),
(523,571,o),
(521,567,o),
(521,564,cs),
(521,555,o),
(540,544,o),
(556,544,cs),
(558,544,o),
(560,545,o),
(562,545,c),
(587,551,o),
(616,559,o),
(639,572,c)
);
},
{
closed = 1;
nodes = (
(323,167,ls),
(323,150,o),
(322,108,o),
(322,95,cs),
(322,81,o),
(349,72,o),
(367,72,cs),
(377,72,o),
(384,75,o),
(384,81,cs),
(383,103,o),
(382,150,o),
(382,171,cs),
(382,568,ls),
(382,591,o),
(387,612,o),
(387,625,cs),
(387,641,o),
(361,657,o),
(348,657,cs),
(335,657,o),
(318,633,o),
(312,628,cs),
(288,610,o),
(252,588,o),
(214,573,cs),
(207,571,o),
(205,567,o),
(205,564,cs),
(205,555,o),
(224,544,o),
(240,544,cs),
(242,544,o),
(244,545,o),
(246,545,c),
(271,551,o),
(300,559,o),
(323,572,c)
);
}
);
width = 1000;
}
);
note = cid08081;
unicode = 9342;
}
{
glyphname = one_four.paren;
layers = (
{
hints = (
{
horizontal = 1;
place = (199,54);
type = Stem;
},
{
place = (9,67);
type = Stem;
},
{
place = (276,59);
type = Stem;
},
{
place = (650,56);
type = Stem;
},
{
place = (923,67);
type = Stem;
},
{
horizontal = 1;
place = (211,55);
type = Stem;
}
);
layerId = "481A290F-76EE-4968-957F-52614F4635C1";
shapes = (
{
closed = 1;
nodes = (
(819,-81,o),
(990,103,o),
(990,367,cs),
(990,632,o),
(819,815,o),
(792,815,cs),
(783,815,o),
(778,809,o),
(778,800,cs),
(778,796,o),
(779,791,o),
(783,787,cs),
(881,670,o),
(923,509,o),
(923,367,cs),
(923,225,o),
(881,64,o),
(783,-53,cs),
(779,-57,o),
(778,-62,o),
(778,-66,cs),
(778,-75,o),
(783,-81,o),
(792,-81,cs)
);
},
{
closed = 1;
nodes = (
(216,-81,o),
(221,-75,o),
(221,-66,cs),
(221,-62,o),
(220,-57,o),
(216,-53,cs),
(118,64,o),
(76,225,o),
(76,367,cs),
(76,509,o),
(118,670,o),
(216,787,cs),
(220,791,o),
(221,796,o),
(221,800,cs),
(221,809,o),
(216,815,o),
(207,815,cs),
(181,815,o),
(9,632,o),
(9,367,cs),
(9,103,o),
(181,-81,o),
(207,-81,cs)
);
},
{
closed = 1;
nodes = (
(721,212,ls),
(753,212,o),
(785,211,o),
(797,211,cs),
(803,211,o),
(806,216,o),
(806,224,cs),
(806,240,o),
(794,266,o),
(780,266,cs),
(769,266,o),
(743,262,o),
(721,261,cs),
(706,260,l),
(706,421,ls),
(706,440,o),
(708,480,o),
(708,493,cs),
(708,507,o),
(683,516,o),
(665,516,cs),
(655,516,o),
(648,513,o),
(648,507,cs),
(648,489,o),
(650,436,o),
(650,421,cs),
(650,258,l),
(453,249,l),
(521,348,o),
(601,477,o),
(653,562,cs),
(662,577,o),
(670,588,o),
(682,607,c),
(684,609,o),
(684,612,o),
(684,615,cs),
(684,632,o),
(658,658,o),
(643,658,cs),
(640,658,o),
(637,656,o),
(635,652,cs),
(613,598,o),
(594,557,o),
(419,286,cs),
(412,275,o),
(401,263,o),
(391,249,cs),
(387,243,o),
(386,238,o),
(386,232,cs),
(386,212,o),
(406,194,o),
(422,194,cs),
(424,194,o),
(426,195,o),
(428,195,c),
(440,198,o),
(452,199,o),
(458,199,cs),
(650,208,l),
(650,167,ls),
(650,156,o),
(649,109,o),
(649,96,cs),
(649,82,o),
(675,73,o),
(693,73,cs),
(702,73,o),
(709,75,o),
(709,81,cs),
(709,100,o),
(707,132,o),
(706,165,cs),
(706,211,l)
);
},
{
closed = 1;
nodes = (
(276,167,ls),
(276,150,o),
(275,108,o),
(275,95,cs),
(275,81,o),
(302,72,o),
(320,72,cs),
(330,72,o),
(337,75,o),
(337,81,cs),
(336,103,o),
(335,150,o),
(335,171,cs),
(335,568,ls),
(335,591,o),
(340,612,o),
(340,625,cs),
(340,641,o),
(314,657,o),
(301,657,cs),
(288,657,o),
(271,633,o),
(265,628,cs),
(241,610,o),
(205,588,o),
(167,573,cs),
(160,571,o),
(158,567,o),
(158,564,cs),
(158,555,o),
(177,544,o),
(193,544,cs),
(195,544,o),
(197,545,o),
(199,545,c),
(224,551,o),
(253,559,o),
(276,572,c)
);
}
);
width = 1000;
}
);
note = cid08084;
unicode = 9345;
}
{
glyphname = one_five.paren;
layers = (
{
hints = (
{
horizontal = 1;
place = (70,51);
type = Stem;
},
{
horizontal = 1;
place = (394,49);
type = Stem;
},
{
horizontal = 1;
place = (591,51);
type = Stem;
},
{
place = (9,67);
type = Stem;
},
{
place = (276,59);
type = Stem;
},
{
place = (757,56);
type = Stem;
},
{
place = (923,67);
type = Stem;
}
);
layerId = "481A290F-76EE-4968-957F-52614F4635C1";
shapes = (
{
closed = 1;
nodes = (
(632,394,ls),
(702,394,o),
(757,347,o),
(757,266,cs),
(757,188,o),
(707,121,o),
(603,121,cs),
(541,122,o),
(495,160,o),
(466,202,cs),
(463,206,o),
(461,207,o),
(457,207,cs),
(445,207,o),
(430,181,o),
(430,162,cs),
(430,132,o),
(518,70,o),
(603,70,cs),
(751,70,o),
(813,163,o),
(813,266,cs),
(813,377,o),
(729,441,o),
(639,443,cs),
(630,443,ls),
(581,443,o),
(541,427,o),
(512,403,c),
(542,585,l),
(714,598,l),
(778,601,ls),
(785,601,o),
(788,607,o),
(788,614,cs),
(788,630,o),
(775,654,o),
(763,654,cs),
(762,654,ls),
(747,651,o),
(724,650,o),
(708,649,cs),
(539,637,l),
(529,642,o),
(517,645,o),
(507,645,cs),
(499,645,o),
(493,643,o),
(493,635,cs),
(493,625,o),
(493,611,o),
(491,600,cs),
(461,406,l),
(456,391,o),
(452,374,o),
(452,369,cs),
(452,348,o),
(470,330,o),
(483,330,cs),
(487,330,o),
(495,336,o),
(513,354,cs),
(541,378,o),
(586,394,o),
(628,394,cs)
);
},
{
closed = 1;
nodes = (
(819,-81,o),
(990,103,o),
(990,367,cs),
(990,632,o),
(819,815,o),
(792,815,cs),
(783,815,o),
(778,809,o),
(778,800,cs),
(778,796,o),
(779,791,o),
(783,787,cs),
(881,670,o),
(923,509,o),
(923,367,cs),
(923,225,o),
(881,64,o),
(783,-53,cs),
(779,-57,o),
(778,-62,o),
(778,-66,cs),
(778,-75,o),
(783,-81,o),
(792,-81,cs)
);
},
{
closed = 1;
nodes = (
(216,-81,o),
(221,-75,o),
(221,-66,cs),
(221,-62,o),
(220,-57,o),
(216,-53,cs),
(118,64,o),
(76,225,o),
(76,367,cs),
(76,509,o),
(118,670,o),
(216,787,cs),
(220,791,o),
(221,796,o),
(221,800,cs),
(221,809,o),
(216,815,o),
(207,815,cs),
(181,815,o),
(9,632,o),
(9,367,cs),
(9,103,o),
(181,-81,o),
(207,-81,cs)
);
},
{
closed = 1;
nodes = (
(276,167,ls),
(276,150,o),
(275,108,o),
(275,95,cs),
(275,81,o),
(302,72,o),
(320,72,cs),
(330,72,o),
(337,75,o),
(337,81,cs),
(336,103,o),
(335,150,o),
(335,171,cs),
(335,568,ls),
(335,591,o),
(340,612,o),
(340,625,cs),
(340,641,o),
(314,657,o),
(301,657,cs),
(288,657,o),
(271,633,o),
(265,628,cs),
(241,610,o),
(205,588,o),
(167,573,cs),
(160,571,o),
(158,567,o),
(158,564,cs),
(158,555,o),
(177,544,o),
(193,544,cs),
(195,544,o),
(197,545,o),
(199,545,c),
(224,551,o),
(253,559,o),
(276,572,c)
);
}
);
width = 1000;
}
);
note = cid08085;
unicode = 9346;
}
{
glyphname = one_six.paren;
layers = (
{
hints = (
{
horizontal = 1;
place = (70,50);
type = Stem;
},
{
horizontal = 1;
place = (389,48);
type = Stem;
},
{
place = (9,67);
type = Stem;
},
{
place = (276,59);
type = Stem;
},
{
place = (415,58);
type = Stem;
},
{
place = (745,57);
type = Stem;
},
{
place = (923,67);
type = Stem;
}
);
layerId = "481A290F-76EE-4968-957F-52614F4635C1";
shapes = (
{
closed = 1;
nodes = (
(819,-81,o),
(990,103,o),
(990,367,cs),
(990,632,o),
(819,815,o),
(792,815,cs),
(783,815,o),
(778,809,o),
(778,800,cs),
(778,796,o),
(779,791,o),
(783,787,cs),
(881,670,o),
(923,509,o),
(923,367,cs),
(923,225,o),
(881,64,o),
(783,-53,cs),
(779,-57,o),
(778,-62,o),
(778,-66,cs),
(778,-75,o),
(783,-81,o),
(792,-81,cs)
);
},
{
closed = 1;
nodes = (
(216,-81,o),
(221,-75,o),
(221,-66,cs),
(221,-62,o),
(220,-57,o),
(216,-53,cs),
(118,64,o),
(76,225,o),
(76,367,cs),
(76,509,o),
(118,670,o),
(216,787,cs),
(220,791,o),
(221,796,o),
(221,800,cs),
(221,809,o),
(216,815,o),
(207,815,cs),
(181,815,o),
(9,632,o),
(9,367,cs),
(9,103,o),
(181,-81,o),
(207,-81,cs)
);
},
{
closed = 1;
nodes = (
(513,411,o),
(573,525,o),
(660,625,cs),
(664,629,o),
(669,635,o),
(669,641,cs),
(669,661,o),
(632,662,o),
(628,662,cs),
(617,662,o),
(606,660,o),
(602,652,cs),
(600,648,o),
(596,637,o),
(594,635,c),
(492,480,o),
(415,358,o),
(415,242,cs),
(415,147,o),
(490,70,o),
(608,70,cs),
(738,70,o),
(802,162,o),
(802,268,cs),
(802,365,o),
(720,437,o),
(623,437,cs),
(571,437,o),
(532,418,o),
(504,393,c)
);
},
{
closed = 1;
nodes = (
(276,167,ls),
(276,150,o),
(275,108,o),
(275,95,cs),
(275,81,o),
(302,72,o),
(320,72,cs),
(330,72,o),
(337,75,o),
(337,81,cs),
(336,103,o),
(335,150,o),
(335,171,cs),
(335,568,ls),
(335,591,o),
(340,612,o),
(340,625,cs),
(340,641,o),
(314,657,o),
(301,657,cs),
(288,657,o),
(271,633,o),
(265,628,cs),
(241,610,o),
(205,588,o),
(167,573,cs),
(160,571,o),
(158,567,o),
(158,564,cs),
(158,555,o),
(177,544,o),
(193,544,cs),
(195,544,o),
(197,545,o),
(199,545,c),
(224,551,o),
(253,559,o),
(276,572,c)
);
},
{
closed = 1;
nodes = (
(522,120,o),
(473,171,o),
(473,244,cs),
(473,323,o),
(527,389,o),
(621,389,cs),
(696,389,o),
(745,331,o),
(745,265,cs),
(745,181,o),
(697,120,o),
(608,120,cs)
);
}
);
width = 1000;
}
);
note = cid08086;
unicode = 9347;
}
{
glyphname = six_period;
layers = (
{
hints = (
{
horizontal = 1;
place = (-17,61);
type = Stem;
},
{
horizontal = 1;
place = (376,60);
type = Stem;
},
{
place = (259,71);
type = Stem;
},
{
place = (666,71);
type = Stem;
},
{
horizontal = 1;
place = (-14,124);
type = Stem;
},
{
place = (828,115);
type = Stem;
}
);
layerId = "481A290F-76EE-4968-957F-52614F4635C1";
shapes = (
{
closed = 1;
nodes = (
(377,383,o),
(450,525,o),
(562,653,cs),
(567,658,o),
(572,666,o),
(572,673,cs),
(572,696,o),
(532,699,o),
(522,699,cs),
(509,699,o),
(496,696,o),
(490,686,cs),
(487,681,o),
(482,668,o),
(480,665,cs),
(333,443,o),
(259,312,o),
(259,180,cs),
(259,63,o),
(352,-32,o),
(497,-32,cs),
(658,-32,o),
(737,81,o),
(737,212,cs),
(737,332,o),
(636,421,o),
(516,421,cs),
(452,421,o),
(404,397,o),
(369,367,c)
);
},
{
closed = 1;
nodes = (
(943,61,o),
(912,95,o),
(885,95,cs),
(853,95,o),
(828,70,o),
(828,40,cs),
(828,6,o),
(856,-29,o),
(885,-29,cs),
(913,-29,o),
(943,-3,o),
(943,26,cs)
);
},
{
closed = 1;
nodes = (
(391,29,o),
(330,92,o),
(330,182,cs),
(330,280,o),
(397,361,o),
(513,361,cs),
(606,361,o),
(666,290,o),
(666,209,cs),
(666,105,o),
(607,29,o),
(497,29,cs)
);
}
);
width = 1000;
}
);
note = cid08067;
unicode = 9357;
}
{
glyphname = eight_period;
layers = (
{
hints = (
{
horizontal = 1;
place = (-17,63);
type = Stem;
},
{
horizontal = 1;
place = (653,59);
type = Stem;
},
{
place = (253,71);
type = Stem;
},
{
place = (653,72);
type = Stem;
},
{
horizontal = 1;
place = (583,17);
type = Stem;
},
{
place = (287,70);
type = Stem;
},
{
place = (685,45);
type = Stem;
},
{
horizontal = 1;
place = (-14,124);
type = Stem;
},
{
place = (828,115);
type = Stem;
}
);
layerId = "481A290F-76EE-4968-957F-52614F4635C1";
shapes = (
{
closed = 1;
nodes = (
(533,386,l),
(599,434,o),
(730,538,o),
(730,569,cs),
(730,578,o),
(723,585,o),
(714,585,cs),
(709,585,o),
(702,583,o),
(696,577,cs),
(689,571,o),
(685,568,o),
(685,568,c),
(687,572,o),
(689,577,o),
(689,582,cs),
(689,602,o),
(624,697,o),
(498,697,cs),
(370,697,o),
(287,618,o),
(287,530,cs),
(287,465,o),
(332,420,o),
(418,375,c),
(326,315,o),
(253,244,o),
(253,158,cs),
(253,51,o),
(340,-32,o),
(477,-32,cs),
(632,-32,o),
(725,44,o),
(725,167,cs),
(725,272,o),
(661,333,o),
(541,383,cs)
);
},
{
closed = 1;
nodes = (
(592,296,o),
(653,266,o),
(653,164,cs),
(653,79,o),
(585,31,o),
(477,31,cs),
(370,31,o),
(324,94,o),
(324,161,cs),
(324,228,o),
(380,276,o),
(479,345,c)
);
},
{
closed = 1;
nodes = (
(394,450,o),
(357,480,o),
(357,529,cs),
(357,587,o),
(413,638,o),
(499,638,cs),
(564,638,o),
(604,608,o),
(632,563,cs),
(639,552,o),
(648,549,o),
(655,549,cs),
(658,549,o),
(661,549,o),
(663,550,c),
(604,503,o),
(540,456,o),
(473,413,c)
);
},
{
closed = 1;
nodes = (
(943,61,o),
(912,95,o),
(885,95,cs),
(853,95,o),
(828,70,o),
(828,40,cs),
(828,6,o),
(856,-29,o),
(885,-29,cs),
(913,-29,o),
(943,-3,o),
(943,26,cs)
);
}
);
width = 1000;
}
);
note = cid08069;
unicode = 9359;
}
{
glyphname = nine_period;
layers = (
{
hints = (
{
horizontal = 1;
place = (-14,124);
type = Stem;
},
{
horizontal = 1;
place = (260,65);
type = Stem;
},
{
horizontal = 1;
place = (650,62);
type = Stem;
},
{
place = (255,69);
type = Stem;
},
{
place = (547,76);
type = Stem;
},
{
place = (670,77);
type = Stem;
},
{
place = (828,115);
type = Stem;
}
);
layerId = "481A290F-76EE-4968-957F-52614F4635C1";
shapes = (
{
closed = 1;
nodes = (
(577,-28,ls),
(604,-27,o),
(622,-20,o),
(623,-6,cs),
(630,61,o),
(704,515,o),
(747,628,c),
(747,631,ls),
(747,647,o),
(711,666,o),
(694,668,cs),
(692,668,ls),
(673,668,o),
(676,643,o),
(670,614,c),
(653,644,o),
(602,697,o),
(509,697,cs),
(370,697,o),
(255,562,o),
(255,427,cs),
(255,312,o),
(331,245,o),
(424,245,cs),
(495,245,o),
(569,284,o),
(616,342,c),
(609,301,o),
(596,237,o),
(550,14,cs),
(549,8,o),
(547,1,o),
(547,-6,cs),
(547,-18,o),
(552,-28,o),
(573,-28,cs)
);
},
{
closed = 1;
nodes = (
(943,61,o),
(912,95,o),
(885,95,cs),
(853,95,o),
(828,70,o),
(828,40,cs),
(828,6,o),
(856,-29,o),
(885,-29,cs),
(913,-29,o),
(943,-3,o),
(943,26,cs)
);
},
{
closed = 1;
nodes = (
(655,544,o),
(653,530,o),
(649,516,cs),
(642,494,o),
(583,310,o),
(423,310,cs),
(358,310,o),
(324,356,o),
(324,430,cs),
(324,521,o),
(406,635,o),
(514,635,cs),
(584,635,o),
(617,592,o),
(630,564,cs),
(634,555,o),
(639,552,o),
(645,552,cs),
(649,552,o),
(654,555,o),
(659,558,c)
);
}
);
width = 1000;
}
);
note = cid08070;
unicode = 9360;
}
{
glyphname = g.paren;
layers = (
{
hints = (
{
horizontal = 1;
place = (85,52);
type = Stem;
},
{
horizontal = 1;
place = (240,51);
type = Stem;
},
{
horizontal = 1;
place = (597,50);
type = Stem;
},
{
place = (9,67);
type = Stem;
},
{
place = (302,58);
type = Stem;
},
{
place = (614,55);
type = Stem;
},
{
place = (923,67);
type = Stem;
}
);
layerId = "481A290F-76EE-4968-957F-52614F4635C1";
shapes = (
{
closed = 1;
nodes = (
(819,-81,o),
(990,103,o),
(990,367,cs),
(990,632,o),
(819,815,o),
(792,815,cs),
(783,815,o),
(778,809,o),
(778,800,cs),
(778,796,o),
(779,791,o),
(783,787,cs),
(881,670,o),
(923,509,o),
(923,367,cs),
(923,225,o),
(881,64,o),
(783,-53,cs),
(779,-57,o),
(778,-62,o),
(778,-66,cs),
(778,-75,o),
(783,-81,o),
(792,-81,cs)
);
},
{
closed = 1;
nodes = (
(216,-81,o),
(221,-75,o),
(221,-66,cs),
(221,-62,o),
(220,-57,o),
(216,-53,cs),
(118,64,o),
(76,225,o),
(76,367,cs),
(76,509,o),
(118,670,o),
(216,787,cs),
(220,791,o),
(221,796,o),
(221,800,cs),
(221,809,o),
(216,815,o),
(207,815,cs),
(181,815,o),
(9,632,o),
(9,367,cs),
(9,103,o),
(181,-81,o),
(207,-81,cs)
);
},
{
closed = 1;
nodes = (
(614,278,ls),
(614,191,o),
(548,137,o),
(460,137,cs),
(402,137,o),
(375,155,o),
(355,202,cs),
(352,208,o),
(348,210,o),
(343,210,cs),
(328,210,o),
(306,187,o),
(306,170,cs),
(306,166,o),
(337,85,o),
(460,85,cs),
(573,85,o),
(669,153,o),
(669,277,cs),
(669,539,ls),
(669,568,o),
(672,601,o),
(673,623,cs),
(673,637,o),
(647,646,o),
(628,646,cs),
(619,646,o),
(612,644,o),
(612,638,cs),
(612,626,o),
(615,614,o),
(615,593,c),
(593,630,o),
(554,647,o),
(507,647,cs),
(396,647,o),
(302,529,o),
(302,414,cs),
(302,301,o),
(360,240,o),
(449,240,cs),
(509,240,o),
(571,267,o),
(614,335,c)
);
},
{
closed = 1;
nodes = (
(590,337,o),
(510,291,o),
(449,291,cs),
(390,291,o),
(360,324,o),
(360,414,cs),
(360,503,o),
(424,597,o),
(508,597,cs),
(538,597,o),
(571,584,o),
(588,561,cs),
(590,558,o),
(594,556,o),
(598,556,cs),
(604,556,o),
(611,560,o),
(615,566,c),
(615,511,o),
(615,443,o),
(610,425,cs)
);
}
);
width = 1000;
}
);
note = cid08118;
unicode = 9378;
}
{
glyphname = n.paren;
layers = (
{
hints = (
{
horizontal = 1;
place = (530,53);
type = Stem;
},
{
place = (9,67);
type = Stem;
},
{
place = (328,56);
type = Stem;
},
{
place = (616,56);
type = Stem;
},
{
place = (923,67);
type = Stem;
}
);
layerId = "481A290F-76EE-4968-957F-52614F4635C1";
shapes = (
{
closed = 1;
nodes = (
(614,184,ls),
(614,171,o),
(639,162,o),
(657,162,cs),
(667,162,o),
(674,164,o),
(674,170,cs),
(674,189,o),
(672,250,o),
(672,260,cs),
(672,423,ls),
(672,493,o),
(656,583,o),
(546,583,cs),
(484,583,o),
(421,550,o),
(384,490,c),
(384,512,o),
(386,556,o),
(386,556,c),
(386,570,o),
(360,579,o),
(342,579,cs),
(333,579,o),
(326,577,o),
(326,571,cs),
(326,551,o),
(328,496,o),
(328,480,cs),
(328,268,ls),
(328,256,o),
(327,199,o),
(327,185,cs),
(327,171,o),
(353,162,o),
(371,162,cs),
(380,162,o),
(387,164,o),
(387,170,cs),
(386,195,o),
(384,227,o),
(384,260,cs),
(385,300,o),
(385,372,o),
(398,414,cs),
(423,499,o),
(487,530,o),
(546,530,cs),
(602,530,o),
(616,486,o),
(616,420,cs),
(616,268,ls),
(616,249,o),
(615,199,o),
(614,185,cs)
);
},
{
closed = 1;
nodes = (
(819,-81,o),
(990,103,o),
(990,367,cs),
(990,632,o),
(819,815,o),
(792,815,cs),
(783,815,o),
(778,809,o),
(778,800,cs),
(778,796,o),
(779,791,o),
(783,787,cs),
(881,670,o),
(923,509,o),
(923,367,cs),
(923,225,o),
(881,64,o),
(783,-53,cs),
(779,-57,o),
(778,-62,o),
(778,-66,cs),
(778,-75,o),
(783,-81,o),
(792,-81,cs)
);
},
{
closed = 1;
nodes = (
(216,-81,o),
(221,-75,o),
(221,-66,cs),
(221,-62,o),
(220,-57,o),
(216,-53,cs),
(118,64,o),
(76,225,o),
(76,367,cs),
(76,509,o),
(118,670,o),
(216,787,cs),
(220,791,o),
(221,796,o),
(221,800,cs),
(221,809,o),
(216,815,o),
(207,815,cs),
(181,815,o),
(9,632,o),
(9,367,cs),
(9,103,o),
(181,-81,o),
(207,-81,cs)
);
}
);
width = 1000;
}
);
note = cid08125;
unicode = 9385;
}
{
glyphname = t.paren;
layers = (
{
hints = (
{
horizontal = 1;
place = (77,54);
type = Stem;
},
{
horizontal = 1;
place = (453,45);
type = Stem;
},
{
place = (9,67);
type = Stem;
},
{
place = (428,57);
type = Stem;
},
{
place = (923,67);
type = Stem;
},
{
horizontal = 1;
place = (457,49);
type = Stem;
}
);
layerId = "481A290F-76EE-4968-957F-52614F4635C1";
shapes = (
{
closed = 1;
nodes = (
(819,-81,o),
(990,103,o),
(990,367,cs),
(990,632,o),
(819,815,o),
(792,815,cs),
(783,815,o),
(778,809,o),
(778,800,cs),
(778,796,o),
(779,791,o),
(783,787,cs),
(881,670,o),
(923,509,o),
(923,367,cs),
(923,225,o),
(881,64,o),
(783,-53,cs),
(779,-57,o),
(778,-62,o),
(778,-66,cs),
(778,-75,o),
(783,-81,o),
(792,-81,cs)
);
},
{
closed = 1;
nodes = (
(216,-81,o),
(221,-75,o),
(221,-66,cs),
(221,-62,o),
(220,-57,o),
(216,-53,cs),
(118,64,o),
(76,225,o),
(76,367,cs),
(76,509,o),
(118,670,o),
(216,787,cs),
(220,791,o),
(221,796,o),
(221,800,cs),
(221,809,o),
(216,815,o),
(207,815,cs),
(181,815,o),
(9,632,o),
(9,367,cs),
(9,103,o),
(181,-81,o),
(207,-81,cs)
);
},
{
closed = 1;
nodes = (
(428,186,ls),
(428,113,o),
(449,77,o),
(508,77,cs),
(566,77,o),
(626,149,o),
(626,169,cs),
(626,174,o),
(623,178,o),
(618,178,cs),
(613,178,o),
(605,174,o),
(595,166,cs),
(567,144,o),
(536,131,o),
(516,131,cs),
(491,131,o),
(485,138,o),
(485,184,cs),
(485,455,l),
(519,456,ls),
(541,457,o),
(580,457,o),
(592,457,cs),
(599,457,o),
(602,462,o),
(602,469,cs),
(602,484,o),
(590,506,o),
(575,506,cs),
(574,506,ls),
(562,505,o),
(530,502,o),
(509,501,cs),
(485,500,l),
(485,541,ls),
(485,561,o),
(487,603,o),
(487,617,cs),
(487,631,o),
(461,641,o),
(443,641,cs),
(433,641,o),
(426,638,o),
(426,632,cs),
(426,612,o),
(428,557,o),
(428,541,cs),
(428,498,l),
(417,498,ls),
(398,498,o),
(383,497,o),
(370,497,cs),
(364,497,o),
(359,497,o),
(354,498,cs),
(352,498,ls),
(346,498,o),
(344,493,o),
(344,487,cs),
(344,472,o),
(356,449,o),
(371,449,cs),
(372,449,ls),
(391,450,o),
(399,453,o),
(424,453,cs),
(428,453,l)
);
}
);
width = 1000;
}
);
note = cid08131;
unicode = 9391;
}
{
glyphname = D.circled;
layers = (
{
hints = (
{
horizontal = 1;
place = (-112,49);
type = Stem;
},
{
horizontal = 1;
place = (76,39);
type = Stem;
},
{
horizontal = 1;
place = (609,50);
type = Stem;
},
{
horizontal = 1;
place = (798,49);
type = Stem;
},
{
place = (20,49);
type = Stem;
},
{
place = (308,57);
type = Stem;
},
{
place = (710,57);
type = Stem;
},
{
place = (931,49);
type = Stem;
}
);
layerId = "481A290F-76EE-4968-957F-52614F4635C1";
shapes = (
{
closed = 1;
nodes = (
(980,632,o),
(765,847,o),
(500,847,cs),
(235,847,o),
(20,632,o),
(20,367,cs),
(20,102,o),
(235,-112,o),
(500,-112,cs),
(765,-112,o),
(980,102,o),
(980,367,cs)
);
},
{
closed = 1;
nodes = (
(931,129,o),
(738,-63,o),
(500,-63,cs),
(262,-63,o),
(69,129,o),
(69,367,cs),
(69,605,o),
(262,798,o),
(500,798,cs),
(738,798,o),
(931,605,o),
(931,367,cs)
);
},
{
closed = 1;
nodes = (
(371,76,ls),
(420,76,o),
(470,79,o),
(525,89,cs),
(644,110,o),
(767,196,o),
(767,371,cs),
(767,546,o),
(629,659,o),
(468,659,cs),
(412,659,o),
(313,647,o),
(281,634,cs),
(277,632,o),
(275,629,o),
(275,625,cs),
(275,612,o),
(293,592,o),
(308,589,c),
(308,110,l),
(280,110,o),
(264,107,o),
(264,94,cs),
(264,83,o),
(287,76,o),
(355,76,cs)
);
},
{
closed = 1;
nodes = (
(365,596,l),
(397,605,o),
(428,609,o),
(464,609,cs),
(583,609,o),
(710,523,o),
(710,372,cs),
(710,156,o),
(487,115,o),
(365,115,c)
);
}
);
width = 1000;
}
);
note = cid10342;
unicode = 9401;
}
{
glyphname = H.circled;
layers = (
{
hints = (
{
horizontal = 1;
place = (-112,49);
type = Stem;
},
{
horizontal = 1;
place = (370,48);
type = Stem;
},
{
horizontal = 1;
place = (798,49);
type = Stem;
},
{
place = (20,49);
type = Stem;
},
{
place = (297,57);
type = Stem;
},
{
place = (651,56);
type = Stem;
},
{
place = (931,49);
type = Stem;
},
{
horizontal = 1;
place = (357,55);
type = Stem;
}
);
layerId = "481A290F-76EE-4968-957F-52614F4635C1";
shapes = (
{
closed = 1;
nodes = (
(980,632,o),
(765,847,o),
(500,847,cs),
(235,847,o),
(20,632,o),
(20,367,cs),
(20,102,o),
(235,-112,o),
(500,-112,cs),
(765,-112,o),
(980,102,o),
(980,367,cs)
);
},
{
closed = 1;
nodes = (
(931,129,o),
(738,-63,o),
(500,-63,cs),
(262,-63,o),
(69,129,o),
(69,367,cs),
(69,605,o),
(262,798,o),
(500,798,cs),
(738,798,o),
(931,605,o),
(931,367,cs)
);
},
{
closed = 1;
nodes = (
(651,169,ls),
(651,140,o),
(649,110,o),
(649,97,cs),
(649,83,o),
(675,74,o),
(694,74,cs),
(703,74,o),
(710,76,o),
(710,82,cs),
(710,101,o),
(707,135,o),
(707,168,cs),
(707,558,ls),
(707,587,o),
(709,618,o),
(709,631,cs),
(709,645,o),
(683,654,o),
(665,654,cs),
(656,654,o),
(648,651,o),
(648,645,cs),
(648,626,o),
(651,592,o),
(651,559,cs),
(651,411,l),
(646,422,o),
(639,430,o),
(632,430,cs),
(629,430,ls),
(616,428,o),
(587,425,o),
(562,424,cs),
(354,412,l),
(354,558,ls),
(354,587,o),
(356,618,o),
(356,631,cs),
(356,645,o),
(330,654,o),
(312,654,cs),
(303,654,o),
(295,651,o),
(295,645,cs),
(295,626,o),
(297,592,o),
(297,559,cs),
(297,412,l),
(287,412,o),
(279,413,o),
(275,413,cs),
(268,413,o),
(265,407,o),
(265,399,cs),
(265,382,o),
(277,357,o),
(291,357,cs),
(292,357,ls),
(293,357,o),
(295,357,o),
(297,358,c),
(297,168,ls),
(297,140,o),
(296,109,o),
(296,96,cs),
(296,82,o),
(322,73,o),
(341,73,cs),
(350,73,o),
(357,75,o),
(357,81,cs),
(357,100,o),
(354,134,o),
(354,167,cs),
(354,364,l),
(562,376,ls),
(570,377,o),
(578,377,o),
(586,377,cs),
(610,377,o),
(636,375,o),
(646,375,cs),
(651,375,l)
);
}
);
width = 1000;
}
);
note = cid10346;
unicode = 9405;
}
{
glyphname = K.circled;
layers = (
{
hints = (
{
horizontal = 1;
place = (-112,49);
type = Stem;
},
{
horizontal = 1;
place = (798,49);
type = Stem;
},
{
place = (20,49);
type = Stem;
},
{
place = (329,57);
type = Stem;
},
{
place = (931,49);
type = Stem;
}
);
layerId = "481A290F-76EE-4968-957F-52614F4635C1";
shapes = (
{
closed = 1;
nodes = (
(980,632,o),
(765,847,o),
(500,847,cs),
(235,847,o),
(20,632,o),
(20,367,cs),
(20,102,o),
(235,-112,o),
(500,-112,cs),
(765,-112,o),
(980,102,o),
(980,367,cs)
);
},
{
closed = 1;
nodes = (
(931,129,o),
(738,-63,o),
(500,-63,cs),
(262,-63,o),
(69,129,o),
(69,367,cs),
(69,605,o),
(262,798,o),
(500,798,cs),
(738,798,o),
(931,605,o),
(931,367,cs)
);
},
{
closed = 1;
nodes = (
(329,173,ls),
(329,141,o),
(327,109,o),
(327,96,cs),
(327,82,o),
(353,73,o),
(372,73,cs),
(381,73,o),
(388,75,o),
(388,81,cs),
(388,100,o),
(386,136,o),
(386,172,cs),
(386,352,l),
(410,371,l),
(480,291,o),
(585,179,o),
(643,119,cs),
(656,105,o),
(664,94,o),
(670,85,cs),
(675,78,o),
(685,75,o),
(697,75,cs),
(720,75,o),
(747,88,o),
(747,98,cs),
(747,100,o),
(746,102,o),
(744,104,cs),
(726,119,o),
(707,134,o),
(695,146,cs),
(633,209,o),
(521,323,o),
(451,405,c),
(522,462,o),
(587,518,o),
(637,563,cs),
(664,588,o),
(685,605,o),
(702,618,cs),
(704,620,o),
(705,622,o),
(705,624,cs),
(705,637,o),
(676,653,o),
(656,653,cs),
(651,653,o),
(646,651,o),
(643,648,cs),
(603,600,o),
(455,470,o),
(386,416,c),
(386,558,ls),
(386,587,o),
(387,618,o),
(387,631,cs),
(387,645,o),
(362,654,o),
(344,654,cs),
(334,654,o),
(327,651,o),
(327,645,cs),
(327,626,o),
(329,592,o),
(329,559,cs)
);
}
);
width = 1000;
}
);
note = cid10349;
unicode = 9408;
}
{
glyphname = M.circled;
layers = (
{
hints = (
{
horizontal = 1;
place = (-112,49);
type = Stem;
},
{
horizontal = 1;
place = (798,49);
type = Stem;
},
{
place = (20,49);
type = Stem;
},
{
place = (738,72);
type = Stem;
},
{
place = (931,49);
type = Stem;
},
{
place = (253,47);
type = Stem;
},
{
place = (694,48);
type = Stem;
},
{
place = (184,67);
type = Stem;
}
);
layerId = "481A290F-76EE-4968-957F-52614F4635C1";
shapes = (
{
closed = 1;
nodes = (
(980,632,o),
(765,847,o),
(500,847,cs),
(235,847,o),
(20,632,o),
(20,367,cs),
(20,102,o),
(235,-112,o),
(500,-112,cs),
(765,-112,o),
(980,102,o),
(980,367,cs)
);
},
{
closed = 1;
nodes = (
(931,129,o),
(738,-63,o),
(500,-63,cs),
(262,-63,o),
(69,129,o),
(69,367,cs),
(69,605,o),
(262,798,o),
(500,798,cs),
(738,798,o),
(931,605,o),
(931,367,cs)
);
},
{
closed = 1;
nodes = (
(810,98,l),
(798,135,o),
(782,228,o),
(742,591,cs),
(742,595,ls),
(742,609,o),
(746,619,o),
(746,631,cs),
(746,643,o),
(708,659,o),
(691,659,cs),
(672,659,o),
(669,642,o),
(661,627,cs),
(605,511,o),
(538,358,o),
(487,233,c),
(444,328,o),
(379,492,o),
(329,622,cs),
(325,632,o),
(322,644,o),
(316,648,cs),
(312,650,o),
(306,651,o),
(300,651,cs),
(280,651,o),
(255,639,o),
(252,627,c),
(252,625,o),
(251,622,o),
(251,620,cs),
(251,614,o),
(253,607,o),
(253,598,cs),
(253,595,o),
(252,592,o),
(252,588,cs),
(205,183,o),
(199,140,o),
(184,90,c),
(184,88,ls),
(184,81,o),
(197,77,o),
(212,77,cs),
(230,77,o),
(250,82,o),
(251,92,cs),
(252,113,o),
(253,131,o),
(256,150,cs),
(270,266,o),
(289,430,o),
(300,563,c),
(341,454,o),
(407,294,o),
(439,218,cs),
(442,212,o),
(450,188,o),
(456,171,cs),
(459,163,o),
(469,159,o),
(480,159,cs),
(499,159,o),
(522,169,o),
(523,183,cs),
(523,201,o),
(622,424,o),
(694,571,c),
(707,440,o),
(727,248,o),
(738,151,cs),
(741,127,o),
(741,114,o),
(742,91,cs),
(743,81,o),
(756,77,o),
(771,77,cs),
(789,77,o),
(810,84,o),
(810,95,cs)
);
}
);
width = 1000;
}
);
note = cid10351;
unicode = 9410;
}
{
glyphname = W.circled;
layers = (
{
hints = (
{
horizontal = 1;
place = (-112,49);
type = Stem;
},
{
horizontal = 1;
place = (798,49);
type = Stem;
},
{
place = (20,49);
type = Stem;
},
{
place = (931,49);
type = Stem;
}
);
layerId = "481A290F-76EE-4968-957F-52614F4635C1";
shapes = (
{
closed = 1;
nodes = (
(980,632,o),
(765,847,o),
(500,847,cs),
(235,847,o),
(20,632,o),
(20,367,cs),
(20,102,o),
(235,-112,o),
(500,-112,cs),
(765,-112,o),
(980,102,o),
(980,367,cs)
);
},
{
closed = 1;
nodes = (
(620,85,o),
(643,68,o),
(662,68,cs),
(673,68,o),
(683,75,o),
(686,88,cs),
(737,291,o),
(821,545,o),
(851,617,c),
(901,546,o),
(931,460,o),
(931,367,cs),
(931,129,o),
(738,-63,o),
(500,-63,cs),
(262,-63,o),
(69,129,o),
(69,367,cs),
(69,466,o),
(102,556,o),
(158,629,c),
(181,570,o),
(247,334,o),
(298,119,cs),
(306,87,o),
(329,69,o),
(347,69,cs),
(358,69,o),
(366,75,o),
(370,87,cs),
(378,110,o),
(381,129,o),
(386,145,cs),
(423,277,o),
(465,434,o),
(502,553,c),
(538,425,o),
(577,264,o),
(611,119,cs)
);
},
{
closed = 1;
nodes = (
(536,622,ls),
(534,634,o),
(512,641,o),
(493,641,cs),
(477,641,o),
(463,637,o),
(463,625,cs),
(462,609,o),
(458,593,o),
(453,577,cs),
(419,460,o),
(375,319,o),
(338,163,c),
(298,357,o),
(269,467,o),
(221,637,c),
(219,648,o),
(200,653,o),
(183,653,cs),
(178,653,l),
(257,742,o),
(372,798,o),
(500,798,cs),
(627,798,o),
(741,743,o),
(820,656,c),
(815,657,o),
(810,658,o),
(806,658,cs),
(799,658,o),
(793,656,o),
(792,650,c),
(783,620,o),
(775,586,o),
(766,559,cs),
(732,449,o),
(696,320,o),
(653,162,c),
(626,289,o),
(584,453,o),
(543,594,cs)
);
}
);
width = 1000;
}
);
note = cid10361;
unicode = 9420;
}
{
glyphname = X.circled;
layers = (
{
hints = (
{
horizontal = 1;
place = (-112,49);
type = Stem;
},
{
horizontal = 1;
place = (798,49);
type = Stem;
},
{
place = (20,49);
type = Stem;
},
{
place = (931,49);
type = Stem;
}
);
layerId = "481A290F-76EE-4968-957F-52614F4635C1";
shapes = (
{
closed = 1;
nodes = (
(980,632,o),
(765,847,o),
(500,847,cs),
(235,847,o),
(20,632,o),
(20,367,cs),
(20,102,o),
(235,-112,o),
(500,-112,cs),
(765,-112,o),
(980,102,o),
(980,367,cs)
);
},
{
closed = 1;
nodes = (
(931,129,o),
(738,-63,o),
(500,-63,cs),
(262,-63,o),
(69,129,o),
(69,367,cs),
(69,605,o),
(262,798,o),
(500,798,cs),
(738,798,o),
(931,605,o),
(931,367,cs)
);
},
{
closed = 1;
nodes = (
(329,182,ls),
(315,160,o),
(289,128,o),
(266,102,cs),
(263,99,o),
(262,96,o),
(262,94,cs),
(262,83,o),
(285,74,o),
(304,74,cs),
(314,74,o),
(323,77,o),
(327,82,cs),
(341,104,o),
(356,126,o),
(498,335,c),
(540,271,o),
(583,206,o),
(624,149,cs),
(641,124,o),
(660,94,o),
(671,79,cs),
(675,74,o),
(681,72,o),
(689,72,cs),
(709,72,o),
(735,85,o),
(735,98,cs),
(735,100,o),
(734,103,o),
(732,105,cs),
(705,134,o),
(655,187,o),
(532,375,c),
(649,540,o),
(674,575,o),
(711,614,cs),
(713,616,o),
(714,618,o),
(714,621,cs),
(714,634,o),
(689,649,o),
(672,649,cs),
(667,649,o),
(663,648,o),
(660,644,cs),
(604,561,o),
(516,439,o),
(503,422,c),
(379,606,o),
(369,622,o),
(355,649,c),
(352,653,o),
(346,655,o),
(338,655,cs),
(319,655,o),
(291,644,o),
(291,630,cs),
(291,628,o),
(292,625,o),
(294,623,cs),
(339,573,o),
(417,456,o),
(466,381,c)
);
}
);
width = 1000;
}
);
note = cid10362;
unicode = 9421;
}
{
glyphname = b.circled;
layers = (
{
hints = (
{
horizontal = 1;
place = (-112,49);
type = Stem;
},
{
horizontal = 1;
place = (72,47);
type = Stem;
},
{
horizontal = 1;
place = (431,49);
type = Stem;
},
{
horizontal = 1;
place = (798,49);
type = Stem;
},
{
place = (20,49);
type = Stem;
},
{
place = (341,54);
type = Stem;
},
{
place = (630,55);
type = Stem;
},
{
place = (931,49);
type = Stem;
}
);
layerId = "481A290F-76EE-4968-957F-52614F4635C1";
shapes = (
{
closed = 1;
nodes = (
(980,632,o),
(765,847,o),
(500,847,cs),
(235,847,o),
(20,632,o),
(20,367,cs),
(20,102,o),
(235,-112,o),
(500,-112,cs),
(765,-112,o),
(980,102,o),
(980,367,cs)
);
},
{
closed = 1;
nodes = (
(931,129,o),
(738,-63,o),
(500,-63,cs),
(262,-63,o),
(69,129,o),
(69,367,cs),
(69,605,o),
(262,798,o),
(500,798,cs),
(738,798,o),
(931,605,o),
(931,367,cs)
);
},
{
closed = 1;
nodes = (
(392,122,l),
(411,93,o),
(445,72,o),
(487,72,cs),
(596,72,o),
(685,174,o),
(685,311,cs),
(685,422,o),
(628,480,o),
(547,480,cs),
(488,480,o),
(438,458,o),
(395,385,c),
(395,566,ls),
(395,594,o),
(398,625,o),
(398,638,cs),
(398,651,o),
(373,660,o),
(355,660,cs),
(346,660,o),
(339,658,o),
(339,652,cs),
(339,634,o),
(341,600,o),
(341,567,cs),
(341,172,ls),
(341,144,o),
(340,111,o),
(340,98,cs),
(340,86,o),
(346,82,o),
(354,82,cs),
(367,82,o),
(387,96,o),
(390,107,c)
);
},
{
closed = 1;
nodes = (
(393,203,o),
(394,264,o),
(400,291,cs),
(417,374,o),
(478,431,o),
(547,431,cs),
(588,431,o),
(630,394,o),
(630,310,cs),
(630,188,o),
(548,119,o),
(489,119,cs),
(462,119,o),
(437,127,o),
(416,157,cs),
(410,166,o),
(405,170,o),
(399,170,cs),
(397,170,o),
(395,169,o),
(393,168,c)
);
}
);
width = 1000;
}
);
note = cid10314;
unicode = 9425;
}
{
glyphname = n.circled;
layers = (
{
hints = (
{
horizontal = 1;
place = (-112,49);
type = Stem;
},
{
horizontal = 1;
place = (518,50);
type = Stem;
},
{
horizontal = 1;
place = (798,49);
type = Stem;
},
{
place = (20,49);
type = Stem;
},
{
place = (336,54);
type = Stem;
},
{
place = (610,54);
type = Stem;
},
{
place = (931,49);
type = Stem;
}
);
layerId = "481A290F-76EE-4968-957F-52614F4635C1";
shapes = (
{
closed = 1;
nodes = (
(980,632,o),
(765,847,o),
(500,847,cs),
(235,847,o),
(20,632,o),
(20,367,cs),
(20,102,o),
(235,-112,o),
(500,-112,cs),
(765,-112,o),
(980,102,o),
(980,367,cs)
);
},
{
closed = 1;
nodes = (
(931,129,o),
(738,-63,o),
(500,-63,cs),
(262,-63,o),
(69,129,o),
(69,367,cs),
(69,605,o),
(262,798,o),
(500,798,cs),
(738,798,o),
(931,605,o),
(931,367,cs)
);
},
{
closed = 1;
nodes = (
(609,188,ls),
(609,176,o),
(633,166,o),
(651,166,cs),
(659,166,o),
(666,169,o),
(666,174,cs),
(666,193,o),
(664,251,o),
(664,260,cs),
(664,416,ls),
(664,482,o),
(648,568,o),
(544,568,cs),
(485,568,o),
(425,537,o),
(390,480,c),
(390,501,o),
(391,542,o),
(391,542,c),
(391,555,o),
(366,565,o),
(349,565,cs),
(340,565,o),
(334,562,o),
(334,557,cs),
(334,538,o),
(336,486,o),
(336,470,cs),
(336,268,ls),
(336,257,o),
(335,202,o),
(335,189,cs),
(335,176,o),
(361,166,o),
(378,166,cs),
(386,166,o),
(392,169,o),
(392,174,cs),
(391,194,o),
(390,218,o),
(390,243,cs),
(390,260,ls),
(391,298,o),
(391,367,o),
(403,408,cs),
(427,489,o),
(488,518,o),
(544,518,cs),
(597,518,o),
(610,476,o),
(610,413,cs),
(610,268,ls),
(610,250,o),
(609,202,o),
(609,189,cs)
);
}
);
width = 1000;
}
);
note = cid10326;
unicode = 9437;
}
{
glyphname = one_eight.blackCircled;
layers = (
{
hints = (
{
horizontal = 1;
place = (-110,171);
type = Stem;
},
{
horizontal = 1;
place = (670,175);
type = Stem;
},
{
place = (22,226);
type = Stem;
},
{
place = (331,106);
type = Stem;
},
{
place = (520,220);
type = Stem;
},
{
place = (824,154);
type = Stem;
}
);
layerId = "481A290F-76EE-4968-957F-52614F4635C1";
shapes = (
{
closed = 1;
nodes = (
(978,616,o),
(764,830,o),
(500,830,cs),
(236,830,o),
(22,616,o),
(22,352,cs),
(22,88,o),
(236,-125,o),
(500,-125,cs),
(764,-125,o),
(978,88,o),
(978,352,cs)
);
},
{
closed = 1;
nodes = (
(790,564,l),
(793,565,o),
(796,566,o),
(799,566,cs),
(814,566,o),
(826,554,o),
(826,538,cs),
(826,510,o),
(740,436,o),
(691,396,c),
(776,356,o),
(824,305,o),
(824,219,cs),
(824,111,o),
(742,46,o),
(619,46,cs),
(509,46,o),
(437,118,o),
(437,212,cs),
(437,281,o),
(486,337,o),
(547,383,c),
(493,416,o),
(463,454,o),
(463,507,cs),
(463,587,o),
(533,655,o),
(635,655,cs),
(707,655,o),
(762,614,o),
(787,570,cs)
);
},
{
closed = 1;
nodes = (
(332,70,ls),
(332,59,o),
(321,48,o),
(302,48,cs),
(279,48,o),
(247,66,o),
(247,85,cs),
(247,98,o),
(248,139,o),
(248,156,cs),
(248,529,l),
(230,522,o),
(211,516,o),
(192,512,c),
(190,511,o),
(188,511,o),
(186,511,cs),
(170,511,o),
(138,522,o),
(138,545,cs),
(138,555,o),
(145,563,o),
(156,568,cs),
(190,581,o),
(222,602,o),
(243,619,c),
(247,624,l),
(256,634,ls),
(265,644,o),
(277,651,o),
(286,651,cs),
(304,651,o),
(335,631,o),
(335,605,cs),
(335,592,o),
(331,571,o),
(331,549,cs),
(331,160,ls),
(331,139,o),
(332,94,o),
(332,72,cs)
);
},
{
closed = 1;
nodes = (
(623,343,l),
(552,290,o),
(520,258,o),
(520,214,cs),
(520,168,o),
(548,126,o),
(619,126,cs),
(697,126,o),
(740,161,o),
(740,217,cs),
(740,267,o),
(716,299,o),
(631,340,cs)
);
},
{
closed = 1;
nodes = (
(724,525,l),
(705,558,o),
(679,578,o),
(636,578,cs),
(577,578,o),
(546,543,o),
(546,507,cs),
(546,479,o),
(562,459,o),
(615,432,c),
(656,459,o),
(694,488,o),
(730,518,c)
);
}
);
width = 1000;
}
);
note = cid10522;
unicode = 9458;
}
{
glyphname = two_zero.blackCircled;
layers = (
{
hints = (
{
horizontal = 1;
place = (-110,172);
type = Stem;
},
{
horizontal = 1;
place = (670,175);
type = Stem;
},
{
place = (22,135);
type = Stem;
},
{
place = (464,41);
type = Stem;
},
{
place = (586,175);
type = Stem;
},
{
place = (842,136);
type = Stem;
}
);
layerId = "481A290F-76EE-4968-957F-52614F4635C1";
shapes = (
{
closed = 1;
nodes = (
(978,616,o),
(764,830,o),
(500,830,cs),
(236,830,o),
(22,616,o),
(22,352,cs),
(22,88,o),
(236,-125,o),
(500,-125,cs),
(764,-125,o),
(978,88,o),
(978,352,cs)
);
},
{
closed = 1;
nodes = (
(185,56,ls),
(156,56,o),
(140,88,o),
(140,109,cs),
(140,123,o),
(147,132,o),
(155,142,cs),
(157,144,o),
(160,147,o),
(161,150,c),
(223,269,o),
(256,317,o),
(295,357,cs),
(353,417,o),
(382,462,o),
(382,508,cs),
(382,539,o),
(369,574,o),
(322,574,cs),
(273,574,o),
(253,549,o),
(238,507,cs),
(234,494,o),
(219,476,o),
(200,476,cs),
(179,476,o),
(157,503,o),
(157,525,cs),
(157,549,o),
(207,655,o),
(324,655,cs),
(420,655,o),
(464,591,o),
(464,508,cs),
(464,434,o),
(413,365,o),
(350,300,cs),
(300,248,o),
(270,195,o),
(243,142,c),
(262,143,o),
(279,143,o),
(298,143,cs),
(334,143,o),
(355,142,o),
(385,142,cs),
(397,142,o),
(421,143,o),
(431,143,cs),
(458,143,o),
(470,104,o),
(470,87,cs),
(470,77,o),
(466,58,o),
(445,58,cs),
(435,58,o),
(410,62,o),
(384,63,cs),
(355,64,o),
(332,65,o),
(293,65,cs),
(249,65,o),
(249,65,o),
(190,56,c)
);
},
{
closed = 1;
nodes = (
(625,637,o),
(649,657,o),
(682,657,cs),
(794,657,o),
(842,518,o),
(842,357,cs),
(842,204,o),
(793,47,o),
(673,47,cs),
(545,47,o),
(505,193,o),
(505,343,cs),
(505,486,o),
(552,614,o),
(591,614,cs),
(595,614,o),
(600,612,o),
(604,610,c)
);
},
{
closed = 1;
nodes = (
(727,127,o),
(761,217,o),
(761,362,cs),
(761,470,o),
(746,577,o),
(680,577,cs),
(653,577,o),
(586,507,o),
(586,345,cs),
(586,231,o),
(595,127,o),
(672,127,cs)
);
}
);
width = 1000;
}
);
note = cid10524;
unicode = 9460;
}
{
glyphname = boxLightDownAndLeft;
layers = (
{
hints = (
{
horizontal = 1;
place = (363,34);
type = Stem;
},
{
place = (483,34);
type = Stem;
}
);
layerId = "481A290F-76EE-4968-957F-52614F4635C1";
shapes = (
{
closed = 1;
nodes = (
(517,-120,l),
(517,397,l),
(0,397,l),
(0,363,l),
(483,363,l),
(483,-120,l)
);
}
);
width = 1000;
}
);
note = cid07495;
unicode = 9488;
}
{
glyphname = boxRightLightAndLeftUpHeavy;
layers = (
{
hints = (
{
horizontal = 1;
place = (363,34);
type = Stem;
},
{
place = (455,90);
type = Stem;
},
{
horizontal = 1;
place = (335,90);
type = Stem;
}
);
layerId = "481A290F-76EE-4968-957F-52614F4635C1";
shapes = (
{
closed = 1;
nodes = (
(1000,348,l),
(1000,382,l),
(545,382,l),
(545,865,l),
(455,865,l),
(455,410,l),
(0,410,l),
(0,320,l),
(545,320,l),
(545,348,l)
);
}
);
width = 1000;
}
);
note = cid07536;
unicode = 9529;
}
{
glyphname = boxVerticalSingleAndRightDouble;
layers = (
{
layerId = "481A290F-76EE-4968-957F-52614F4635C1";
shapes = (
{
closed = 1;
nodes = (
(483,281,l),
(1000,281,l),
(1000,315,l),
(483,315,l)
);
},
{
closed = 1;
nodes = (
(483,445,l),
(1000,445,l),
(1000,479,l),
(483,479,l)
);
},
{
closed = 1;
nodes = (
(483,-120,l),
(517,-120,l),
(517,880,l),
(483,880,l)
);
}
);
width = 1000;
}
);
note = cid08252;
unicode = 9566;
}
{
glyphname = boxDoubleVerticalAndLeft;
layers = (
{
layerId = "481A290F-76EE-4968-957F-52614F4635C1";
shapes = (
{
closed = 1;
nodes = (
(0,281,l),
(401,281,l),
(401,-120,l),
(435,-120,l),
(435,315,l),
(0,315,l)
);
},
{
closed = 1;
nodes = (
(401,880,l),
(401,479,l),
(0,479,l),
(0,445,l),
(435,445,l),
(435,880,l)
);
},
{
closed = 1;
nodes = (
(565,-120,l),
(599,-120,l),
(599,880,l),
(565,880,l)
);
}
);
width = 1000;
}
);
unicode = 9571;
}
{
glyphname = boxLightArcUpAndLeft;
layers = (
{
layerId = "481A290F-76EE-4968-957F-52614F4635C1";
shapes = (
{
closed = 1;
nodes = (
(483,880,l),
(483,686,ls),
(483,519,o),
(361,397,o),
(194,397,cs),
(0,397,l),
(0,363,l),
(194,363,ls),
(381,363,o),
(517,499,o),
(517,686,cs),
(517,880,l)
);
}
);
width = 1000;
}
);
note = cid08250;
unicode = 9583;
}
{
glyphname = whiteRoundedCornersSquare;
layers = (
{
hints = (
{
horizontal = 1;
place = (-62,50);
type = Stem;
},
{
horizontal = 1;
place = (772,50);
type = Stem;
},
{
place = (58,50);
type = Stem;
},
{
place = (892,50);
type = Stem;
}
);
layerId = "481A290F-76EE-4968-957F-52614F4635C1";
shapes = (
{
closed = 1;
nodes = (
(864,-77,ls),
(912,-77,o),
(942,-41,o),
(942,1,cs),
(942,729,ls),
(942,778,o),
(907,807,o),
(864,807,cs),
(136,807,ls),
(87,807,o),
(58,774,o),
(58,729,cs),
(58,1,ls),
(58,-44,o),
(93,-77,o),
(136,-77,cs)
);
},
{
closed = 1;
nodes = (
(892,-4,ls),
(892,-19,o),
(882,-27,o),
(870,-27,cs),
(130,-27,ls),
(115,-27,o),
(108,-16,o),
(108,-4,cs),
(108,735,ls),
(108,749,o),
(117,757,o),
(130,757,cs),
(870,757,ls),
(884,757,o),
(892,747,o),
(892,735,cs)
);
}
);
width = 1000;
}
);
note = cid08015;
unicode = 9634;
}
{
glyphname = cloud;
layers = (
{
hints = (
{
horizontal = 1;
place = (26,657);
type = Stem;
},
{
place = (43,917);
type = Stem;
}
);
layerId = "481A290F-76EE-4968-957F-52614F4635C1";
shapes = (
{
closed = 1;
nodes = (
(201,390,ls),
(113,390,o),
(43,314,o),
(43,237,cs),
(43,141,o),
(96,64,o),
(226,64,cs),
(352,64,o),
(444,110,o),
(476,202,c),
(525,80,o),
(607,11,o),
(780,11,cs),
(901,11,o),
(960,63,o),
(960,157,cs),
(960,219,o),
(924,265,o),
(849,290,c),
(890,301,o),
(919,346,o),
(919,395,cs),
(919,468,o),
(859,526,o),
(789,526,cs),
(741,526,o),
(694,499,o),
(677,444,c),
(662,578,o),
(573,668,o),
(441,668,cs),
(282,668,o),
(203,541,o),
(203,427,cs),
(203,415,o),
(204,402,o),
(206,390,c)
);
}
);
width = 1000;
}
);
note = cid08216;
unicode = 9729;
}
{
glyphname = snowman;
layers = (
{
hints = (
{
horizontal = 1;
place = (-48,27);
type = Stem;
},
{
horizontal = 1;
place = (24,68);
type = Stem;
},
{
horizontal = 1;
place = (213,28);
type = Stem;
},
{
horizontal = 1;
place = (285,25);
type = Stem;
},
{
horizontal = 1;
place = (358,28);
type = Stem;
},
{
horizontal = 1;
place = (450,26);
type = Stem;
},
{
horizontal = 1;
place = (538,32);
type = Stem;
},
{
horizontal = 1;
place = (642,32);
type = Stem;
},
{
horizontal = 1;
place = (711,32);
type = Stem;
},
{
place = (104,14);
type = Stem;
},
{
place = (180,27);
type = Stem;
},
{
place = (255,27);
type = Stem;
},
{
place = (324,16);
type = Stem;
},
{
place = (459,14);
type = Stem;
},
{
place = (535,69);
type = Stem;
},
{
place = (667,29);
type = Stem;
},
{
place = (728,27);
type = Stem;
},
{
place = (798,27);
type = Stem;
},
{
place = (888,16);
type = Stem;
},
{
horizontal = 1;
place = (534,13);
type = Stem;
}
);
layerId = "481A290F-76EE-4968-957F-52614F4635C1";
shapes = (
{
closed = 1;
nodes = (
(658,-63,ls),
(732,-63,o),
(825,-1,o),
(825,97,cs),
(825,165,o),
(783,229,o),
(696,278,c),
(733,313,o),
(755,351,o),
(755,386,cs),
(755,415,o),
(745,433,o),
(724,456,c),
(781,568,l),
(782,571,o),
(783,573,o),
(783,575,cs),
(783,578,o),
(781,581,o),
(778,584,cs),
(633,711,ls),
(629,714,o),
(626,716,o),
(623,716,cs),
(620,716,o),
(617,714,o),
(614,710,cs),
(466,545,l),
(352,535,o),
(255,464,o),
(255,387,cs),
(255,337,o),
(273,313,o),
(303,279,c),
(226,224,o),
(180,167,o),
(180,98,cs),
(180,-2,o),
(269,-63,o),
(341,-63,cs)
);
},
{
closed = 1;
nodes = (
(341,-36,ls),
(282,-36,o),
(207,14,o),
(207,98,cs),
(207,163,o),
(258,222,o),
(333,262,cs),
(340,266,o),
(343,269,o),
(343,273,cs),
(343,277,o),
(340,281,o),
(334,286,cs),
(307,310,o),
(282,336,o),
(282,387,cs),
(282,452,o),
(371,513,o),
(466,519,c),
(496,482,o),
(559,435,o),
(656,435,cs),
(674,435,o),
(690,437,o),
(702,439,c),
(716,427,o),
(728,408,o),
(728,386,cs),
(728,351,o),
(696,307,o),
(667,287,cs),
(660,282,o),
(657,278,o),
(657,274,cs),
(657,270,o),
(661,267,o),
(667,264,cs),
(749,224,o),
(798,163,o),
(798,97,cs),
(798,15,o),
(720,-36,o),
(658,-36,cs)
);
},
{
closed = 1;
nodes = (
(698,465,l),
(687,463,o),
(673,461,o),
(657,461,cs),
(571,461,o),
(520,503,o),
(491,532,c),
(625,682,l),
(752,571,l)
);
},
{
closed = 1;
nodes = (
(586,314,o),
(581,319,o),
(575,319,cs),
(572,319,o),
(569,317,o),
(565,314,cs),
(546,298,o),
(526,295,o),
(501,295,cs),
(481,295,o),
(465,302,o),
(447,315,cs),
(444,317,o),
(441,318,o),
(439,318,cs),
(432,318,o),
(427,313,o),
(427,308,cs),
(427,297,o),
(473,270,o),
(501,270,cs),
(563,270,o),
(586,304,o),
(586,309,cs)
);
},
{
closed = 1;
nodes = (
(604,400,o),
(588,415,o),
(569,415,cs),
(550,415,o),
(535,400,o),
(535,381,cs),
(535,362,o),
(550,347,o),
(569,347,cs),
(588,347,o),
(604,362,o),
(604,381,cs)
);
},
{
closed = 1;
nodes = (
(463,400,o),
(447,415,o),
(428,415,cs),
(409,415,o),
(394,400,o),
(394,381,cs),
(394,362,o),
(409,347,o),
(428,347,cs),
(447,347,o),
(463,362,o),
(463,381,cs)
);
},
{
closed = 1;
nodes = (
(532,167,o),
(516,182,o),
(497,182,cs),
(478,182,o),
(463,167,o),
(463,148,cs),
(463,129,o),
(478,114,o),
(497,114,cs),
(516,114,o),
(532,129,o),
(532,148,cs)
);
},
{
closed = 1;
nodes = (
(532,62,o),
(516,77,o),
(497,77,cs),
(478,77,o),
(463,62,o),
(463,43,cs),
(463,24,o),
(478,9,o),
(497,9,cs),
(516,9,o),
(532,24,o),
(532,43,cs)
);
},
{
closed = 1;
nodes = (
(340,645,o),
(326,659,o),
(308,659,cs),
(290,659,o),
(276,645,o),
(276,627,cs),
(276,609,o),
(290,595,o),
(308,595,cs),
(326,595,o),
(340,609,o),
(340,627,cs)
);
},
{
closed = 1;
nodes = (
(907,291,o),
(893,305,o),
(875,305,cs),
(857,305,o),
(843,291,o),
(843,273,cs),
(843,255,o),
(857,241,o),
(875,241,cs),
(893,241,o),
(907,255,o),
(907,273,cs)
);
},
{
closed = 1;
nodes = (
(232,541,o),
(218,555,o),
(200,555,cs),
(182,555,o),
(168,541,o),
(168,523,cs),
(168,505,o),
(182,491,o),
(200,491,cs),
(218,491,o),
(232,505,o),
(232,523,cs)
);
},
{
closed = 1;
nodes = (
(904,714,o),
(890,728,o),
(872,728,cs),
(854,728,o),
(840,714,o),
(840,696,cs),
(840,678,o),
(854,664,o),
(872,664,cs),
(890,664,o),
(904,678,o),
(904,696,cs)
);
},
{
closed = 1;
nodes = (
(869,504,o),
(855,518,o),
(837,518,cs),
(819,518,o),
(805,504,o),
(805,486,cs),
(805,468,o),
(819,454,o),
(837,454,cs),
(855,454,o),
(869,468,o),
(869,486,cs)
);
},
{
closed = 1;
nodes = (
(160,712,o),
(147,725,o),
(132,725,cs),
(117,725,o),
(104,712,o),
(104,697,cs),
(104,682,o),
(117,669,o),
(132,669,cs),
(147,669,o),
(160,682,o),
(160,697,cs)
);
},
{
closed = 1;
nodes = (
(159,213,o),
(146,226,o),
(131,226,cs),
(116,226,o),
(103,213,o),
(103,198,cs),
(103,183,o),
(116,170,o),
(131,170,cs),
(146,170,o),
(159,183,o),
(159,198,cs)
);
},
{
closed = 1;
nodes = (
(515,710,o),
(502,723,o),
(487,723,cs),
(472,723,o),
(459,710,o),
(459,695,cs),
(459,680,o),
(472,667,o),
(487,667,cs),
(502,667,o),
(515,680,o),
(515,695,cs)
);
},
{
closed = 1;
nodes = (
(197,358,o),
(184,371,o),
(169,371,cs),
(154,371,o),
(141,358,o),
(141,343,cs),
(141,328,o),
(154,315,o),
(169,315,cs),
(184,315,o),
(197,328,o),
(197,343,cs)
);
},
{
closed = 1;
nodes = (
(853,477,o),
(846,470,o),
(837,470,cs),
(828,470,o),
(821,477,o),
(821,486,cs),
(821,495,o),
(828,502,o),
(837,502,cs),
(846,502,o),
(853,495,o),
(853,486,cs)
);
},
{
closed = 1;
nodes = (
(216,514,o),
(209,507,o),
(200,507,cs),
(191,507,o),
(184,514,o),
(184,523,cs),
(184,532,o),
(191,539,o),
(200,539,cs),
(209,539,o),
(216,532,o),
(216,523,cs)
);
},
{
closed = 1;
nodes = (
(891,264,o),
(884,257,o),
(875,257,cs),
(866,257,o),
(859,264,o),
(859,273,cs),
(859,282,o),
(866,289,o),
(875,289,cs),
(884,289,o),
(891,282,o),
(891,273,cs)
);
},
{
closed = 1;
nodes = (
(324,618,o),
(317,611,o),
(308,611,cs),
(299,611,o),
(292,618,o),
(292,627,cs),
(292,636,o),
(299,643,o),
(308,643,cs),
(317,643,o),
(324,636,o),
(324,627,cs)
);
},
{
closed = 1;
nodes = (
(888,687,o),
(881,680,o),
(872,680,cs),
(863,680,o),
(856,687,o),
(856,696,cs),
(856,705,o),
(863,712,o),
(872,712,cs),
(881,712,o),
(888,705,o),
(888,696,cs)
);
},
{
closed = 1;
nodes = (
(146,689,o),
(140,683,o),
(132,683,cs),
(124,683,o),
(118,689,o),
(118,697,cs),
(118,705,o),
(124,711,o),
(132,711,cs),
(140,711,o),
(146,705,o),
(146,697,cs)
);
},
{
closed = 1;
nodes = (
(145,191,o),
(138,184,o),
(131,184,cs),
(124,184,o),
(117,191,o),
(117,198,cs),
(117,205,o),
(124,212,o),
(131,212,cs),
(138,212,o),
(145,205,o),
(145,198,cs)
);
},
{
closed = 1;
nodes = (
(183,336,o),
(176,329,o),
(169,329,cs),
(162,329,o),
(155,336,o),
(155,343,cs),
(155,350,o),
(162,357,o),
(169,357,cs),
(176,357,o),
(183,350,o),
(183,343,cs)
);
},
{
closed = 1;
nodes = (
(501,688,o),
(494,681,o),
(487,681,cs),
(480,681,o),
(473,688,o),
(473,695,cs),
(473,702,o),
(480,709,o),
(487,709,cs),
(494,709,o),
(501,702,o),
(501,695,cs)
);
}
);
width = 1000;
}
);
note = cid08218;
unicode = 9731;
}
{
glyphname = blackstar;
layers = (
{
hints = (
{
horizontal = 1;
place = (-93,927);
type = Stem;
},
{
place = (12,976);
type = Stem;
}
);
layerId = "481A290F-76EE-4968-957F-52614F4635C1";
shapes = (
{
closed = 1;
nodes = (
(793,-93,l),
(686,264,l),
(988,480,l),
(615,480,l),
(500,834,l),
(385,480,l),
(12,480,l),
(314,264,l),
(208,-93,l),
(500,125,l)
);
}
);
width = 1000;
}
);
note = cid00722;
unicode = 9733;
}
{
glyphname = "sharp-musical";
layers = (
{
hints = (
{
horizontal = 1;
place = (-63,863);
type = Stem;
},
{
place = (342,62);
type = Stem;
},
{
place = (600,62);
type = Stem;
},
{
horizontal = 1;
place = (219,68);
type = Stem;
},
{
horizontal = 1;
place = (464,63);
type = Stem;
},
{
horizontal = 1;
place = (131,63);
type = Stem;
}
);
layerId = "481A290F-76EE-4968-957F-52614F4635C1";
shapes = (
{
closed = 1;
nodes = (
(598,-41,ls),
(598,-54,o),
(618,-62,o),
(637,-62,cs),
(651,-62,o),
(664,-57,o),
(664,-46,cs),
(663,-15,o),
(662,18,o),
(662,37,cs),
(662,188,l),
(731,199,l),
(813,209,l),
(822,211,o),
(826,220,o),
(826,231,cs),
(826,249,o),
(816,272,o),
(803,272,cs),
(800,272,l),
(772,266,o),
(745,261,o),
(725,258,cs),
(662,248,l),
(662,521,l),
(731,532,ls),
(749,535,o),
(782,538,o),
(813,542,cs),
(822,544,o),
(826,553,o),
(826,564,cs),
(826,582,o),
(816,605,o),
(803,605,cs),
(800,605,l),
(772,599,o),
(744,594,o),
(725,591,cs),
(662,581,l),
(662,683,ls),
(662,707,o),
(664,748,o),
(665,764,cs),
(665,765,ls),
(665,776,o),
(642,785,o),
(623,785,cs),
(609,785,o),
(598,781,o),
(598,769,cs),
(599,749,o),
(600,714,o),
(600,682,cs),
(600,572,l),
(404,542,l),
(404,650,ls),
(404,674,o),
(406,715,o),
(407,731,cs),
(407,732,ls),
(407,743,o),
(384,752,o),
(365,752,cs),
(351,752,o),
(340,748,o),
(340,736,cs),
(341,716,o),
(342,681,o),
(342,649,cs),
(342,533,l),
(278,523,ls),
(247,518,o),
(212,514,o),
(192,512,cs),
(182,511,o),
(178,503,o),
(178,492,cs),
(178,474,o),
(190,449,o),
(202,449,cs),
(204,449,l),
(222,453,o),
(261,459,o),
(284,463,cs),
(342,472,l),
(342,200,l),
(278,190,ls),
(250,186,o),
(212,181,o),
(192,179,cs),
(182,178,o),
(178,170,o),
(178,159,cs),
(178,141,o),
(190,116,o),
(202,116,cs),
(204,116,l),
(284,130,l),
(342,139,l),
(342,20,ls),
(342,4,o),
(341,-28,o),
(339,-56,cs),
(339,-57,ls),
(339,-70,o),
(359,-78,o),
(378,-78,cs),
(392,-78,o),
(405,-73,o),
(405,-62,cs),
(404,-31,o),
(404,2,o),
(404,21,cs),
(404,149,l),
(600,179,l),
(600,36,ls),
(600,20,o),
(600,-12,o),
(598,-40,cs)
);
},
{
closed = 1;
nodes = (
(600,239,l),
(404,209,l),
(404,481,l),
(600,511,l)
);
}
);
width = 1000;
}
);
note = cid00773;
unicode = 9839;
}
{
glyphname = mediumBlackCircle;
layers = (
{
hints = (
{
horizontal = 1;
place = (88,580);
type = Stem;
},
{
place = (210,580);
type = Stem;
}
);
layerId = "481A290F-76EE-4968-957F-52614F4635C1";
shapes = (
{
closed = 1;
nodes = (
(790,522,o),
(659,653,o),
(500,653,cs),
(341,653,o),
(210,522,o),
(210,363,cs),
(210,204,o),
(341,73,o),
(500,73,cs),
(659,73,o),
(790,204,o),
(790,363,cs)
);
}
);
width = 1000;
}
);
note = cid12255;
unicode = 9899;
}
{
glyphname = cid12233;
layers = (
{
hints = (
{
horizontal = 1;
place = (-56,45);
type = Stem;
},
{
horizontal = 1;
place = (770,45);
type = Stem;
},
{
place = (62,45);
type = Stem;
},
{
place = (891,45);
type = Stem;
}
);
layerId = "481A290F-76EE-4968-957F-52614F4635C1";
shapes = (
{
closed = 1;
nodes = (
(936,-71,l),
(936,800,l),
(62,800,l),
(62,-71,l)
);
},
{
closed = 1;
nodes = (
(891,-26,l),
(107,-26,l),
(107,755,l),
(891,755,l)
);
},
{
closed = 1;
nodes = (
(888,365,l),
(500,754,l),
(109,363,l),
(498,-25,l)
);
},
{
closed = 1;
nodes = (
(825,365,l),
(498,38,l),
(172,363,l),
(500,691,l)
);
}
);
width = 1000;
}
);
note = cid12233;
unicode = 9931;
}
{
glyphname = heavyTeardropSpokedAsterisk;
layers = (
{
layerId = "481A290F-76EE-4968-957F-52614F4635C1";
shapes = (
{
closed = 1;
nodes = (
(432,178,o),
(437,181,o),
(421,160,cs),
(405,139,o),
(405,127,o),
(427,134,cs),
(449,142,o),
(439,121,o),
(439,104,cs),
(438,87,o),
(453,90,o),
(462,95,cs),
(471,100,o),
(482,103,o),
(483,92,cs),
(486,62,o),
(513,62,o),
(516,92,cs),
(517,103,o),
(528,100,o),
(537,95,cs),
(546,89,o),
(561,88,o),
(560,104,cs),
(560,121,o),
(550,142,o),
(572,134,cs),
(594,127,o),
(593,139,o),
(578,160,cs),
(562,181,o),
(567,178,o),
(590,178,cs),
(613,179,o),
(593,189,o),
(572,205,cs),
(550,220,o),
(507,249,o),
(507,380,cs),
(507,511,o),
(550,540,o),
(572,555,cs),
(593,571,o),
(613,581,o),
(590,582,cs),
(567,582,o),
(562,579,o),
(578,600,cs),
(593,621,o),
(594,633,o),
(572,626,cs),
(550,618,o),
(560,639,o),
(560,656,cs),
(561,672,o),
(546,671,o),
(537,665,cs),
(528,660,o),
(517,657,o),
(516,668,cs),
(513,698,o),
(486,698,o),
(483,668,cs),
(482,657,o),
(471,660,o),
(462,665,cs),
(453,670,o),
(438,673,o),
(439,656,cs),
(439,639,o),
(449,618,o),
(427,626,cs),
(405,633,o),
(405,621,o),
(421,600,cs),
(437,579,o),
(432,582,o),
(409,582,cs),
(387,581,o),
(405,571,o),
(427,555,cs),
(449,540,o),
(492,511,o),
(492,380,cs),
(492,249,o),
(449,220,o),
(427,205,cs),
(405,189,o),
(387,179,o),
(409,178,cs)
);
},
{
closed = 1;
nodes = (
(291,338,o),
(296,335,o),
(270,338,cs),
(244,341,o),
(233,335,o),
(250,320,cs),
(268,305,o),
(245,303,o),
(230,294,cs),
(215,287,o),
(225,275,o),
(234,270,cs),
(243,265,o),
(251,257,o),
(242,250,cs),
(217,233,o),
(231,209,o),
(258,222,cs),
(268,226,o),
(271,215,o),
(271,205,cs),
(271,194,o),
(277,181,o),
(291,190,cs),
(306,198,o),
(319,217,o),
(323,194,cs),
(328,172,o),
(338,179,o),
(348,202,cs),
(358,226,o),
(358,221,o),
(370,201,cs),
(382,181,o),
(381,204,o),
(384,230,cs),
(386,256,o),
(390,308,o),
(503,374,cs),
(617,439,o),
(663,416,o),
(687,405,cs),
(712,395,o),
(730,382,o),
(720,403,cs),
(708,423,o),
(703,425,o),
(729,422,cs),
(755,420,o),
(766,425,o),
(749,440,cs),
(731,455,o),
(754,457,o),
(769,466,cs),
(783,473,o),
(775,485,o),
(765,490,cs),
(756,495,o),
(748,503,o),
(757,510,cs),
(782,527,o),
(768,551,o),
(741,538,cs),
(731,534,o),
(728,545,o),
(728,555,cs),
(727,565,o),
(723,580,o),
(708,570,cs),
(694,562,o),
(680,543,o),
(676,566,cs),
(671,588,o),
(661,582,o),
(651,558,cs),
(641,534,o),
(641,540,o),
(629,559,cs),
(617,578,o),
(618,557,o),
(615,530,cs),
(613,504,o),
(609,452,o),
(496,387,cs),
(382,321,o),
(336,344,o),
(312,355,cs),
(287,366,o),
(269,377,o),
(279,357,cs)
);
},
{
closed = 1;
nodes = (
(641,220,o),
(641,226,o),
(651,202,cs),
(661,178,o),
(671,172,o),
(676,194,cs),
(680,217,o),
(694,198,o),
(708,190,cs),
(723,180,o),
(727,195,o),
(728,205,cs),
(728,215,o),
(731,226,o),
(741,222,cs),
(768,209,o),
(782,233,o),
(757,250,cs),
(748,257,o),
(756,265,o),
(765,270,cs),
(775,275,o),
(783,287,o),
(769,294,cs),
(754,303,o),
(731,305,o),
(749,320,cs),
(766,335,o),
(755,340,o),
(729,338,cs),
(703,335,o),
(708,337,o),
(720,357,cs),
(730,378,o),
(712,365,o),
(687,355,cs),
(663,344,o),
(617,321,o),
(503,386,cs),
(390,452,o),
(386,504,o),
(384,530,cs),
(381,556,o),
(382,579,o),
(370,559,cs),
(358,539,o),
(358,534,o),
(348,558,cs),
(338,581,o),
(328,588,o),
(323,566,cs),
(319,543,o),
(306,562,o),
(291,570,cs),
(277,579,o),
(271,566,o),
(271,555,cs),
(271,545,o),
(268,534,o),
(258,538,cs),
(231,551,o),
(217,527,o),
(242,510,cs),
(251,503,o),
(243,495,o),
(234,490,cs),
(225,485,o),
(215,473,o),
(230,466,cs),
(245,457,o),
(268,455,o),
(250,440,cs),
(233,425,o),
(244,419,o),
(270,422,cs),
(296,425,o),
(291,422,o),
(279,403,cs),
(269,383,o),
(287,394,o),
(312,405,cs),
(336,416,o),
(382,439,o),
(496,373,cs),
(609,308,o),
(613,256,o),
(615,230,cs),
(618,203,o),
(617,182,o),
(629,201,cs)
);
}
);
width = 1000;
}
);
unicode = 10045;
}
{
glyphname = whiteFlorette;
layers = (
{
hints = (
{
horizontal = 1;
place = (-74,39);
type = Stem;
},
{
horizontal = 1;
place = (339,31);
type = Stem;
},
{
horizontal = 1;
place = (439,46);
type = Stem;
},
{
horizontal = 1;
place = (620,33);
type = Stem;
},
{
horizontal = 1;
place = (797,32);
type = Stem;
},
{
place = (26,37);
type = Stem;
},
{
place = (103,29);
type = Stem;
},
{
place = (346,31);
type = Stem;
},
{
place = (440,31);
type = Stem;
},
{
place = (529,31);
type = Stem;
},
{
place = (623,31);
type = Stem;
},
{
place = (868,29);
type = Stem;
},
{
place = (937,37);
type = Stem;
},
{
horizontal = 1;
place = (749,33);
type = Stem;
},
{
place = (562,43);
type = Stem;
},
{
horizontal = 1;
place = (286,38);
type = Stem;
},
{
place = (120,37);
type = Stem;
},
{
place = (843,37);
type = Stem;
}
);
layerId = "481A290F-76EE-4968-957F-52614F4635C1";
shapes = (
{
closed = 1;
nodes = (
(528,424,o),
(654,624,o),
(654,772,cs),
(654,794,o),
(653,814,o),
(626,814,cs),
(611,814,o),
(592,807,o),
(569,797,cs),
(537,783,o),
(513,767,o),
(500,767,cs),
(487,767,o),
(463,783,o),
(431,797,cs),
(408,807,o),
(389,814,o),
(374,814,cs),
(348,814,o),
(346,794,o),
(346,772,cs),
(346,624,o),
(473,424,o),
(500,424,cs)
);
},
{
closed = 1;
nodes = (
(562,380,l),
(566,366,o),
(672,324,o),
(809,324,cs),
(859,324,o),
(974,331,o),
(974,369,cs),
(974,385,o),
(957,405,o),
(937,429,cs),
(915,455,o),
(892,473,o),
(888,485,cs),
(887,488,o),
(887,491,o),
(887,495,cs),
(887,509,o),
(893,533,o),
(895,561,cs),
(896,573,o),
(897,585,o),
(897,595,cs),
(897,615,o),
(894,629,o),
(882,635,cs),
(879,637,o),
(875,638,o),
(870,638,cs),
(834,638,o),
(746,591,o),
(670,521,cs),
(605,461,o),
(562,397,o),
(562,382,cs)
);
},
{
closed = 1;
nodes = (
(438,382,ls),
(438,397,o),
(395,461,o),
(330,521,cs),
(254,591,o),
(166,638,o),
(130,638,cs),
(125,638,o),
(121,637,o),
(118,635,cs),
(106,629,o),
(103,615,o),
(103,595,cs),
(103,585,o),
(104,573,o),
(105,561,cs),
(107,533,o),
(113,509,o),
(113,495,cs),
(113,491,o),
(113,488,o),
(112,485,cs),
(108,473,o),
(85,455,o),
(63,429,cs),
(43,405,o),
(26,385,o),
(26,369,cs),
(26,331,o),
(141,324,o),
(191,324,cs),
(328,324,o),
(434,366,o),
(438,380,c)
);
},
{
closed = 1;
nodes = (
(880,85,ls),
(880,115,o),
(805,193,o),
(705,249,cs),
(636,288,o),
(568,309,o),
(545,309,cs),
(542,309,o),
(539,308,o),
(538,307,cs),
(533,304,o),
(529,283,o),
(529,250,cs),
(529,81,o),
(610,-86,o),
(646,-89,cs),
(647,-89,ls),
(666,-89,o),
(681,-64,o),
(701,-34,cs),
(718,-5,o),
(729,22,o),
(739,30,cs),
(748,38,o),
(779,38,o),
(813,46,cs),
(848,54,o),
(876,62,o),
(880,81,c)
);
},
{
closed = 1;
nodes = (
(354,-89,ls),
(390,-86,o),
(471,78,o),
(471,250,cs),
(471,283,o),
(468,304,o),
(462,307,c),
(461,308,o),
(458,309,o),
(455,309,cs),
(432,309,o),
(364,288,o),
(295,249,cs),
(195,193,o),
(120,115,o),
(120,85,cs),
(120,81,l),
(124,62,o),
(152,54,o),
(187,46,cs),
(221,38,o),
(252,38,o),
(261,30,cs),
(271,22,o),
(282,-5,o),
(299,-34,cs),
(319,-64,o),
(334,-89,o),
(353,-89,cs)
);
},
{
closed = 1;
nodes = (
(478,470,o),
(377,661,o),
(377,767,cs),
(377,774,o),
(377,778,o),
(379,779,c),
(381,781,o),
(384,782,o),
(387,782,cs),
(398,782,o),
(415,772,o),
(434,763,cs),
(460,750,o),
(489,734,o),
(500,734,cs),
(511,734,o),
(540,750,o),
(566,763,cs),
(585,772,o),
(602,782,o),
(613,782,cs),
(616,782,o),
(619,781,o),
(621,779,c),
(623,778,o),
(623,774,o),
(623,767,cs),
(623,661,o),
(523,470,o),
(500,470,cs)
);
},
{
closed = 1;
nodes = (
(920,404,o),
(937,389,o),
(937,378,cs),
(937,377,o),
(937,375,o),
(936,374,c),
(933,366,o),
(875,355,o),
(809,355,cs),
(691,355,o),
(605,387,o),
(605,395,cs),
(605,405,o),
(642,453,o),
(695,503,cs),
(757,560,o),
(842,605,o),
(859,605,cs),
(861,605,o),
(861,604,o),
(862,604,c),
(866,602,o),
(868,596,o),
(868,587,cs),
(868,576,o),
(865,562,o),
(863,547,cs),
(860,524,o),
(855,499,o),
(855,484,cs),
(855,473,o),
(861,463,o),
(904,422,c)
);
},
{
closed = 1;
nodes = (
(139,463,o),
(145,473,o),
(145,484,cs),
(145,499,o),
(140,524,o),
(137,547,cs),
(135,562,o),
(132,576,o),
(132,587,cs),
(132,596,o),
(134,602,o),
(138,604,c),
(139,604,o),
(139,605,o),
(141,605,cs),
(158,605,o),
(243,560,o),
(305,503,cs),
(358,453,o),
(395,405,o),
(395,395,cs),
(395,387,o),
(309,355,o),
(191,355,cs),
(125,355,o),
(67,366,o),
(64,374,c),
(63,375,o),
(63,377,o),
(63,378,cs),
(63,389,o),
(80,404,o),
(96,422,c)
);
},
{
closed = 1;
nodes = (
(772,175,o),
(843,105,o),
(843,92,cs),
(843,82,o),
(831,79,o),
(789,73,cs),
(760,67,o),
(728,64,o),
(719,57,cs),
(711,50,o),
(697,21,o),
(684,-5,cs),
(671,-28,o),
(660,-50,o),
(649,-50,cs),
(632,-50,o),
(560,110,o),
(560,245,cs),
(560,259,o),
(561,268,o),
(564,270,cs),
(565,271,o),
(566,271,o),
(568,271,cs),
(585,271,o),
(638,250,o),
(695,219,cs)
);
},
{
closed = 1;
nodes = (
(303,21,o),
(289,50,o),
(281,57,cs),
(272,64,o),
(240,67,o),
(211,73,cs),
(169,79,o),
(157,82,o),
(157,92,cs),
(157,105,o),
(228,175,o),
(305,219,cs),
(362,250,o),
(415,271,o),
(432,271,cs),
(434,271,o),
(435,271,o),
(436,270,cs),
(439,268,o),
(440,259,o),
(440,245,cs),
(440,123,o),
(372,-50,o),
(351,-50,cs),
(340,-50,o),
(329,-28,o),
(316,-5,cs)
);
}
);
width = 1000;
}
);
note = cid12228;
unicode = 10048;
}
{
glyphname = rightandLeftTriangleArrow;
layers = (
{
hints = (
{
horizontal = 1;
place = (210,54);
type = Stem;
},
{
horizontal = 1;
place = (466,54);
type = Stem;
},
{
place = (34,932);
type = Stem;
}
);
layerId = "481A290F-76EE-4968-957F-52614F4635C1";
shapes = (
{
closed = 1;
nodes = (
(950,195,ls),
(961,195,o),
(966,209,o),
(966,222,cs),
(966,236,o),
(961,249,o),
(950,249,cs),
(338,249,l),
(338,373,l),
(49,222,l),
(338,71,l),
(338,195,l)
);
},
{
closed = 1;
nodes = (
(951,478,l),
(662,629,l),
(662,505,l),
(50,505,ls),
(40,505,o),
(34,492,o),
(34,478,cs),
(34,465,o),
(40,451,o),
(50,451,cs),
(662,451,l),
(662,327,l)
);
}
);
width = 1000;
}
);
note = cid12208;
unicode = 11138;
}
{
color = 6;
glyphname = uni2E95;
layers = (
{
hints = (
{
horizontal = 1;
place = (114,58);
type = Stem;
},
{
horizontal = 1;
place = (325,58);
type = Stem;
},
{
horizontal = 1;
place = (528,56);
type = Stem;
},
{
place = (693,63);
type = Stem;
},
{
horizontal = 1;
place = (360,57);
type = Stem;
},
{
place = (711,65);
type = Stem;
}
);
layerId = "481A290F-76EE-4968-957F-52614F4635C1";
shapes = (
{
closed = 1;
nodes = (
(741,139,ls),
(758,140,o),
(773,141,o),
(773,153,cs),
(773,161,o),
(767,173,o),
(750,194,c),
(764,356,l),
(936,364,ls),
(948,365,o),
(957,370,o),
(957,380,cs),
(957,402,o),
(919,430,o),
(903,430,cs),
(900,430,o),
(897,429,o),
(895,428,cs),
(882,422,o),
(864,420,o),
(849,419,cs),
(770,415,l),
(782,553,ls),
(783,562,o),
(788,570,o),
(788,580,cs),
(788,606,o),
(755,614,o),
(745,614,cs),
(733,614,l),
(273,585,ls),
(267,585,o),
(261,584,o),
(256,584,cs),
(246,584,o),
(236,585,o),
(226,587,cs),
(224,587,o),
(222,588,o),
(220,588,cs),
(216,588,o),
(214,586,o),
(214,582,cs),
(214,580,o),
(215,577,o),
(216,573,cs),
(232,528,o),
(256,528,o),
(269,528,cs),
(277,528,o),
(285,529,o),
(294,529,cs),
(717,553,l),
(705,412,l),
(123,383,l),
(116,383,ls),
(99,383,o),
(84,386,o),
(70,390,cs),
(67,391,o),
(64,391,o),
(62,391,cs),
(58,391,o),
(56,389,o),
(56,386,cs),
(56,371,o),
(72,348,o),
(85,332,c),
(90,328,o),
(96,325,o),
(105,324,cs),
(115,324,ls),
(123,324,o),
(132,325,o),
(143,325,cs),
(700,352,l),
(687,195,l),
(261,172,ls),
(255,172,o),
(249,171,o),
(243,171,cs),
(233,171,o),
(222,172,o),
(212,174,cs),
(210,174,o),
(208,175,o),
(206,175,cs),
(202,175,o),
(200,173,o),
(200,169,cs),
(200,167,o),
(201,164,o),
(202,160,cs),
(219,113,o),
(247,113,o),
(257,113,cs),
(265,113,o),
(273,114,o),
(282,114,cs)
);
}
);
width = 1000;
}
);
note = "cid15391
";
unicode = 11925;
}
{
color = 6;
glyphname = uni38FA;
layers = (
{
hints = (
{
horizontal = 1;
place = (46,537);
type = Stem;
},
{
place = (438,67);
type = Stem;
}
);
layerId = "481A290F-76EE-4968-957F-52614F4635C1";
shapes = (
{
closed = 1;
nodes = (
(439,123,l),
(402,135,o),
(362,152,o),
(328,171,cs),
(315,178,o),
(306,181,o),
(299,181,cs),
(293,181,o),
(291,179,o),
(291,174,cs),
(291,149,o),
(422,46,o),
(460,46,cs),
(477,46,o),
(507,60,o),
(507,97,cs),
(507,107,o),
(506,119,o),
(506,133,cs),
(505,547,ls),
(505,568,o),
(453,583,o),
(432,583,cs),
(424,583,o),
(420,581,o),
(420,577,cs),
(420,574,o),
(421,571,o),
(425,567,cs),
(434,556,o),
(438,542,o),
(438,527,cs)
);
},
{
closed = 1;
nodes = (
(741,350,o),
(806,258,o),
(846,192,cs),
(851,183,o),
(857,178,o),
(865,178,cs),
(877,178,o),
(912,202,o),
(912,221,cs),
(912,233,o),
(814,362,o),
(746,438,cs),
(740,444,o),
(736,448,o),
(729,448,cs),
(722,448,o),
(687,432,o),
(687,415,cs),
(687,411,o),
(690,407,o),
(695,403,c)
);
},
{
closed = 1;
nodes = (
(739,215,o),
(675,324,o),
(602,422,cs),
(596,430,o),
(591,435,o),
(583,435,cs),
(574,435,o),
(543,422,o),
(543,408,cs),
(543,404,o),
(546,400,o),
(550,395,cs),
(591,338,o),
(638,258,o),
(673,188,cs),
(678,178,o),
(683,171,o),
(693,171,cs),
(700,171,o),
(739,189,o),
(739,209,cs)
);
},
{
closed = 1;
nodes = (
(276,361,o),
(205,244,o),
(158,180,cs),
(152,171,o),
(149,165,o),
(149,160,cs),
(149,156,o),
(151,154,o),
(155,154,cs),
(166,154,o),
(250,203,o),
(350,376,cs),
(352,380,o),
(354,384,o),
(354,387,cs),
(354,397,o),
(346,407,o),
(327,420,cs),
(310,432,o),
(298,438,o),
(291,438,cs),
(284,438,o),
(280,433,o),
(280,422,cs)
);
}
);
width = 1000;
}
);
note = "cid13852
%JIS-2
";
unicode = (11927,14586);
}
{
color = 6;
glyphname = uni793B;
layers = (
{
hints = (
{
horizontal = 1;
place = (493,59);
type = Stem;
},
{
place = (464,62);
type = Stem;
}
);
layerId = "481A290F-76EE-4968-957F-52614F4635C1";
shapes = (
{
closed = 1;
nodes = (
(464,46,ls),
(464,23,o),
(461,-12,o),
(457,-34,cs),
(456,-38,o),
(456,-41,o),
(456,-44,cs),
(456,-58,o),
(464,-67,o),
(485,-76,cs),
(495,-80,o),
(503,-82,o),
(509,-82,cs),
(521,-82,o),
(526,-73,o),
(526,-56,cs),
(526,297,l),
(584,260,o),
(640,222,o),
(686,186,cs),
(693,180,o),
(699,177,o),
(704,177,cs),
(721,177,o),
(734,212,o),
(734,223,cs),
(734,231,o),
(729,237,o),
(720,243,cs),
(666,279,o),
(611,312,o),
(539,350,c),
(589,404,o),
(633,464,o),
(672,531,cs),
(675,535,o),
(682,542,o),
(682,551,cs),
(682,566,o),
(659,584,o),
(639,584,cs),
(634,584,o),
(629,584,o),
(623,583,cs),
(334,553,ls),
(326,552,o),
(317,552,o),
(309,552,cs),
(297,552,o),
(286,553,o),
(276,555,c),
(272,555,ls),
(267,555,o),
(264,553,o),
(264,549,cs),
(264,539,o),
(284,493,o),
(321,493,cs),
(331,493,o),
(342,495,o),
(356,496,cs),
(593,521,l),
(514,382,o),
(394,268,o),
(237,160,cs),
(223,150,o),
(216,141,o),
(216,135,cs),
(216,131,o),
(219,129,o),
(225,129,cs),
(244,129,o),
(367,192,o),
(468,282,c)
);
},
{
closed = 1;
nodes = (
(593,610,o),
(609,652,o),
(609,654,cs),
(609,662,o),
(603,668,o),
(592,675,cs),
(590,676,o),
(430,775,o),
(408,775,cs),
(391,775,o),
(380,743,o),
(380,739,cs),
(380,731,o),
(385,726,o),
(394,721,cs),
(448,690,o),
(509,651,o),
(555,618,cs),
(562,613,o),
(568,610,o),
(574,610,cs)
);
}
);
width = 1000;
}
);
note = "cid14905
%JIS-2
";
unicode = (11949,31035);
}
{
color = 7;
glyphname = uni8279;
layers = (
{
hints = (
{
horizontal = 1;
place = (387,54);
type = Stem;
},
{
place = (331,70);
type = Stem;
},
{
place = (609,77);
type = Stem;
},
{
horizontal = 1;
place = (373,57);
type = Stem;
},
{
horizontal = 1;
place = (360,51);
type = Stem;
}
);
layerId = "481A290F-76EE-4968-957F-52614F4635C1";
shapes = (
{
closed = 1;
nodes = (
(896,394,ls),
(909,395,o),
(918,400,o),
(918,409,cs),
(918,420,o),
(894,457,o),
(870,457,cs),
(865,457,o),
(860,456,o),
(855,454,cs),
(840,449,o),
(826,447,o),
(805,446,cs),
(657,438,l),
(668,480,o),
(677,520,o),
(685,558,c),
(685,560,o),
(686,563,o),
(686,565,cs),
(686,592,o),
(621,611,o),
(608,611,cs),
(601,611,o),
(597,608,o),
(597,603,cs),
(597,601,o),
(598,598,o),
(600,594,cs),
(607,581,o),
(609,569,o),
(609,557,cs),
(609,549,ls),
(606,517,o),
(600,478,o),
(593,435,c),
(382,425,l),
(368,552,ls),
(366,566,o),
(361,582,o),
(303,582,cs),
(288,582,o),
(280,579,o),
(280,572,cs),
(280,569,o),
(281,565,o),
(285,561,cs),
(298,545,o),
(306,533,o),
(308,517,cs),
(319,421,l),
(132,412,ls),
(126,412,o),
(121,411,o),
(116,411,cs),
(106,411,o),
(97,412,o),
(84,415,c),
(82,416,o),
(79,416,o),
(78,416,cs),
(73,416,o),
(71,413,o),
(71,409,cs),
(71,408,o),
(71,405,o),
(72,403,cs),
(88,358,o),
(104,355,o),
(129,355,cs),
(135,355,o),
(143,355,o),
(152,356,cs),
(326,365,l),
(330,326,ls),
(331,319,o),
(331,313,o),
(331,306,cs),
(331,296,o),
(330,287,o),
(329,276,cs),
(329,272,ls),
(329,249,o),
(364,237,o),
(383,237,cs),
(395,237,o),
(401,244,o),
(401,257,cs),
(401,260,l),
(389,368,l),
(582,378,l),
(575,339,o),
(566,300,o),
(557,264,cs),
(555,255,o),
(554,248,o),
(554,242,cs),
(554,228,o),
(559,221,o),
(565,221,cs),
(577,221,o),
(596,241,o),
(640,381,c)
);
}
);
width = 1000;
}
);
note = "cid14197
%JIS-2
";
unicode = (11966,33401);
}
{
color = 4;
glyphname = uniFA5E;
layers = (
{
hints = (
{
horizontal = 1;
place = (390,55);
type = Stem;
},
{
place = (291,70);
type = Stem;
},
{
place = (672,76);
type = Stem;
},
{
horizontal = 1;
place = (378,56);
type = Stem;
},
{
horizontal = 1;
place = (370,54);
type = Stem;
},
{
horizontal = 1;
place = (360,52);
type = Stem;
}
);
layerId = "481A290F-76EE-4968-957F-52614F4635C1";
shapes = (
{
closed = 1;
nodes = (
(893,395,ls),
(906,396,o),
(915,401,o),
(915,410,cs),
(915,421,o),
(891,458,o),
(867,458,cs),
(862,458,o),
(857,457,o),
(852,455,cs),
(837,450,o),
(823,448,o),
(802,447,cs),
(721,443,l),
(731,481,o),
(740,518,o),
(747,553,c),
(747,555,o),
(748,558,o),
(748,560,cs),
(748,587,o),
(683,606,o),
(670,606,cs),
(663,606,o),
(659,603,o),
(659,598,cs),
(659,596,o),
(660,593,o),
(662,589,cs),
(670,575,o),
(672,563,o),
(672,550,cs),
(672,544,ls),
(672,515,o),
(629,300,o),
(619,261,cs),
(617,252,o),
(616,245,o),
(616,239,cs),
(616,225,o),
(620,218,o),
(627,218,cs),
(635,218,o),
(657,228,o),
(704,385,c)
);
},
{
closed = 1;
nodes = (
(361,255,l),
(348,367,l),
(326,545,l),
(325,552,o),
(321,575,o),
(262,575,cs),
(247,575,o),
(238,571,o),
(238,564,cs),
(238,561,o),
(239,558,o),
(243,554,cs),
(256,540,o),
(264,526,o),
(266,510,cs),
(277,420,l),
(135,413,ls),
(129,413,o),
(124,412,o),
(119,412,cs),
(109,412,o),
(100,413,o),
(87,416,c),
(85,417,o),
(82,417,o),
(81,417,cs),
(76,417,o),
(74,414,o),
(74,410,cs),
(74,409,o),
(74,406,o),
(75,404,cs),
(91,358,o),
(111,356,o),
(127,356,cs),
(134,356,o),
(143,356,o),
(155,357,cs),
(285,364,l),
(290,321,ls),
(291,314,o),
(291,308,o),
(291,301,cs),
(291,291,o),
(289,282,o),
(289,271,cs),
(289,267,ls),
(289,244,o),
(324,232,o),
(343,232,cs),
(355,232,o),
(361,238,o),
(361,250,cs)
);
},
{
closed = 1;
nodes = (
(660,440,l),
(591,436,o),
(557,436,o),
(524,434,cs),
(518,434,o),
(515,428,o),
(515,423,cs),
(515,396,o),
(557,380,o),
(587,378,cs),
(593,378,o),
(612,380,o),
(668,385,c)
);
},
{
closed = 1;
nodes = (
(336,370,l),
(359,372,o),
(385,376,o),
(408,379,cs),
(432,382,o),
(456,388,o),
(457,401,cs),
(458,415,o),
(453,424,o),
(442,426,cs),
(438,427,o),
(433,428,o),
(425,428,cs),
(330,424,l)
);
}
);
width = 1000;
}
);
note = "cid14198
%JIS-2
";
unicode = (11967,64094);
}
{
color = 6;
glyphname = uniFA66;
layers = (
{
hints = (
{
horizontal = 1;
place = (-67,66);
type = Stem;
},
{
horizontal = 1;
place = (37,55);
type = Stem;
},
{
horizontal = 1;
place = (420,56);
type = Stem;
},
{
place = (47,915);
type = Stem;
},
{
place = (149,64);
type = Stem;
},
{
place = (252,69);
type = Stem;
}
);
layerId = "481A290F-76EE-4968-957F-52614F4635C1";
shapes = (
{
closed = 1;
nodes = (
(291,548,o),
(315,575,o),
(315,588,cs),
(315,608,o),
(179,749,o),
(155,749,cs),
(143,749,o),
(120,732,o),
(120,720,cs),
(120,714,o),
(125,708,o),
(133,701,cs),
(174,665,o),
(213,619,o),
(252,567,cs),
(261,555,o),
(268,548,o),
(276,548,cs)
);
},
{
closed = 1;
nodes = (
(909,-67,ls),
(945,-67,o),
(962,-12,o),
(962,-10,cs),
(962,-3,o),
(954,-1,o),
(939,-1,cs),
(934,-1,ls),
(733,-1,o),
(453,53,o),
(297,83,cs),
(274,87,o),
(253,91,o),
(233,92,c),
(304,154,o),
(321,174,o),
(321,198,cs),
(321,226,o),
(298,248,o),
(218,299,cs),
(214,301,o),
(213,303,o),
(213,306,cs),
(213,314,o),
(260,374,o),
(307,434,cs),
(313,441,o),
(325,449,o),
(325,460,cs),
(325,467,o),
(310,494,o),
(285,494,cs),
(281,494,o),
(278,494,o),
(273,493,cs),
(123,477,ls),
(117,476,o),
(112,476,o),
(106,476,cs),
(96,476,o),
(86,477,o),
(76,479,cs),
(74,479,o),
(72,480,o),
(70,480,cs),
(66,480,o),
(64,478,o),
(64,473,cs),
(64,471,o),
(64,469,o),
(65,467,c),
(67,458,o),
(81,420,o),
(121,420,cs),
(126,420,o),
(133,420,o),
(141,421,cs),
(233,433,l),
(156,325,o),
(149,314,o),
(149,297,cs),
(149,282,o),
(158,270,o),
(176,258,cs),
(203,241,o),
(252,207,o),
(252,197,cs),
(252,195,o),
(251,194,o),
(250,192,c),
(226,163,o),
(198,132,o),
(153,93,c),
(56,85,o),
(47,74,o),
(47,59,cs),
(47,32,o),
(57,15,o),
(72,15,cs),
(77,15,o),
(83,17,o),
(90,19,cs),
(131,32,o),
(165,37,o),
(195,37,cs),
(229,37,o),
(258,31,o),
(288,25,cs),
(441,-6,o),
(721,-61,o),
(904,-67,cs)
);
}
);
width = 1000;
}
);
note = "cid15403
%JIS-2
";
unicode = (11980,64102);
}
{
color = 6;
glyphname = uni961D;
layers = (
{
hints = (
{
horizontal = 1;
place = (111,81);
type = Stem;
},
{
horizontal = 1;
place = (666,61);
type = Stem;
},
{
place = (340,68);
type = Stem;
},
{
place = (624,67);
type = Stem;
}
);
layerId = "481A290F-76EE-4968-957F-52614F4635C1";
shapes = (
{
closed = 1;
nodes = (
(340,22,ls),
(340,-2,o),
(338,-24,o),
(333,-49,cs),
(332,-52,o),
(332,-55,o),
(332,-57,cs),
(332,-82,o),
(369,-102,o),
(390,-102,cs),
(402,-102,o),
(408,-94,o),
(408,-80,cs),
(405,661,l),
(599,672,l),
(570,618,o),
(535,561,o),
(494,503,cs),
(485,491,o),
(481,480,o),
(481,471,cs),
(481,461,o),
(487,452,o),
(496,444,cs),
(586,372,o),
(624,283,o),
(624,234,cs),
(624,222,o),
(622,211,o),
(618,198,cs),
(617,193,o),
(614,192,o),
(611,192,cs),
(609,192,o),
(606,192,o),
(604,193,c),
(556,204,o),
(504,221,o),
(465,238,cs),
(453,243,o),
(444,245,o),
(438,245,cs),
(432,245,o),
(429,243,o),
(429,239,cs),
(429,208,o),
(591,111,o),
(632,111,cs),
(672,111,o),
(691,163,o),
(691,224,cs),
(691,324,o),
(636,397,o),
(560,462,cs),
(553,468,o),
(549,473,o),
(549,478,cs),
(549,481,o),
(551,484,o),
(553,487,cs),
(593,540,o),
(631,599,o),
(670,670,cs),
(674,677,o),
(684,683,o),
(684,694,cs),
(684,707,o),
(666,728,o),
(641,728,cs),
(626,728,l),
(406,714,l),
(367,731,o),
(344,738,o),
(333,738,cs),
(325,738,o),
(322,735,o),
(322,730,cs),
(322,725,o),
(324,719,o),
(328,712,cs),
(335,697,o),
(338,675,o),
(338,657,cs)
);
}
);
width = 1000;
}
);
note = "cid15262
%JIS-2
";
unicode = (11983,11990,38429);
}
{
color = 4;
glyphname = uni9577;
layers = (
{
hints = (
{
horizontal = 1;
place = (331,52);
type = Stem;
},
{
horizontal = 1;
place = (462,51);
type = Stem;
},
{
horizontal = 1;
place = (576,50);
type = Stem;
},
{
horizontal = 1;
place = (698,51);
type = Stem;
},
{
place = (252,63);
type = Stem;
},
{
place = (290,61);
type = Stem;
},
{
horizontal = 1;
place = (306,54);
type = Stem;
},
{
horizontal = 1;
place = (-83,65);
type = Stem;
},
{
name = _corner.rHook;
options = 2;
origin = (0,98);
scale = (1.1,1);
type = Corner;
}
);
layerId = "481A290F-76EE-4968-957F-52614F4635C1";
shapes = (
{
closed = 1;
nodes = (
(915,343,ls),
(928,344,o),
(939,348,o),
(939,358,cs),
(939,376,o),
(900,403,o),
(888,403,cs),
(885,403,o),
(882,403,o),
(880,402,cs),
(868,398,o),
(856,396,o),
(841,395,cs),
(351,371,l),
(352,453,l),
(722,471,ls),
(735,472,o),
(745,476,o),
(745,485,cs),
(745,499,o),
(712,528,o),
(695,528,cs),
(692,528,o),
(689,528,o),
(687,527,cs),
(675,523,o),
(663,521,o),
(648,520,cs),
(352,507,l),
(353,566,l),
(722,587,ls),
(735,588,o),
(745,592,o),
(745,601,cs),
(745,615,o),
(714,644,o),
(695,644,cs),
(692,644,o),
(690,643,o),
(687,642,cs),
(675,638,o),
(661,636,o),
(648,635,cs),
(353,618,l),
(354,686,l),
(778,711,ls),
(791,712,o),
(801,716,o),
(801,725,cs),
(801,743,o),
(769,769,o),
(752,769,cs),
(749,769,o),
(746,768,o),
(744,767,cs),
(732,763,o),
(718,761,o),
(704,760,cs),
(353,739,l),
(316,757,o),
(295,764,o),
(285,764,cs),
(279,764,o),
(276,761,o),
(276,757,cs),
(276,752,o),
(279,745,o),
(282,737,cs),
(289,720,o),
(290,700,o),
(290,683,cs),
(290,368,l),
(123,360,ls),
(118,360,o),
(113,359,o),
(108,359,cs),
(97,359,o),
(87,360,o),
(77,363,cs),
(74,364,o),
(71,364,o),
(69,364,cs),
(64,364,o),
(62,362,o),
(62,358,cs),
(62,355,o),
(63,351,o),
(65,346,cs),
(69,334,o),
(78,321,o),
(90,310,cs),
(95,306,o),
(102,305,o),
(113,305,cs),
(122,305,o),
(132,306,o),
(144,306,cs),
(254,310,l),
(251,-76,l),
(308,-72,o),
(400,-32,o),
(547,41,cs),
(566,50,o),
(575,61,o),
(575,68,cs),
(575,73,o),
(569,76,o),
(560,76,cs),
(553,76,o),
(545,74,o),
(535,71,cs),
(459,48,o),
(385,26,o),
(314,7,c),
(318,314,l),
(364,316,l),
(618,5,o),
(916,-58,o),
(917,-58,cs),
(938,-58,o),
(970,-19,o),
(970,-12,cs),
(970,-7,o),
(962,-3,o),
(947,1,cs),
(823,30,o),
(708,86,o),
(609,157,c),
(698,202,o),
(785,254,o),
(785,272,cs),
(785,282,o),
(766,328,o),
(746,328,cs),
(741,328,o),
(737,324,o),
(734,316,cs),
(721,287,o),
(641,231,o),
(563,192,c),
(516,231,o),
(472,274,o),
(433,319,c)
);
}
);
width = 1000;
}
);
note = "cid03029
%Big5-1,TEdu-1,TTaiKe,JJoyo,JIS-1
";
unicode = (11985,12199,38263);
}
{
color = 4;
glyphname = uni2ED7;
layers = (
{
hints = (
{
horizontal = 1;
place = (435,69);
type = Stem;
},
{
horizontal = 1;
place = (543,56);
type = Stem;
},
{
place = (459,66);
type = Stem;
}
);
layerId = "481A290F-76EE-4968-957F-52614F4635C1";
shapes = (
{
closed = 1;
nodes = (
(850,445,l),
(836,410,o),
(814,368,o),
(787,319,cs),
(782,310,o),
(780,304,o),
(780,299,cs),
(780,294,o),
(783,291,o),
(787,291,cs),
(809,291,o),
(888,396,o),
(922,444,cs),
(927,451,o),
(941,455,o),
(941,465,cs),
(941,475,o),
(916,505,o),
(886,505,cs),
(881,505,l),
(529,484,l),
(531,560,l),
(763,576,ls),
(775,577,o),
(784,582,o),
(784,591,cs),
(784,606,o),
(749,635,o),
(728,635,cs),
(724,635,o),
(721,634,o),
(717,633,cs),
(707,630,o),
(693,628,o),
(680,627,cs),
(291,599,l),
(279,599,ls),
(266,599,o),
(255,600,o),
(242,603,c),
(240,603,o),
(239,604,o),
(237,604,cs),
(233,604,o),
(231,602,o),
(231,597,cs),
(231,595,o),
(241,543,o),
(283,543,cs),
(290,543,o),
(299,544,o),
(309,545,cs),
(465,556,l),
(464,480,l),
(213,465,l),
(216,474,o),
(219,484,o),
(221,493,cs),
(222,496,o),
(222,498,o),
(222,501,cs),
(222,505,o),
(218,522,o),
(183,522,cs),
(171,522,o),
(166,516,o),
(162,504,cs),
(141,430,o),
(112,352,o),
(82,293,cs),
(80,289,o),
(79,285,o),
(79,281,cs),
(79,259,o),
(118,248,o),
(121,248,cs),
(130,248,o),
(144,252,o),
(196,407,c),
(463,422,l),
(459,237,ls),
(459,221,o),
(456,206,o),
(453,193,cs),
(452,190,o),
(452,187,o),
(452,184,cs),
(452,155,o),
(500,147,o),
(503,147,cs),
(515,147,o),
(522,156,o),
(522,174,cs),
(528,426,l)
);
},
{
closed = 1;
nodes = (
(767,197,o),
(770,203,o),
(774,220,cs),
(775,223,o),
(775,226,o),
(775,229,cs),
(775,240,o),
(769,245,o),
(755,249,cs),
(709,261,o),
(647,274,o),
(590,280,cs),
(587,280,o),
(584,281,o),
(582,281,cs),
(571,281,o),
(567,276,o),
(564,260,cs),
(563,256,o),
(563,253,o),
(563,251,cs),
(563,238,o),
(572,235,o),
(584,233,cs),
(633,227,o),
(696,212,o),
(744,199,cs),
(750,198,o),
(754,197,o),
(757,197,cs)
);
},
{
closed = 1;
nodes = (
(401,291,o),
(404,310,o),
(404,322,cs),
(404,333,o),
(399,338,o),
(387,341,cs),
(339,353,o),
(284,362,o),
(239,368,cs),
(235,368,o),
(232,369,o),
(229,369,cs),
(219,369,o),
(215,365,o),
(213,352,cs),
(212,348,o),
(212,344,o),
(212,341,cs),
(212,330,o),
(218,325,o),
(232,323,cs),
(273,317,o),
(330,304,o),
(373,293,cs),
(379,292,o),
(382,291,o),
(385,291,cs)
);
},
{
closed = 1;
nodes = (
(395,267,o),
(298,242,o),
(285,239,cs),
(251,231,o),
(233,229,o),
(219,229,cs),
(206,229,ls),
(200,229,o),
(197,227,o),
(197,223,cs),
(197,221,o),
(197,219,o),
(198,217,cs),
(205,200,o),
(216,172,o),
(237,172,cs),
(273,172,o),
(416,229,o),
(415,260,cs),
(415,264,o),
(411,267,o),
(403,267,cs)
);
},
{
closed = 1;
nodes = (
(678,368,o),
(612,347,o),
(580,338,cs),
(567,335,o),
(563,328,o),
(563,322,cs),
(563,316,o),
(569,311,o),
(582,311,cs),
(625,311,o),
(748,329,o),
(759,339,cs),
(768,348,o),
(761,385,o),
(742,399,cs),
(737,402,o),
(732,402,o),
(725,397,cs)
);
}
);
width = 1000;
}
);
note = "cid13645
";
unicode = 11991;
}
